<?xml version="1.0" ?><!DOCTYPE svg  PUBLIC '-//W3C//DTD SVG 1.1//EN'  'http://www.w3.org/Graphics/SVG/1.1/DTD/svg11.dtd'><svg height="512px" style="enable-background:new 0 0 512 512;" version="1.1" viewBox="0 0 512 512" width="512px" xml:space="preserve" xmlns="http://www.w3.org/2000/svg" xmlns:xlink="http://www.w3.org/1999/xlink"><g id="C_-_162_x2C__watch_x2C__smart_watch_x2C__time_x2C__phone_x2C__android"><g><path d="M201.932,77.226c0-2.588,2.098-4.686,4.686-4.686s4.686,2.098,4.686,4.686v43.487c4.252-0.967,8.561-1.727,12.916-2.292    c0.434-0.057,0.869-0.111,1.305-0.164c0.861-0.104,1.722-0.208,2.587-0.295c1.264-0.13,2.533-0.245,3.806-0.34    c0.507-0.038,1.016-0.064,1.524-0.096c1.053-0.068,2.108-0.125,3.167-0.169c0.476-0.019,0.952-0.039,1.428-0.054    c1.493-0.048,2.99-0.08,4.495-0.08c1.504,0,3,0.032,4.494,0.08c0.479,0.015,0.956,0.035,1.434,0.054    c1.054,0.045,2.105,0.102,3.152,0.168c0.514,0.033,1.029,0.06,1.542,0.098c1.266,0.095,2.528,0.208,3.784,0.337    c0.885,0.09,1.766,0.196,2.647,0.302c0.406,0.05,0.814,0.101,1.221,0.153c4.371,0.566,8.698,1.33,12.967,2.3V77.226    c0-2.588,2.098-4.686,4.686-4.686s4.686,2.098,4.686,4.686v45.962c12.497,3.779,24.427,9.313,35.514,16.539V46.169H166.412v93.558    c11.09-7.227,23.021-12.762,35.52-16.541V77.226z"/><path d="M283.143,434.774c0,2.589-2.098,4.686-4.686,4.686s-4.686-2.097-4.686-4.686v-43.488    c-10.141,2.304-20.596,3.493-31.24,3.493c-10.64,0-21.091-1.189-31.228-3.491v43.486c0,2.589-2.098,4.686-4.686,4.686    s-4.686-2.097-4.686-4.686v-45.96c-12.499-3.779-24.43-9.313-35.52-16.54v93.558h152.244v-93.558    c-11.087,7.225-23.017,12.76-35.514,16.538V434.774z"/><path d="M244.426,260.234c-0.605,0.268-1.25,0.4-1.895,0.4c-0.783,0-1.564-0.195-2.268-0.584l-50.671-28.019    c-3.343,7.296-5.222,15.391-5.222,23.918c0,31.91,26.09,57.871,58.161,57.871c32.072,0,58.164-25.961,58.164-57.871    c0-6.711-1.166-13.151-3.288-19.149L244.426,260.234z"/><path d="M293.581,228.247c-9.885-17.956-29.06-30.161-51.05-30.161c-20.143,0-37.922,10.244-48.364,25.767l48.596,26.871    L293.581,228.247z"/><path d="M380.768,238.294c0.174,1.364,0.322,2.734,0.457,4.109c0.03,0.312,0.055,0.624,0.083,0.936    c0.097,1.053,0.181,2.109,0.253,3.168c0.026,0.396,0.052,0.79,0.076,1.184c0.059,1.012,0.106,2.028,0.145,3.046    c0.014,0.375,0.033,0.75,0.043,1.125c0.04,1.358,0.065,2.72,0.065,4.088c0,1.368-0.025,2.73-0.065,4.087    c-0.01,0.376-0.029,0.75-0.043,1.125c-0.038,1.019-0.086,2.034-0.146,3.048c-0.022,0.394-0.048,0.787-0.074,1.181    c-0.072,1.063-0.156,2.12-0.253,3.176c-0.028,0.309-0.053,0.618-0.083,0.927c-0.135,1.375-0.283,2.747-0.457,4.111h18.693v-35.311    H380.768z"/><path d="M372.445,251.819c-0.02-0.642-0.043-1.282-0.072-1.921c-0.021-0.438-0.045-0.875-0.069-1.313    c-0.032-0.571-0.069-1.141-0.11-1.709c-0.03-0.452-0.062-0.904-0.098-1.356c-0.049-0.603-0.105-1.205-0.162-1.805    c-0.037-0.396-0.07-0.792-0.112-1.187c-0.101-0.969-0.211-1.937-0.334-2.899c-0.032-0.251-0.068-0.501-0.103-0.751    c-0.102-0.771-0.209-1.543-0.326-2.311c-0.041-0.281-0.088-0.561-0.132-0.842c-8.599-54.266-51.22-97.43-105.374-107.101    c-0.023-0.004-0.045-0.008-0.068-0.012c-2.818-0.501-5.67-0.904-8.548-1.221c-0.89-0.097-1.781-0.188-2.675-0.266    c-0.527-0.047-1.054-0.1-1.583-0.14c-1.424-0.109-2.853-0.192-4.285-0.255c-0.403-0.017-0.807-0.031-1.211-0.045    c-1.546-0.053-3.096-0.092-4.651-0.092c-1.556,0-3.105,0.039-4.652,0.092c-0.402,0.015-0.805,0.028-1.207,0.045    c-1.435,0.063-2.867,0.146-4.293,0.255c-0.521,0.041-1.038,0.092-1.557,0.138c-0.907,0.08-1.812,0.171-2.716,0.27    c-1.696,0.188-3.383,0.401-5.059,0.652c-0.096,0.015-0.193,0.026-0.29,0.041c-1.048,0.16-2.092,0.333-3.131,0.518    c-0.065,0.012-0.129,0.023-0.194,0.036c-60.696,10.876-106.892,63.825-106.892,127.31c0,71.328,58.313,129.357,129.991,129.357    c64.757,0,118.601-47.37,128.393-109.117c0.046-0.288,0.094-0.576,0.137-0.866c0.115-0.755,0.219-1.515,0.32-2.274    c0.035-0.262,0.074-0.522,0.107-0.784c0.122-0.96,0.232-1.924,0.333-2.89c0.042-0.402,0.075-0.805,0.114-1.207    c0.055-0.595,0.111-1.188,0.16-1.785c0.036-0.454,0.067-0.909,0.1-1.365c0.039-0.566,0.076-1.133,0.107-1.701    c0.025-0.438,0.049-0.878,0.07-1.316c0.029-0.639,0.053-1.277,0.072-1.918c0.012-0.365,0.025-0.729,0.035-1.095    c0.023-1.011,0.039-2.023,0.039-3.038c0-1.016-0.016-2.028-0.039-3.038C372.471,252.547,372.457,252.183,372.445,251.819z     M242.531,141.64c6.532,0,11.821,5.264,11.821,11.758c0,6.494-5.289,11.76-11.821,11.76c-6.525,0-11.816-5.266-11.816-11.76    C230.715,146.903,236.006,141.64,242.531,141.64z M139.473,267.709c-6.525,0-11.816-5.266-11.816-11.759    c0-6.495,5.292-11.759,11.816-11.759c6.524,0,11.814,5.265,11.814,11.759C151.287,262.443,145.997,267.709,139.473,267.709z     M242.531,370.268c-6.525,0-11.816-5.266-11.816-11.767c0-6.494,5.292-11.76,11.816-11.76c6.532,0,11.821,5.266,11.821,11.76    C254.353,365.002,249.063,370.268,242.531,370.268z M325.236,224.491l-19.228,8.504c2.623,7.166,4.058,14.896,4.058,22.954    c0,37.077-30.297,67.241-67.535,67.241c-37.237,0-67.531-30.164-67.531-67.241c0-10.171,2.292-19.814,6.37-28.464l-21.91-12.115    c-2.265-1.253-3.085-4.104-1.833-6.369c1.252-2.264,4.105-3.084,6.368-1.833l21.958,12.142    c12.063-18.4,32.911-30.596,56.579-30.596c25.811,0,48.275,14.496,59.64,35.732l19.275-8.525c2.364-1.048,5.133,0.022,6.18,2.389    C328.673,220.678,327.604,223.445,325.236,224.491z M345.594,267.709c-6.525,0-11.822-5.266-11.822-11.759    c0-6.495,5.297-11.759,11.822-11.759c6.527,0,11.816,5.265,11.816,11.759C357.41,262.443,352.121,267.709,345.594,267.709z"/></g></g><g id="Layer_1"/></svg>