<svg id="Layer_1" data-name="Layer 1" xmlns="http://www.w3.org/2000/svg" viewBox="0 0 510.24 510.24"><defs><style>.cls-1{fill:#d81b60;}.cls-2,.cls-3{fill:#fff;stroke:#000;stroke-miterlimit:10;}.cls-2{stroke-width:5px;}.cls-3{stroke-width:8px;}</style></defs><circle class="cls-1" cx="273.97" cy="312.29" r="138.2"/><path class="cls-2" d="M251,258.42a38.24,38.24,0,1,0,42.17,42.16A38.31,38.31,0,0,0,251,258.42ZM252.9,318a21.64,21.64,0,1,1,23.75-23.74A21.71,21.71,0,0,1,252.9,318Z"/><path class="cls-3" d="M230.53,111.58l1-.13a186.56,186.56,0,0,1,47.22,0l1,.13h0a1.5,1.5,0,0,0,1.7-1.49V82.53A4.52,4.52,0,0,0,276.9,78H233.34a4.52,4.52,0,0,0-4.52,4.52V110.1a1.49,1.49,0,0,0,1.69,1.48Z"/><path class="cls-3" d="M363.71,144.84c1,.7,1.93,1.4,2.88,2.11l.93.7c1.15.87,2.29,1.74,3.41,2.64a.39.39,0,0,1,.1.08c1.1.87,2.18,1.75,3.25,2.65l1,.8c.85.72,1.69,1.44,2.52,2.17l.84.73,0,0a3.74,3.74,0,0,0,5.44-.5l11.3-14.57a3.76,3.76,0,0,0-.67-5.29l-16.25-12.61a3.79,3.79,0,0,0-5.3.67L362,138.81a3.78,3.78,0,0,0,.81,5.4l.12.08Z"/><path class="cls-3" d="M286.11,68.64h24.05a12.58,12.58,0,0,0,12.58-12.58V49.27a12.58,12.58,0,0,0-12.58-12.58H200.08A12.58,12.58,0,0,0,187.5,49.27v6.79a12.58,12.58,0,0,0,12.58,12.58h86Z"/><path class="cls-3" d="M378.86,169.74h0A178.92,178.92,0,0,0,350.26,147a175.32,175.32,0,0,0-64.95-25.13,179,179,0,0,0-60.39,0c-98.22,16.87-165.36,112-142.39,215.21,14.85,66.72,67.87,118.58,134.79,132.5,114.09,23.74,214.91-63.17,214.91-173.17A175.74,175.74,0,0,0,378.86,169.74ZM258.1,429.17C182.54,430.84,120.71,369,122.38,293.45c1.56-70.71,59.05-128.19,129.75-129.75C327.7,162,389.52,223.86,387.86,299.42,386.29,370.13,328.81,427.61,258.1,429.17Z"/><rect class="cls-2" x="218.86" y="187.09" width="14.43" height="65.68" rx="7.21" transform="matrix(0.94, -0.34, 0.34, 0.94, -61.36, 90.09)"/><rect class="cls-2" x="306.38" y="260.37" width="14.43" height="28.98" rx="7.21" transform="translate(459.05 -115.95) rotate(69.18)"/></svg>