<?xml version="1.0" ?><!DOCTYPE svg  PUBLIC '-//W3C//DTD SVG 1.1//EN'  'http://www.w3.org/Graphics/SVG/1.1/DTD/svg11.dtd'><svg height="512px" style="enable-background:new 0 0 512 512;" version="1.1" viewBox="0 0 512 512" width="512px" xml:space="preserve" xmlns="http://www.w3.org/2000/svg" xmlns:xlink="http://www.w3.org/1999/xlink"><g id="_x34_12_x2C__control_x2C__equalizer_x2C__equalization_x2C__sound_x2C__studio"><g><path d="M76.284,153.096h210.405c1.491,0,2.717,1.225,2.717,2.736v183.082    c0,1.515-1.226,2.738-2.717,2.738H76.284c-1.513,0-2.737-1.224-2.737-2.738V155.832C73.546,154.32,74.771,153.096,76.284,153.096     M318.431,238.727h-18.052c-1.514,0-2.739-1.225-2.739-2.738v-18.051c0-1.516,1.226-2.738,2.739-2.738h18.052    c1.515,0,2.737,1.223,2.737,2.738v18.051C321.168,237.502,319.945,238.727,318.431,238.727z M344.429,238.727h-18.073    c-1.515,0-2.738-1.225-2.738-2.738v-18.051c0-1.516,1.224-2.738,2.738-2.738h18.073c1.515,0,2.739,1.223,2.739,2.738v18.051    C347.168,237.502,345.943,238.727,344.429,238.727z M370.406,238.727h-18.053c-1.513,0-2.737-1.225-2.737-2.738v-18.051    c0-1.516,1.225-2.738,2.737-2.738h18.053c1.513,0,2.737,1.223,2.737,2.738v18.051    C373.144,237.502,371.919,238.727,370.406,238.727z M396.404,238.727H378.33c-1.514,0-2.738-1.225-2.738-2.738v-18.051    c0-1.516,1.225-2.738,2.738-2.738h18.074c1.515,0,2.738,1.223,2.738,2.738v18.051    C399.143,237.502,397.919,238.727,396.404,238.727z M422.382,238.727h-18.053c-1.515,0-2.737-1.225-2.737-2.738v-18.051    c0-1.516,1.223-2.738,2.737-2.738h18.053c1.513,0,2.737,1.223,2.737,2.738v18.051    C425.119,237.502,423.895,238.727,422.382,238.727z M318.431,197.592h-18.052c-1.514,0-2.739-1.247-2.739-2.738v-18.074    c0-1.514,1.226-2.737,2.739-2.737h18.052c1.515,0,2.737,1.224,2.737,2.737v18.074    C321.168,196.345,319.945,197.592,318.431,197.592z M344.429,197.592h-18.073c-1.515,0-2.738-1.247-2.738-2.738v-18.074    c0-1.514,1.224-2.737,2.738-2.737h18.073c1.515,0,2.739,1.224,2.739,2.737v18.074    C347.168,196.345,345.943,197.592,344.429,197.592z M370.406,197.592h-18.053c-1.513,0-2.737-1.247-2.737-2.738v-18.074    c0-1.514,1.225-2.737,2.737-2.737h18.053c1.513,0,2.737,1.224,2.737,2.737v18.074    C373.144,196.345,371.919,197.592,370.406,197.592z M396.404,197.592H378.33c-1.514,0-2.738-1.247-2.738-2.738v-18.074    c0-1.514,1.225-2.737,2.738-2.737h18.074c1.515,0,2.738,1.224,2.738,2.737v18.074    C399.143,196.345,397.919,197.592,396.404,197.592z M422.382,197.592h-18.053c-1.515,0-2.737-1.247-2.737-2.738v-18.074    c0-1.514,1.223-2.737,2.737-2.737h18.053c1.513,0,2.737,1.224,2.737,2.737v18.074    C425.119,196.345,423.895,197.592,422.382,197.592z M181.471,329.811h-21.682c-1.513,0-2.738-1.224-2.738-2.737v-74.681    c0-1.512,1.225-2.736,2.738-2.736h21.682c1.512,0,2.737,1.225,2.737,2.736v74.681    C184.208,328.587,182.983,329.811,181.471,329.811z M149.506,308.131h-21.68c-1.492,0-2.739-1.225-2.739-2.738v-53    c0-1.512,1.248-2.736,2.739-2.736h21.68c1.513,0,2.737,1.225,2.737,2.736v53C152.243,306.906,151.019,308.131,149.506,308.131z     M117.564,278.014H95.861c-1.491,0-2.737-1.225-2.737-2.736v-22.885c0-1.512,1.246-2.736,2.737-2.736h21.703    c1.491,0,2.737,1.225,2.737,2.736v22.885C120.302,276.789,119.056,278.014,117.564,278.014z M181.471,164.938h21.68    c1.515,0,2.737,1.224,2.737,2.738v74.678c0,1.516-1.223,2.74-2.737,2.74h-21.68c-1.492,0-2.739-1.225-2.739-2.74v-74.678    C178.731,166.161,179.979,164.938,181.471,164.938z M213.433,186.618h21.682c1.513,0,2.738,1.224,2.738,2.737v52.998    c0,1.516-1.225,2.74-2.738,2.74h-21.682c-1.512,0-2.737-1.225-2.737-2.74v-52.998    C210.696,187.842,211.921,186.618,213.433,186.618z M245.398,216.734h21.681c1.513,0,2.737,1.225,2.737,2.738v22.881    c0,1.516-1.225,2.74-2.737,2.74h-21.681c-1.513,0-2.738-1.225-2.738-2.74v-22.881C242.66,217.959,243.885,216.734,245.398,216.734    z M283.951,158.572H79.021v177.605h204.93V158.572z M162.528,324.335h16.204v-69.204h-16.204V324.335z M130.563,302.654h16.226    v-47.523h-16.226V302.654z M98.599,272.537h16.226v-17.406H98.599V272.537z M200.413,170.413h-16.205v69.204h16.205V170.413z     M232.377,192.094h-16.205v47.523h16.205V192.094z M264.34,222.209h-16.203v17.408h16.203V222.209z M303.116,233.25h12.577    v-12.598h-12.577V233.25z M329.092,233.25h12.6v-12.598h-12.6V233.25z M355.07,233.25h12.599v-12.598H355.07V233.25z     M381.068,233.25h12.599v-12.598h-12.599V233.25z M407.066,233.25h12.6v-12.598h-12.6V233.25z M303.116,192.115h12.577v-12.599    h-12.577V192.115z M329.092,192.115h12.6v-12.599h-12.6V192.115z M355.07,192.115h12.599v-12.599H355.07V192.115z     M381.068,192.115h12.599v-12.599h-12.599V192.115z M407.066,192.115h12.6v-12.599h-12.6V192.115z M44.142,119.351h368.289v-7.367    H26.001v245.073h15.424V122.089C41.426,120.598,42.65,119.351,44.142,119.351z M306.677,253.818c0-1.492,1.226-2.738,2.717-2.738    c1.515,0,2.737,1.246,2.737,2.738v8.926h7.635c1.515,0,2.738,1.225,2.738,2.738s-1.224,2.738-2.738,2.738h-7.635v69.515    c0,1.491-1.223,2.737-2.737,2.737c-1.491,0-2.717-1.246-2.717-2.737v-69.515h-7.635c-1.513,0-2.737-1.225-2.737-2.738    s1.225-2.738,2.737-2.738h7.635V253.818z M332.654,253.818c0-1.492,1.225-2.738,2.738-2.738s2.736,1.246,2.736,2.738v27.802h7.635    c1.516,0,2.74,1.224,2.74,2.737c0,1.515-1.225,2.738-2.74,2.738h-7.635v50.64c0,1.491-1.223,2.737-2.736,2.737    s-2.738-1.246-2.738-2.737v-50.64h-7.635c-1.514,0-2.737-1.224-2.737-2.738c0-1.514,1.224-2.737,2.737-2.737h7.635V253.818z     M358.652,253.818c0-1.492,1.226-2.738,2.738-2.738c1.491,0,2.738,1.246,2.738,2.738v57.896h7.613    c1.514,0,2.736,1.246,2.736,2.738c0,1.513-1.223,2.738-2.736,2.738h-7.613v20.544c0,1.491-1.247,2.737-2.738,2.737    c-1.513,0-2.738-1.246-2.738-2.737v-20.544h-7.657c-1.489,0-2.714-1.226-2.714-2.738c0-1.492,1.225-2.738,2.714-2.738h7.657    V253.818z M382.893,253.818c0-1.492,1.225-2.738,2.738-2.738c1.491,0,2.738,1.246,2.738,2.738v27.802h7.635    c1.492,0,2.715,1.224,2.715,2.737c0,1.515-1.223,2.738-2.715,2.738h-7.635v50.64c0,1.491-1.247,2.737-2.738,2.737    c-1.514,0-2.738-1.246-2.738-2.737v-50.64h-7.635c-1.512,0-2.737-1.224-2.737-2.738c0-1.514,1.226-2.737,2.737-2.737h7.635    V253.818z M410.629,253.818c0-1.492,1.225-2.738,2.737-2.738c1.491,0,2.737,1.246,2.737,2.738v57.896h7.635    c1.491,0,2.739,1.246,2.739,2.738c0,1.513-1.248,2.738-2.739,2.738h-7.635v20.544c0,1.491-1.246,2.737-2.737,2.737    c-1.513,0-2.737-1.246-2.737-2.737v-20.544h-7.635c-1.515,0-2.738-1.226-2.738-2.738c0-1.492,1.224-2.738,2.738-2.738h7.635    V253.818z M52.867,387.508c-1.513,0-2.737-1.226-2.737-2.717c0-1.513,1.225-2.738,2.737-2.738h299.956    c1.512,0,2.736,1.226,2.736,2.738c0,1.491-1.225,2.717-2.736,2.717H52.867z M228.503,400.017c-1.513,0-2.737-1.225-2.737-2.737    c0-1.514,1.225-2.738,2.737-2.738H436.07c1.513,0,2.738,1.225,2.738,2.738c0,1.513-1.226,2.737-2.738,2.737H228.503z     M457.328,400.017c-1.513,0-2.737-1.225-2.737-2.737c0-1.514,1.225-2.738,2.737-2.738h25.932c1.514,0,2.739,1.225,2.739,2.738    c0,1.513-1.226,2.737-2.739,2.737H457.328z M41.048,399.638c-1.492,0-2.739-1.224-2.739-2.737s1.248-2.737,2.739-2.737H139.4    c1.513,0,2.737,1.224,2.737,2.737s-1.225,2.737-2.737,2.737H41.048z M433.311,124.826h-18.074h-0.066H46.879v234.969v0.089v10.039    h386.431V124.826z" style="fill-rule:evenodd;clip-rule:evenodd;"/></g></g><g id="Layer_1"/></svg>