<?xml version="1.0" ?><!DOCTYPE svg  PUBLIC '-//W3C//DTD SVG 1.1//EN'  'http://www.w3.org/Graphics/SVG/1.1/DTD/svg11.dtd'><svg height="512px" style="enable-background:new 0 0 512 512;" version="1.1" viewBox="0 0 512 512" width="512px" xml:space="preserve" xmlns="http://www.w3.org/2000/svg" xmlns:xlink="http://www.w3.org/1999/xlink"><g id="C_-_188_x2C__focus_group__x2C__Business_x2C__focus_x2C__group_x2C__modern"><g><path d="M394.955,276.831l-26.734,21.664c-1.791,1.452-4.375,1.384-6.087-0.16c-17.794-16.044-40.834-24.88-64.874-24.88    c-13.899,0-27.281,2.861-39.809,8.51c-0.874,3.43-1.93,6.8-3.146,10.106c-0.03,0.079-0.057,0.16-0.087,0.239    c-0.19,0.515-0.389,1.025-0.587,1.537c-0.153,0.394-0.305,0.789-0.463,1.182c-0.122,0.302-0.247,0.604-0.372,0.904    c-0.256,0.622-0.518,1.243-0.786,1.859c-0.052,0.118-0.104,0.236-0.157,0.355c-6.405,14.583-16.021,27.461-27.962,37.734    c-0.551,0.476-1.11,0.942-1.671,1.407c-0.063,0.054-0.126,0.107-0.19,0.159c-5.968,4.922-12.484,9.214-19.456,12.741    c-1.316,6.374-1.983,12.907-1.983,19.455c0,53.038,43.365,96.187,96.667,96.187c53.301,0,96.666-43.148,96.666-96.187    c0-13.945-2.93-27.387-8.707-39.952c-0.414-0.901-0.531-1.91-0.336-2.882L394.955,276.831z M297.807,297.479    c19.002,0,34.461,14.623,34.461,32.596c0,16.206-11.516,45.154-34.461,45.154c-22.938,0-34.451-28.948-34.451-45.154    C263.355,312.103,278.811,297.479,297.807,297.479z M362.124,426.348c-0.042,3.155-0.089,6.725-0.097,10.783    c-0.004,2.585-2.101,4.678-4.686,4.678H237.2c-2.584,0-4.681-2.092-4.686-4.677c-0.008-4.181-0.06-7.848-0.105-11.083    c-0.359-25.652,0.696-27.446,22.587-38.391c4.215-2.106,9.461-4.729,15.72-8.085c1.54-0.826,3.412-0.727,4.855,0.259    l21.696,14.805l21.702-14.806c1.442-0.985,3.315-1.085,4.854-0.258c6.101,3.271,11.253,5.857,15.393,7.936    c11.132,5.588,16.719,8.394,19.961,13.91C362.38,406.87,362.295,413.379,362.124,426.348z"/><path d="M155.192,252.218c15.563,0,25.088-23.168,25.088-35.784c0-12.806-11.254-23.225-25.088-23.225    c-13.83,0-25.082,10.419-25.082,23.225C130.111,229.049,139.634,252.218,155.192,252.218z"/><path d="M335.014,395.885c-3.613-1.814-7.986-4.01-13.104-6.715l-22.001,15.01c-1.594,1.086-3.689,1.087-5.282,0l-21.996-15.01    c-5.271,2.785-9.749,5.023-13.443,6.871c-9.03,4.515-14.005,7.002-15.801,10.067c-1.839,3.14-1.756,9.061-1.606,19.81    c0.028,2.002,0.059,4.166,0.08,6.52h110.823c0.02-2.232,0.047-4.299,0.072-6.214c0.143-10.872,0.223-16.862-1.656-20.058    C349.259,403.035,344.498,400.646,335.014,395.885z"/><path d="M192.397,282.243c-3.612-1.813-7.985-4.009-13.103-6.714l-22.003,15.01c-1.594,1.085-3.689,1.086-5.282-0.001    l-21.996-15.009c-5.271,2.784-9.749,5.022-13.443,6.87c-9.03,4.515-14.005,7.002-15.801,10.067    c-1.839,3.141-1.756,9.061-1.606,19.811c0.028,2.001,0.059,4.165,0.08,6.52h110.823c0.019-2.234,0.046-4.3,0.071-6.214    c0.144-10.873,0.223-16.862-1.655-20.059C206.643,289.395,201.881,287.005,192.397,282.243z"/><path d="M216.197,330.117c0.45-0.369,0.894-0.746,1.336-1.124c0.296-0.254,0.591-0.509,0.884-0.768    c0.266-0.233,0.532-0.467,0.796-0.702c10.578-9.502,19.027-21.263,24.579-34.332c0.143-0.339,0.28-0.681,0.419-1.021    c0.158-0.384,0.315-0.768,0.468-1.153c0.218-0.553,0.43-1.108,0.638-1.666c0.059-0.157,0.118-0.313,0.176-0.47    c0.25-0.682,0.494-1.366,0.729-2.056c0.001-0.003,0.002-0.005,0.003-0.007c3.298-9.679,5.086-20.043,5.086-30.815    c0-53.041-43.365-96.193-96.667-96.193s-96.667,43.152-96.667,96.193c0,53.04,43.365,96.19,96.667,96.19    c23.265,0,44.635-8.222,61.333-21.896C216.05,330.238,216.124,330.178,216.197,330.117z M155.192,183.838    c19.001,0,34.458,14.623,34.458,32.596c0,16.206-11.515,45.155-34.458,45.155c-22.94,0-34.453-28.949-34.453-45.155    C120.74,198.461,136.195,183.838,155.192,183.838z M94.583,328.167c-2.584,0-4.681-2.092-4.686-4.676    c-0.008-4.182-0.06-7.849-0.105-11.083c-0.359-25.653,0.696-27.447,22.587-38.391c4.215-2.107,9.461-4.729,15.72-8.086    c1.541-0.826,3.412-0.726,4.855,0.26l21.696,14.805l21.703-14.806c1.444-0.984,3.315-1.085,4.855-0.259    c6.1,3.271,11.252,5.858,15.392,7.937c11.131,5.588,16.718,8.393,19.959,13.91c3.203,5.45,3.117,11.96,2.946,24.928    c-0.042,3.155-0.089,6.725-0.096,10.784c-0.004,2.584-2.101,4.677-4.686,4.677H94.583z"/><path d="M297.807,365.859c15.564,0,25.09-23.169,25.09-35.784c0-12.806-11.255-23.225-25.09-23.225    c-13.828,0-25.08,10.419-25.08,23.225C272.727,342.69,282.248,365.859,297.807,365.859z"/><path d="M357.348,46.169c-40.738,0-77.327,25.641-91.045,63.805c-0.486,1.354-1.545,2.365-2.825,2.825l-37.43,16.197    l32.254,15.892c1.501,0.739,2.493,2.224,2.604,3.894c3.33,50.338,45.691,89.771,96.441,89.771    c53.308,0,96.677-43.152,96.677-96.193C454.024,89.32,410.655,46.169,357.348,46.169z M357.896,70.196    c19.002,0,34.461,14.623,34.461,32.597c0,16.206-11.516,45.154-34.461,45.154c-22.939,0-34.453-28.948-34.453-45.154    C323.443,84.819,338.899,70.196,357.896,70.196z M422.213,199.064c-0.041,3.155-0.09,6.726-0.098,10.785    c-0.004,2.584-2.102,4.676-4.686,4.676H297.289c-2.584,0-4.681-2.092-4.686-4.676c-0.008-4.182-0.06-7.848-0.105-11.083    c-0.358-25.652,0.697-27.446,22.586-38.39c4.217-2.107,9.463-4.73,15.721-8.086c1.541-0.826,3.412-0.728,4.856,0.259    l21.694,14.805l21.703-14.806c1.443-0.985,3.314-1.084,4.855-0.258c6.1,3.271,11.254,5.857,15.395,7.936    c11.133,5.588,16.721,8.394,19.961,13.91C422.473,179.587,422.387,186.097,422.213,199.064z"/><path d="M395.104,168.601c-3.613-1.813-7.987-4.009-13.106-6.714l-22.003,15.01c-1.593,1.086-3.688,1.085-5.281-0.001    l-21.994-15.009c-5.272,2.786-9.75,5.024-13.445,6.872c-9.323,4.661-14.003,7-15.8,10.067c-1.84,3.139-1.756,9.06-1.605,19.809    c0.027,2.001,0.059,4.167,0.079,6.52H412.77c0.021-2.234,0.048-4.3,0.074-6.216c0.145-10.872,0.225-16.86-1.652-20.056    C409.352,175.753,404.591,173.363,395.104,168.601z"/><path d="M357.896,138.577c15.564,0,25.09-23.168,25.09-35.784c0-12.807-11.256-23.226-25.09-23.226    c-13.83,0-25.082,10.419-25.082,23.226C332.814,115.408,342.338,138.577,357.896,138.577z"/></g></g><g id="Layer_1"/></svg>