<?xml version="1.0" ?><!DOCTYPE svg  PUBLIC '-//W3C//DTD SVG 1.1//EN'  'http://www.w3.org/Graphics/SVG/1.1/DTD/svg11.dtd'><svg height="512px" style="enable-background:new 0 0 512 512;" version="1.1" viewBox="0 0 512 512" width="512px" xml:space="preserve" xmlns="http://www.w3.org/2000/svg" xmlns:xlink="http://www.w3.org/1999/xlink"><g id="D_-_45_x2C__timmer_x2C__stopwatch_x2C__watch_x2C__time"><g><path d="M256,275.679c-11.932,0-21.638,9.707-21.638,21.639s9.707,21.639,21.638,21.639s21.639-9.707,21.639-21.639    S267.932,275.679,256,275.679z"/><path d="M231.409,112.461c0.327-0.043,0.654-0.089,0.98-0.13c7.829-0.991,15.739-1.496,23.61-1.496    c7.872,0,15.782,0.505,23.613,1.496c0.324,0.041,0.648,0.086,0.973,0.129c0.572,0.075,1.146,0.146,1.717,0.227V78.889h-52.605    v33.799C230.268,112.607,230.838,112.537,231.409,112.461z"/><path d="M256,173.919c-68.042,0-123.398,55.356-123.398,123.398S187.958,420.716,256,420.716s123.398-55.356,123.398-123.398    S324.042,173.919,256,173.919z M190.839,230.197c1.83-1.829,4.796-1.829,6.626,0l37.484,37.484c1.829,1.829,1.829,4.796,0,6.626    c-0.915,0.915-2.114,1.372-3.313,1.372s-2.398-0.457-3.313-1.372l-37.484-37.483C189.009,234.993,189.009,232.026,190.839,230.197    z M256,328.326c-17.098,0-31.009-13.91-31.009-31.009s13.911-31.01,31.009-31.01c17.098,0,31.01,13.911,31.01,31.01    S273.098,328.326,256,328.326z"/><path d="M364.746,145.835c0.898,0.646,1.791,1.3,2.678,1.963c0.326,0.244,0.653,0.486,0.979,0.732    c1.146,0.868,2.285,1.745,3.412,2.639c0.033,0.026,0.066,0.054,0.1,0.081c1.093,0.869,2.175,1.754,3.249,2.648    c0.32,0.267,0.639,0.536,0.958,0.805c0.847,0.714,1.686,1.435,2.521,2.164c0.28,0.246,0.563,0.489,0.843,0.736    c1.01,0.893,2.012,1.793,3.002,2.708l16.076-20.733l-22.218-17.226l-15.882,20.483c1.131,0.766,2.25,1.548,3.363,2.339    C364.135,145.393,364.439,145.615,364.746,145.835z"/><polygon points="286.988,69.518 323.62,69.518 323.62,37.571 188.38,37.571 188.38,69.518 225.012,69.518   "/><path d="M379.742,170.625L379.742,170.625c-8.737-8.534-18.361-16.175-28.605-22.71c-19.894-12.694-41.743-21.15-64.941-25.135    c-19.891-3.416-40.5-3.416-60.39,0c-85.129,14.621-146.917,88.025-146.917,174.537c0,97.659,79.452,177.111,177.111,177.111    s177.111-79.452,177.111-177.111C433.111,249.233,414.158,204.24,379.742,170.625z M256,430.087    c-73.209,0-132.77-59.561-132.77-132.77s59.561-132.77,132.77-132.77s132.77,59.561,132.77,132.77S329.209,430.087,256,430.087z"/></g></g><g id="Layer_1"/></svg>