<svg id="Layer_1" data-name="Layer 1" xmlns="http://www.w3.org/2000/svg" viewBox="0 0 510.24 510.24"><defs><style>.cls-1{fill:#d81b60;}.cls-2{fill:#fff;stroke:#1d1d1b;stroke-miterlimit:10;stroke-width:7px;}</style></defs><path class="cls-1" d="M135.26,257.46s-14.27-17-13.2-41.1,26.9-31.72,53-24.87,20.3,44.31,20.3,44.31l-14.72,24.69,39.08,23.11L213.66,328,89.84,329.77S88.57,296,92.63,291.71,133,264.11,133,264.11Z"/><path class="cls-1" d="M359.11,130.38s-14.26-17-13.19-41.11,26.89-31.72,53-24.87,20.3,44.32,20.3,44.32l-14.72,24.69,39.08,23.1-6.09,44.4-123.83,1.78s-1.26-33.75,2.8-38.06S356.83,137,356.83,137Z"/><path class="cls-1" d="M291.84,384.58s-14.26-17-13.19-41.1,26.89-31.72,53-24.87S352,362.93,352,362.93l-14.72,24.68,39.08,23.11-6.09,44.4L246.42,456.9s-1.26-33.75,2.8-38.06,40.34-27.61,40.34-27.61Z"/><path class="cls-2" d="M406,294.93a6.1,6.1,0,0,0-9.82-6l-16.4,13.33a5.09,5.09,0,0,1-6.77-.23,107.84,107.84,0,0,0-113.39-19.42,6.14,6.14,0,0,0-3.59,4c-.8,2.85-1.68,5.68-2.69,8.45a.38.38,0,0,1-.11.22l-.67,1.67c-.22.44-.33.89-.55,1.33a4,4,0,0,1-.44,1c-.34.67-.56,1.33-.89,2.11-.11.11-.11.22-.22.44a116.15,116.15,0,0,1-31.09,41.85c-.66.56-1.22,1-1.88,1.56l-.23.22a118.82,118.82,0,0,1-19.07,12.77A6.24,6.24,0,0,0,195,362.7a107,107,0,0,0-1.63,18.52C193.4,440.06,241.58,488,300.74,488s107.35-47.84,107.35-106.79a105.53,105.53,0,0,0-9.66-44.4,5.28,5.28,0,0,1-.33-3.22ZM301.44,311.4c18.41,0,33.42,14.14,33.42,31.57,0,15.69-11.14,43.78-33.42,43.78S268,358.76,268,343C268.12,325.54,283,311.4,301.44,311.4Zm62.28,124.75c0,1.66,0,3.4-.05,5.27a9.89,9.89,0,0,1-9.88,9.74H248a9.89,9.89,0,0,1-9.88-9.75c0-2-.05-3.81-.05-5.55-.39-24.89.68-26.54,21.89-37.2,4.07-2,9.2-4.55,15.21-7.84a4.63,4.63,0,0,1,4.74.29l18,12.29a5.34,5.34,0,0,0,6,0l18-12.29a4.6,4.6,0,0,1,4.74-.29c5.91,3.2,10.95,5.71,14.92,7.65,10.75,5.42,16.17,8.14,19.37,13.46C364,417.36,363.92,423.65,363.72,436.15Z"/><path class="cls-2" d="M210.94,337.38c.44-.45,1-.78,1.44-1.23s.67-.55,1-.88.55-.56.89-.78a109.5,109.5,0,0,0,27.31-38.08c.11-.33.33-.77.44-1.11s.33-.88.55-1.33c.23-.67.45-1.22.67-1.89.11-.22.11-.33.22-.55a18.21,18.21,0,0,0,.78-2.33h0A105.77,105.77,0,0,0,249.9,255c0-58.84-48.18-106.79-107.34-106.79S35.32,196.28,35.32,255.12,83.5,361.91,142.67,361.91a106.76,106.76,0,0,0,68-24.31ZM143.15,185.84c18.23,0,33.1,14,33.1,31.28,0,15.55-11,43.37-33.1,43.37s-33.1-27.73-33.1-43.37C110.05,200,124.92,185.84,143.15,185.84ZM85,324.39a4.5,4.5,0,0,1-4.51-4.51c0-4-.09-7.48-.09-10.65-.39-24.66.67-26.29,21.68-36.84,4-2,9.12-4.51,15.07-7.77a4.62,4.62,0,0,1,4.7.28l20.82,14.21,20.82-14.21a4.6,4.6,0,0,1,4.7-.28C174,267.78,179,270.28,183,272.2c10.65,5.37,16,8.06,19.19,13.33s3,11.52,2.78,23.89c0,3.07-.1,6.43-.1,10.37a4.5,4.5,0,0,1-4.51,4.51L85,324.39Z"/><path class="cls-2" d="M367.57,22.22a107.44,107.44,0,0,0-101,70.83,4.79,4.79,0,0,1-3.11,3.1l-22.37,9.67a9.69,9.69,0,0,0-.44,17.58l17,8.39a5.08,5.08,0,0,1,2.89,4.33c3.66,55.83,50.73,99.68,107,99.68,59.17,0,107.34-48,107.34-106.79S426.85,22.22,367.57,22.22Zm.58,38c18.11,0,32.87,13.91,32.87,31.06,0,15.44-10.95,43.07-32.87,43.07s-32.87-27.54-32.87-43.07C335.28,74.13,350.05,60.22,368.15,60.22ZM429.42,183c0,.68,0,1.38,0,2.1a12.81,12.81,0,0,1-12.8,12.67h-98a12.8,12.8,0,0,1-12.79-12.68c0-.81,0-1.6,0-2.38-.38-24.48.67-26.1,21.54-36.59,4-2,9.05-4.47,15-7.71a4.57,4.57,0,0,1,4.67.28l16,10.91a8.31,8.31,0,0,0,9.37,0l16-10.91a4.55,4.55,0,0,1,4.67-.28c5.81,3.14,10.77,5.62,14.67,7.52,10.58,5.34,15.92,8,19.06,13.25C429.71,164.46,429.61,170.65,429.42,183Z"/></svg>