<?xml version="1.0" encoding="utf-8"?>
<!-- Generator: Adobe Illustrator 24.0.2, SVG Export Plug-In . SVG Version: 6.00 Build 0)  -->
<svg version="1.1" id="Layer_1" xmlns="http://www.w3.org/2000/svg" xmlns:xlink="http://www.w3.org/1999/xlink" x="0px" y="0px"
	 viewBox="0 0 512 512" enable-background="new 0 0 512 512" xml:space="preserve">
<g id="C_-_188_x2C__focus_group__x2C__Business_x2C__focus_x2C__group_x2C__modern">
	<g>
		<path d="M395,276.8l-26.7,21.7c-1.8,1.5-4.4,1.4-6.1-0.2c-17.8-16-40.8-24.9-64.9-24.9c-13.9,0-27.3,2.9-39.8,8.5
			c-0.9,3.4-1.9,6.8-3.1,10.1c0,0.1-0.1,0.2-0.1,0.2c-0.2,0.5-0.4,1-0.6,1.5c-0.2,0.4-0.3,0.8-0.5,1.2c-0.1,0.3-0.2,0.6-0.4,0.9
			c-0.3,0.6-0.5,1.2-0.8,1.9c-0.1,0.1-0.1,0.2-0.2,0.4c-6.4,14.6-16,27.5-28,37.7c-0.6,0.5-1.1,0.9-1.7,1.4
			c-0.1,0.1-0.1,0.1-0.2,0.2c-6,4.9-12.5,9.2-19.5,12.7c-1.3,6.4-2,12.9-2,19.5c0,53,43.4,96.2,96.7,96.2
			c53.3,0,96.7-43.1,96.7-96.2c0-13.9-2.9-27.4-8.7-40c-0.4-0.9-0.5-1.9-0.3-2.9L395,276.8z M297.8,297.5c19,0,34.5,14.6,34.5,32.6
			c0,16.2-11.5,45.2-34.5,45.2c-22.9,0-34.5-28.9-34.5-45.2C263.4,312.1,278.8,297.5,297.8,297.5z M362.1,426.3
			c0,3.2-0.1,6.7-0.1,10.8c0,2.6-2.1,4.7-4.7,4.7H237.2c-2.6,0-4.7-2.1-4.7-4.7c0-4.2-0.1-7.8-0.1-11.1
			c-0.4-25.7,0.7-27.4,22.6-38.4c4.2-2.1,9.5-4.7,15.7-8.1c1.5-0.8,3.4-0.7,4.9,0.3l21.7,14.8l21.7-14.8c1.4-1,3.3-1.1,4.9-0.3
			c6.1,3.3,11.3,5.9,15.4,7.9c11.1,5.6,16.7,8.4,20,13.9C362.4,406.9,362.3,413.4,362.1,426.3z"/>
		<path d="M155.2,252.2c15.6,0,25.1-23.2,25.1-35.8c0-12.8-11.3-23.2-25.1-23.2c-13.8,0-25.1,10.4-25.1,23.2
			C130.1,229,139.6,252.2,155.2,252.2z"/>
		<path d="M335,395.9c-3.6-1.8-8-4-13.1-6.7l-22,15c-1.6,1.1-3.7,1.1-5.3,0l-22-15c-5.3,2.8-9.7,5-13.4,6.9c-9,4.5-14,7-15.8,10.1
			c-1.8,3.1-1.8,9.1-1.6,19.8c0,2,0.1,4.2,0.1,6.5h110.8c0-2.2,0-4.3,0.1-6.2c0.1-10.9,0.2-16.9-1.7-20.1
			C349.3,403,344.5,400.6,335,395.9z"/>
		<path d="M192.4,282.2c-3.6-1.8-8-4-13.1-6.7l-22,15c-1.6,1.1-3.7,1.1-5.3,0l-22-15c-5.3,2.8-9.7,5-13.4,6.9c-9,4.5-14,7-15.8,10.1
			c-1.8,3.1-1.8,9.1-1.6,19.8c0,2,0.1,4.2,0.1,6.5h110.8c0-2.2,0-4.3,0.1-6.2c0.1-10.9,0.2-16.9-1.7-20.1
			C206.6,289.4,201.9,287,192.4,282.2z"/>
		<path d="M216.2,330.1c0.4-0.4,0.9-0.7,1.3-1.1c0.3-0.3,0.6-0.5,0.9-0.8c0.3-0.2,0.5-0.5,0.8-0.7c10.6-9.5,19-21.3,24.6-34.3
			c0.1-0.3,0.3-0.7,0.4-1c0.2-0.4,0.3-0.8,0.5-1.2c0.2-0.6,0.4-1.1,0.6-1.7c0.1-0.2,0.1-0.3,0.2-0.5c0.3-0.7,0.5-1.4,0.7-2.1
			c0,0,0,0,0,0c3.3-9.7,5.1-20,5.1-30.8c0-53-43.4-96.2-96.7-96.2S58,203,58,256c0,53,43.4,96.2,96.7,96.2
			c23.3,0,44.6-8.2,61.3-21.9C216.1,330.2,216.1,330.2,216.2,330.1z M155.2,183.8c19,0,34.5,14.6,34.5,32.6
			c0,16.2-11.5,45.2-34.5,45.2c-22.9,0-34.5-28.9-34.5-45.2C120.7,198.5,136.2,183.8,155.2,183.8z M94.6,328.2
			c-2.6,0-4.7-2.1-4.7-4.7c0-4.2-0.1-7.8-0.1-11.1c-0.4-25.7,0.7-27.4,22.6-38.4c4.2-2.1,9.5-4.7,15.7-8.1c1.5-0.8,3.4-0.7,4.9,0.3
			l21.7,14.8l21.7-14.8c1.4-1,3.3-1.1,4.9-0.3c6.1,3.3,11.3,5.9,15.4,7.9c11.1,5.6,16.7,8.4,20,13.9c3.2,5.5,3.1,12,2.9,24.9
			c0,3.2-0.1,6.7-0.1,10.8c0,2.6-2.1,4.7-4.7,4.7L94.6,328.2L94.6,328.2z"/>
		<path d="M297.8,365.9c15.6,0,25.1-23.2,25.1-35.8c0-12.8-11.3-23.2-25.1-23.2c-13.8,0-25.1,10.4-25.1,23.2
			C272.7,342.7,282.2,365.9,297.8,365.9z"/>
		<path d="M357.3,46.2c-40.7,0-77.3,25.6-91,63.8c-0.5,1.4-1.5,2.4-2.8,2.8L226,129l32.3,15.9c1.5,0.7,2.5,2.2,2.6,3.9
			c3.3,50.3,45.7,89.8,96.4,89.8c53.3,0,96.7-43.2,96.7-96.2C454,89.3,410.7,46.2,357.3,46.2z M357.9,70.2c19,0,34.5,14.6,34.5,32.6
			c0,16.2-11.5,45.2-34.5,45.2c-22.9,0-34.5-28.9-34.5-45.2C323.4,84.8,338.9,70.2,357.9,70.2z M422.2,199.1c0,3.2-0.1,6.7-0.1,10.8
			c0,2.6-2.1,4.7-4.7,4.7H297.3c-2.6,0-4.7-2.1-4.7-4.7c0-4.2-0.1-7.8-0.1-11.1c-0.4-25.7,0.7-27.4,22.6-38.4
			c4.2-2.1,9.5-4.7,15.7-8.1c1.5-0.8,3.4-0.7,4.9,0.3l21.7,14.8l21.7-14.8c1.4-1,3.3-1.1,4.9-0.3c6.1,3.3,11.3,5.9,15.4,7.9
			c11.1,5.6,16.7,8.4,20,13.9C422.5,179.6,422.4,186.1,422.2,199.1z"/>
		<path d="M395.1,168.6c-3.6-1.8-8-4-13.1-6.7l-22,15c-1.6,1.1-3.7,1.1-5.3,0l-22-15c-5.3,2.8-9.8,5-13.4,6.9
			c-9.3,4.7-14,7-15.8,10.1c-1.8,3.1-1.8,9.1-1.6,19.8c0,2,0.1,4.2,0.1,6.5h110.8c0-2.2,0-4.3,0.1-6.2c0.1-10.9,0.2-16.9-1.7-20.1
			C409.4,175.8,404.6,173.4,395.1,168.6z"/>
		<path d="M357.9,138.6c15.6,0,25.1-23.2,25.1-35.8c0-12.8-11.3-23.2-25.1-23.2c-13.8,0-25.1,10.4-25.1,23.2
			C332.8,115.4,342.3,138.6,357.9,138.6z"/>
	</g>
</g>
<g id="Layer_1_1_">
</g>
</svg>
