<?xml version="1.0" encoding="utf-8"?>
<!-- Generator: Adobe Illustrator 24.1.3, SVG Export Plug-In . SVG Version: 6.00 Build 0)  -->
<svg version="1.1" id="Layer_1" xmlns="http://www.w3.org/2000/svg" xmlns:xlink="http://www.w3.org/1999/xlink" x="0px" y="0px"
	 viewBox="0 0 510.2 510.2" style="enable-background:new 0 0 510.2 510.2;" xml:space="preserve">
<style type="text/css">
	.st0{fill:#D81B60;}
	.st1{fill:#FFFFFF;stroke:#1D1D1B;stroke-width:4;stroke-miterlimit:10;}
	.st2{fill-rule:evenodd;clip-rule:evenodd;fill:#D81B60;}
	.st3{fill-rule:evenodd;clip-rule:evenodd;}
	.st4{fill:#FFFFFF;}
</style>
<path class="st0" d="M215.3,191.1h8.6c3.2,0,5.8,2.6,5.8,5.8v65.2c0,3.2-2.6,5.8-5.8,5.8h-8.6c-3.2,0-5.8-2.6-5.8-5.8v-65.2
	C209.5,193.7,212.1,191.1,215.3,191.1z"/>
<path class="st0" d="M245.1,209.9h8.6c3.2,0,5.8,2.6,5.8,5.8v65.2c0,3.2-2.6,5.8-5.8,5.8h-8.6c-3.2,0-5.8-2.6-5.8-5.8v-65.2
	C239.3,212.5,241.9,209.9,245.1,209.9z"/>
<path class="st0" d="M274.6,236.7h16.2c3.2,0,5.8,2.6,5.8,5.8v65.2c0,3.2-2.6,5.8-5.8,5.8h-16.2c-3.2,0-5.8-2.6-5.8-5.8v-65.2
	C268.8,239.3,271.4,236.7,274.6,236.7z"/>
<path class="st0" d="M138.1,265.2h8.3c3.2,0,5.8,2.6,5.8,5.8v65.2c0,3.2-2.6,5.8-5.8,5.8h-8.3c-3.2,0-5.8-2.6-5.8-5.8V271
	C132.3,267.8,134.9,265.2,138.1,265.2z"/>
<path class="st0" d="M165.7,267.9h8.3c3.2,0,5.8,2.6,5.8,5.8v65.2c0,3.2-2.6,5.8-5.8,5.8h-8.3c-3.2,0-5.8-2.6-5.8-5.8v-65.2
	C160,270.5,162.5,267.9,165.7,267.9z"/>
<path class="st0" d="M196.9,267.9h8.3c3.2,0,5.8,2.6,5.8,5.8v65.2c0,3.2-2.6,5.8-5.8,5.8h-8.3c-3.2,0-5.8-2.6-5.8-5.8v-65.2
	C191.2,270.5,193.7,267.9,196.9,267.9z"/>
<path class="st1" d="M440.7,139H82.4c-5.5,0-10,4.5-10,10v225c0,5.5,4.5,10,10,10h366.4c5.5,0,10-4.5,10-10V139H440.7z M314.9,353.1
	c0,1.5-1.2,2.7-2.7,2.7H101.8c-1.5,0-2.7-1.2-2.7-2.7c0,0,0,0,0,0V170c0-1.5,1.2-2.7,2.7-2.7c0,0,0,0,0,0h210.4
	c1.5,0,2.7,1.2,2.7,2.7L314.9,353.1z M355.3,243.7c0,1.2-1,2.1-2.1,2.1H339c-1.2,0-2.1-1-2.1-2.1v-14.1c0-1.2,1-2.1,2.1-2.1
	c0,0,0,0,0,0h14.1c1.2,0,2.1,0.9,2.1,2.1c0,0,0,0,0,0V243.7z M355.3,211.5c0,1.2-1,2.1-2.1,2.1H339c-1.2,0-2.1-1-2.1-2.1v-14.2
	c0-1.2,1-2.1,2.1-2.1c0,0,0,0,0,0h14.1c1.2,0,2.1,0.9,2.1,2.1c0,0,0,0,0,0V211.5z M375.7,243.7c0,1.2-1,2.1-2.1,2.1h-14.2
	c-1.2,0-2.1-1-2.1-2.1c0,0,0,0,0,0v-14.1c0-1.2,1-2.1,2.1-2.1l0,0h14.2c1.2,0,2.1,0.9,2.1,2.1c0,0,0,0,0,0V243.7z M375.7,211.5
	c0,1.2-1,2.1-2.1,2.1h-14.2c-1.2,0-2.1-1-2.1-2.1v-14.2c0-1.2,1-2.1,2.1-2.1l0,0h14.2c1.2,0,2.1,0.9,2.1,2.1c0,0,0,0,0,0V211.5z
	 M396.1,243.7c0,1.2-1,2.1-2.1,2.1h-14.1c-1.2,0-2.1-1-2.1-2.1c0,0,0,0,0,0v-14.1c0-1.2,1-2.1,2.1-2.1l0,0h14.1
	c1.2,0,2.1,0.9,2.1,2.1c0,0,0,0,0,0V243.7z M396.1,211.5c0,1.2-1,2.1-2.1,2.1h-14.1c-1.2,0-2.1-1-2.1-2.1v-14.2c0-1.2,1-2.1,2.1-2.1
	l0,0h14.1c1.2,0,2.1,0.9,2.1,2.1c0,0,0,0,0,0V211.5z M416.4,243.7c0,1.2-1,2.1-2.1,2.1h-14.2c-1.2,0-2.1-1-2.1-2.1c0,0,0,0,0,0
	v-14.1c0-1.2,1-2.1,2.1-2.1l0,0h14.2c1.2,0,2.1,0.9,2.1,2.1c0,0,0,0,0,0V243.7z M416.4,211.5c0,1.2-1,2.1-2.1,2.1h-14.2
	c-1.2,0-2.1-1-2.1-2.1v-14.2c0-1.2,1-2.1,2.1-2.1l0,0h14.2c1.2,0,2.1,0.9,2.1,2.1c0,0,0,0,0,0V211.5z M436.8,243.7
	c0,1.2-0.9,2.1-2.1,2.1c0,0,0,0,0,0h-14.1c-1.2,0-2.1-1-2.1-2.1c0,0,0,0,0,0v-14.1c0-1.2,1-2.1,2.1-2.1l0,0h14.1
	c1.2,0,2.1,1,2.1,2.1v0V243.7z M436.8,211.5c0,1.2-1,2.1-2.1,2.1h-14.1c-1.2,0-2.1-1-2.1-2.1v-14.2c0-1.2,1-2.1,2.1-2.1l0,0h14.1
	c1.2,0,2.1,1,2.1,2.1v0V211.5z"/>
<path class="st1" d="M111.8,179.1V344h190.2V179.1H111.8z M150.1,287.4c0,1.4-1.1,2.5-2.5,2.5h-20.2c-1.4,0-2.5-1.1-2.5-2.5v-21.2
	c0-1.4,1.1-2.5,2.5-2.5h20.2c1.4,0,2.5,1.1,2.5,2.5V287.4z M179.8,315.4c0,1.4-1.1,2.5-2.5,2.5l0,0h-20.1c-1.4,0-2.5-1.1-2.6-2.5
	v-49.2c0-1.4,1.1-2.5,2.6-2.5h20.1c1.4,0,2.5,1.1,2.5,2.5l0,0V315.4z M209.5,335.6c0,1.4-1.1,2.5-2.6,2.5h-20.1
	c-1.4,0-2.5-1.1-2.5-2.5l0,0v-69.4c0-1.4,1.1-2.5,2.5-2.5c0,0,0,0,0,0h20.1c1.4,0,2.5,1.1,2.6,2.5L209.5,335.6z M229.6,256.9
	c0,1.4-1.1,2.5-2.5,2.5c0,0,0,0,0,0h-20.1c-1.4,0-2.5-1.1-2.5-2.5v-69.4c0-1.4,1.1-2.5,2.5-2.5h20.1c1.4,0,2.5,1.1,2.5,2.5
	L229.6,256.9z M259.3,256.9c0,1.4-1.1,2.5-2.5,2.5c0,0,0,0,0,0h-20.1c-1.4,0-2.5-1.1-2.6-2.5v-49.2c0-1.4,1.1-2.5,2.5-2.5
	c0,0,0,0,0,0h20.1c1.4,0,2.5,1.1,2.5,2.5c0,0,0,0,0,0L259.3,256.9z M288.9,256.9c0,1.4-1.1,2.5-2.5,2.5c0,0,0,0,0,0h-20.1
	c-1.4,0-2.5-1.1-2.5-2.5c0,0,0,0,0,0v-21.3c0-1.4,1.1-2.5,2.5-2.5c0,0,0,0,0,0h20.1c1.4,0,2.5,1.1,2.5,2.5l0,0L288.9,256.9z"/>
<path class="st2" d="M69.6,133.5h364.6c2,0,3.7-1.7,3.7-3.7l0,0c0-2-1.6-3.7-3.7-3.7H55.2c-2,0-3.7,1.6-3.7,3.7v237.7
	c0,2,1.7,3.7,3.7,3.7h8c2,0,3.7-1.6,3.7-3.7V136.3C66.9,134.8,68.1,133.5,69.6,133.5z"/>
<path class="st3" d="M332.1,268c-0.1-1.5,1.1-2.8,2.6-2.9c1.5-0.1,2.8,1.1,2.9,2.6c0,0.1,0,0.2,0,0.3v8.9h7.6
	c1.5-0.1,2.8,1.1,2.9,2.6s-1.1,2.8-2.6,2.9c-0.1,0-0.2,0-0.3,0h-7.6v69.5c0.1,1.5-1.1,2.8-2.6,2.9c-1.5,0.1-2.8-1.1-2.9-2.6
	c0-0.1,0-0.2,0-0.3v-69.5h-7.6c-1.5-0.1-2.7-1.4-2.6-2.9c0.1-1.4,1.2-2.5,2.6-2.6h7.6V268z"/>
<path class="st3" d="M358.1,268c-0.1-1.5,1.1-2.8,2.6-2.9s2.8,1.1,2.9,2.6c0,0.1,0,0.2,0,0.3v27.8h7.6c1.5,0,2.7,1.2,2.7,2.7
	c0,1.5-1.2,2.7-2.7,2.7h-7.6v50.6c0.1,1.5-1.1,2.8-2.6,2.9s-2.8-1.1-2.9-2.6c0-0.1,0-0.2,0-0.3v-50.6h-7.6c-1.5,0-2.7-1.2-2.7-2.7
	c0-1.5,1.2-2.7,2.7-2.7h7.6V268z"/>
<path class="st3" d="M384.1,268c0-1.5,1.2-2.7,2.7-2.7c1.5,0,2.7,1.2,2.7,2.7v57.9h7.6c1.5-0.1,2.8,1.1,2.9,2.6s-1.1,2.8-2.6,2.9
	c-0.1,0-0.2,0-0.3,0h-7.6v20.5c0,1.5-1.2,2.7-2.7,2.7c-1.5,0-2.7-1.2-2.7-2.7v-20.5h-7.6c-1.5-0.1-2.7-1.4-2.6-2.9
	c0.1-1.4,1.2-2.5,2.6-2.6h7.6V268z"/>
<path class="st3" d="M408.4,268c-0.1-1.5,1.1-2.8,2.6-2.9s2.8,1.1,2.9,2.6c0,0.1,0,0.2,0,0.3v27.8h7.6c1.5,0,2.7,1.2,2.7,2.7
	c0,1.5-1.2,2.7-2.7,2.7h-7.6v50.6c0.1,1.5-1.1,2.8-2.6,2.9s-2.8-1.1-2.9-2.6c0-0.1,0-0.2,0-0.3v-50.6h-7.6c-1.5,0-2.7-1.2-2.7-2.7
	c0-1.5,1.2-2.7,2.7-2.7h7.6V268z"/>
<path class="st3" d="M436.1,268c0-1.5,1.2-2.7,2.7-2.7c1.5,0,2.7,1.2,2.7,2.7v57.9h7.6c1.5-0.1,2.8,1.1,2.9,2.6s-1.1,2.8-2.6,2.9
	c-0.1,0-0.2,0-0.3,0h-7.6v20.5c0,1.5-1.2,2.7-2.7,2.7c-1.5,0-2.7-1.2-2.7-2.7v-20.5h-7.6c-1.5,0.1-2.8-1.1-2.9-2.6s1.1-2.8,2.6-2.9
	c0.1,0,0.2,0,0.3,0h7.6V268z"/>
<path class="st0" d="M114.4,110.2H70.8c-10.7,0-19.3-8.6-19.3-19.3V47.3c0-10.7,8.6-19.3,19.3-19.3h43.6c10.7,0,19.3,8.6,19.3,19.3
	v43.6C133.7,101.6,125,110.2,114.4,110.2z"/>
<path class="st0" d="M318.3,480.7h-43.6c-10.7,0-19.3-8.6-19.3-19.3v-43.6c0-10.7,8.6-19.3,19.3-19.3h43.6
	c10.7,0,19.3,8.6,19.3,19.3v43.6C337.7,472.1,329,480.7,318.3,480.7z"/>
<path class="st0" d="M420.8,480.7h-43.6c-10.7,0-19.3-8.6-19.3-19.3v-43.6c0-10.7,8.6-19.3,19.3-19.3h43.6
	c10.7,0,19.3,8.6,19.3,19.3v43.6C440.1,472.1,431.4,480.7,420.8,480.7z"/>
<circle class="st0" cx="162" cy="69.1" r="6.4"/>
<circle class="st0" cx="184.3" cy="69.1" r="6.4"/>
<circle class="st0" cx="206.6" cy="69.1" r="6.4"/>
<path class="st4" d="M78.8,49.1H72v-5.2h26c8.9,0,14.1,4.5,14.1,13.3c0,5.7-2.3,9.5-6.3,11.6c4.8,1.8,7.4,6,7.4,12.2
	c0,8.8-5.2,13.3-14.1,13.3H72v-5.2h6.8V49.1z M84.8,66.4H97c6.1,0,9-3,9-8.7c0-5.6-3-8.6-8.9-8.6H84.8V66.4z M84.8,89.1H98
	c6,0,9-3,9-8.7c0-5.7-3-8.8-8.9-8.8H84.8V89.1z"/>
<path class="st4" d="M273.4,414.4h25.8c9.8,0,16.1,4.8,16.1,14.8c0,8.6-4.6,13.4-12,14.6l9.2,15.8h7.2v5.2h-11.1l-12-20.7h-10.4
	v15.5h7.6v5.2h-20.4v-5.2h6.8v-40.1h-6.8V414.4z M286.2,439h12.8c6.2,0,10.2-3.1,10.2-9.7c0-6.6-4-9.7-10.2-9.7h-12.8V439z"/>
<path class="st4" d="M384.6,419.6h-6.8v-5.2h39.4v14.4h-6v-9.2h-20.6V437h18.7v5.2h-18.7v17.5h20.6v-9.2h6v14.4h-39.4v-5.2h6.8
	V419.6z"/>
</svg>
