<svg id="Layer_1" data-name="Layer 1" xmlns="http://www.w3.org/2000/svg" viewBox="0 0 510.24 510.24"><defs><style>.cls-1{fill:#d81b60;}.cls-2{fill:#fff;stroke:#000;stroke-miterlimit:10;stroke-width:5px;}</style></defs><path class="cls-1" d="M245.46,330.18v97.05a8.47,8.47,0,0,0,8.47,8.47h2.37a8.47,8.47,0,0,0,8.47-8.47v-97a8.51,8.51,0,0,0-8.6-8.47h-.09c-.67,0-1.35,0-2,0A8.43,8.43,0,0,0,245.46,330.18Z"/><path class="cls-2" d="M371,243.51A115,115,0,0,0,252.66,128.64c-59.73,1.75-108.6,49.7-111.37,109.38a114.52,114.52,0,0,0,62.84,108,4.87,4.87,0,0,1,2.7,4.33v71.83a13.49,13.49,0,0,0,13.48,13.49H231a4.83,4.83,0,0,0,4.83-4.83V332.48a19.83,19.83,0,0,0-11.52-17.89,78.43,78.43,0,0,1-44.49-71.08c0-43.13,34.22-78.22,76.29-78.22s76.3,35.09,76.3,78.22a78.45,78.45,0,0,1-44.37,71,23.63,23.63,0,0,0-13.58,21.32v95a4.83,4.83,0,0,0,4.83,4.83h11.28a12.86,12.86,0,0,0,12.86-12.86v-71.5a4.8,4.8,0,0,1,2.69-4.32A115.68,115.68,0,0,0,371,243.51Z"/><rect class="cls-2" x="221.11" y="445.36" width="68.02" height="28.97" rx="13.74"/><path class="cls-1" d="M322.72,243.51c0-37.81-29.89-68.56-66.64-68.56s-66.63,30.75-66.63,68.56a68.79,68.79,0,0,0,38.7,62.24,5.38,5.38,0,0,0,7.65-4.9V238a5,5,0,0,1,4.4-5.06,4.83,4.83,0,0,1,5.26,4.81v65.55A8.73,8.73,0,0,0,253.8,312c.76,0,1.52,0,2.28,0h0a8.68,8.68,0,0,0,8.65-8.66V238a5,5,0,0,1,4.4-5.06,4.83,4.83,0,0,1,5.26,4.81v62.71a6.24,6.24,0,0,0,8.87,5.65A68.76,68.76,0,0,0,322.72,243.51Z"/><path class="cls-1" d="M53,242.37a4.29,4.29,0,0,0,4.3-4.3c0-106.73,90.69-193.56,202.17-193.56C368,44.51,453,129.53,453,238.07a4.3,4.3,0,0,0,8.6,0c0-54.92-20.77-105.94-58.5-143.66s-88.74-58.5-143.66-58.5A215.76,215.76,0,0,0,178.65,51.5a213.34,213.34,0,0,0-67.11,42.82C71,132.56,48.65,183.62,48.65,238.07A4.3,4.3,0,0,0,53,242.37Z"/><path class="cls-1" d="M246.51,66v34.41a4.31,4.31,0,0,0,8.61,0V66a4.31,4.31,0,0,0-8.61,0Z"/><path class="cls-1" d="M365,96.82A4.31,4.31,0,0,0,359,98.09L340.32,127a4.3,4.3,0,1,0,7.21,4.68l18.73-28.87A4.3,4.3,0,0,0,365,96.82Z"/><path class="cls-1" d="M306.85,74.56l-8,33.47a4.3,4.3,0,0,0,8.37,2l8-33.47a4.3,4.3,0,0,0-8.37-2Z"/><path class="cls-1" d="M378.73,173.55a4.28,4.28,0,0,0,2.68-.93l26.93-21.42a4.3,4.3,0,0,0-5.35-6.73l-26.94,21.41a4.3,4.3,0,0,0,2.68,7.67Z"/><path class="cls-1" d="M166.31,133.6a4.3,4.3,0,0,0,3.61-6.64L151.19,98.09a4.3,4.3,0,0,0-7.22,4.68l18.73,28.87A4.3,4.3,0,0,0,166.31,133.6Z"/><path class="cls-1" d="M198.2,71.38A4.3,4.3,0,0,0,195,76.56L203,110a4.3,4.3,0,1,0,8.37-2l-8-33.47A4.3,4.3,0,0,0,198.2,71.38Z"/><path class="cls-1" d="M128.83,172.62a4.31,4.31,0,0,0,6-.69,4.31,4.31,0,0,0-.69-6.05l-26.93-21.41a4.3,4.3,0,1,0-5.36,6.73Z"/></svg>