<?xml version="1.0" ?><!DOCTYPE svg  PUBLIC '-//W3C//DTD SVG 1.1//EN'  'http://www.w3.org/Graphics/SVG/1.1/DTD/svg11.dtd'><svg height="512px" style="enable-background:new 0 0 512 512;" version="1.1" viewBox="0 0 512 512" width="512px" xml:space="preserve" xmlns="http://www.w3.org/2000/svg" xmlns:xlink="http://www.w3.org/1999/xlink"><g id="_x34_44_x2C__Data_x2C__global_x2C__internet_x2C__network_x2C__web"><g><path d="M176.776,150.525c3.542-11.162,7.752-21.489,12.533-30.713    c8.756-17.078,19.45-30.646,31.449-39.471c-31.684,6.484-60.023,22.226-82.049,44.25c-4.075,4.076-7.953,8.388-11.595,12.899    C143.657,142.872,160.233,147.217,176.776,150.525 M163.809,235.213c0.333-27.773,4.145-53.874,10.595-76.8    c-17.513-3.543-35.025-8.222-52.538-14.037c-18.547,25.634-29.778,56.948-30.613,90.837H163.809z M174.236,319.6    c-6.349-22.794-10.093-48.693-10.427-76.199H91.253c0.835,33.654,11.897,64.769,30.245,90.335    C139.078,327.854,156.657,323.141,174.236,319.6z M220.758,398.271c-11.999-8.823-22.692-22.392-31.449-39.47    c-4.847-9.391-9.125-19.919-12.732-31.314c-16.611,3.309-33.256,7.686-49.863,13.134c3.741,4.712,7.752,9.157,11.996,13.401    C160.734,376.046,189.074,391.787,220.758,398.271z M330.311,327.419c-3.576,11.43-7.89,21.958-12.736,31.382    c-8.787,17.078-19.481,30.646-31.449,39.47c31.685-6.483,60.023-22.225,82.049-44.249c4.243-4.244,8.255-8.723,12-13.401    C363.563,335.139,346.917,330.728,330.311,327.419z M343.074,243.4c-0.334,27.473-4.074,53.372-10.392,76.132    c17.579,3.509,35.158,8.255,52.737,14.203c18.313-25.566,29.374-56.681,30.21-90.335H343.074z M332.514,158.479    c6.42,22.927,10.227,48.995,10.561,76.733h72.556c-0.836-33.889-12.063-65.17-30.614-90.837    C367.539,150.258,350.026,154.971,332.514,158.479z M286.125,80.342c11.968,8.824,22.662,22.393,31.449,39.471    c4.779,9.257,8.991,19.584,12.567,30.779c16.544-3.275,33.088-7.652,49.628-13.101c-3.643-4.512-7.518-8.823-11.596-12.899    C346.148,102.567,317.81,86.826,286.125,80.342z M460.18,150.859c-3.04-3.041-7.286-4.912-11.965-4.912    c-4.646,0-8.889,1.871-11.932,4.912c-1.702,1.705-3.074,3.811-3.91,6.15l-0.031,0.1l-0.035,0.1l-0.031,0.033l-0.035,0.102    l-0.031,0.066l0,0l-0.035,0.1l-0.032,0.101l0,0l-0.035,0.101v0.1h-0.031v0.101l-0.035,0.101l0,0l-0.031,0.101l-0.035,0.1l0,0    l-0.035,0.101l-0.032,0.101l0,0v0.101l-0.034,0.1l0,0l-0.032,0.1l-0.035,0.102l0,0v0.1l-0.031,0.1l-0.035,0.102v0.1l0,0    l-0.031,0.1l-0.035,0.101l0,0v0.101l-0.032,0.1l0,0l-0.035,0.101v0.101v0.033l-0.031,0.067v0.101v0.033l-0.035,0.066v0.101v0.033    l-0.031,0.067v0.1v0.033l-0.035,0.1v0.135v0.066l-0.032,0.134v0.067v0.133l-0.034,0.067v0.1l-0.032,0.268v0.034v0.2v0.033    c-0.035,0.335-0.035,0.702-0.035,1.036c0,4.678,1.906,8.89,4.945,11.965c3.043,3.041,7.285,4.945,11.932,4.945    c4.679,0,8.925-1.904,11.965-4.945c3.042-3.075,4.948-7.287,4.948-11.965C465.128,158.146,463.222,153.934,460.18,150.859z     M78.753,132.746c-3.075-3.041-7.286-4.946-11.964-4.946c-4.678,0-8.889,1.905-11.964,4.946    c-3.039,3.041-4.945,7.285-4.945,11.964c0,4.646,1.906,8.89,4.945,11.965c3.075,3.041,7.286,4.913,11.964,4.913    c4.678,0,8.89-1.872,11.964-4.913l0.235-0.233l0.333-0.402l0.537-0.635l0.066-0.066l0.032-0.033l0.035-0.033l0.066-0.1    l0.032-0.034l0.035-0.033l0.066-0.101l0.032-0.033l0.035-0.033l0.032-0.067l0.035-0.033l0.035-0.067l0.067-0.1h0.032l0.035-0.067    l0.067-0.101l0,0l0.067-0.066l0.031-0.101h0.035l0.032-0.066l0.066-0.101l0,0l0.067-0.1l0.035-0.066h0.032l0.035-0.102    l0.067-0.066l0,0l0.067-0.1l0.035-0.101l0,0l0.067-0.067l0.032-0.1l0,0l0.066-0.101l0.035-0.066h0.032l0.035-0.101l0.066-0.066    v-0.034l0.032-0.1l0.102-0.168l0.067-0.066v-0.034l0.032-0.1l0.066-0.1l0.035-0.068l0.035-0.066l0.032-0.033l0.035-0.1    l0.032-0.033l0.035-0.066l0.032-0.068l0.035-0.066v-0.033l0.066-0.1v-0.033l0.032-0.067l0.035-0.101l0.031-0.033v-0.033    l0.067-0.101v-0.067l0.035-0.033l0.032-0.101l0.035-0.033v-0.066l0.067-0.067v-0.066l0.032-0.033l0.035-0.101v-0.067l0.031-0.033    l0.035-0.1l0.035-0.033v-0.033l0.067-0.201l0.031-0.1l0.035-0.067c0.6-1.771,0.934-3.643,0.934-5.615    C83.666,140.031,81.795,135.787,78.753,132.746z M139.478,394.427c-2.839-2.808-6.717-4.646-10.995-4.912h-0.098l0,0h-1.439    h-0.067l0,0h-0.231l-0.835,0.066l-0.137,0.034l0.066-0.034l-0.165,0.034l-0.835,0.1l-0.168,0.033h0.067l-0.099,0.033l-1.105,0.234    l-0.333,0.066l-0.2,0.066l-0.2,0.068h-0.102l-0.267,0.1h-0.031l-0.2,0.066l-0.035,0.033l-0.168,0.033l-0.066,0.034l-0.134,0.033    l-0.066,0.033c-2.306,0.87-4.376,2.206-6.047,3.877c-3.078,3.075-4.948,7.286-4.948,11.965s1.87,8.923,4.948,11.964    c3.039,3.042,7.286,4.947,11.929,4.947c4.678,0,8.925-1.905,11.964-4.947c3.043-3.041,4.948-7.285,4.948-11.964    S142.521,397.502,139.478,394.427z M324.594,317.961c6.25-22.19,9.928-47.557,10.262-74.561h-77.305v68.211    C279.91,311.812,302.234,313.918,324.594,317.961z M257.551,401.345c20.355-2.072,38.903-19.351,52.738-46.286    c4.513-8.79,8.523-18.582,11.932-29.177c-21.591-3.877-43.146-5.882-64.67-6.116V401.345z M184.697,325.949    c3.376,10.594,7.384,20.354,11.897,29.109c13.834,26.936,32.382,44.214,52.737,46.286v-81.546    C227.808,320.033,206.253,322.105,184.697,325.949z M172.032,243.4c0.333,27.037,4.008,52.438,10.293,74.66    c22.324-4.043,44.648-6.215,67.007-6.449V243.4H172.032z M182.49,159.95c-6.384,22.358-10.125,47.958-10.458,75.263h77.3v-68.846    C227.04,166.133,204.747,163.961,182.49,159.95z M249.332,77.268c-20.355,2.072-38.903,19.352-52.737,46.287    c-4.447,8.59-8.356,18.148-11.697,28.508c21.489,3.844,42.946,5.882,64.435,6.116V77.268z M257.551,166.367v68.846h77.305    c-0.334-27.271-4.078-52.838-10.428-75.162C302.136,164.061,279.844,166.166,257.551,166.367z M309.088,41.842    c6.082,1.204,6.784-6.984,2.239-7.92c-2.709-0.668-5.384-1.437-8.121-2.072c-5.682-1.136-6.854,6.985-1.905,7.955L309.088,41.842z     M353.603,60.291c1.337,0.802,3.243,0.635,4.38-0.234c2.506-1.871,2.239-5.381-0.368-6.918l-7.388-3.977    c-5.882-2.34-7.886,5.648-3.709,7.318C348.89,57.584,351.297,59.021,353.603,60.291z M392.604,88.631    c3.545,3.543,9.658-1.938,5.549-6.049l-6.25-5.549c-2.271-2.271-6.749-0.4-6.749,2.908c0,1.571,0.399,2.307,1.435,3.342    L392.604,88.631z M423.919,125.26c2.675,4.411,9.693,0.201,6.819-4.578c-1.537-2.34-3.177-4.612-4.78-6.885    c-3.341-4.412-9.826,0.635-6.65,4.846C420.911,120.814,422.448,123.021,423.919,125.26z M458.544,241.863    c0,5.48,8.188,5.381,8.188,0.066c0.031-2.707,0.066-5.648-0.066-8.354c0-5.247-8.188-5.146-8.188,0.2    C458.544,236.449,458.544,239.156,458.544,241.863z M452.325,289.654c-1.169,5.781,6.987,6.818,7.956,1.972l1.905-8.154    c1.067-5.382-6.987-6.919-8.054-1.671L452.325,289.654z M435.083,334.639c-2.341,3.943,3.674,8.723,7.016,4.21    c1.438-2.372,2.808-5.347,4.011-7.887c2.239-5.615-5.646-7.954-7.419-3.509L435.083,334.639z M407.779,374.375    c-3.31,3.309,1.87,9.725,6.215,5.381c1.839-2.105,3.643-4.245,5.38-6.418c3.475-4.578-3.341-9.189-6.384-5.146    C411.285,370.297,409.548,372.336,407.779,374.375z M372.018,406.658c-4.51,3.41,0.635,9.793,4.779,6.685    c2.239-1.503,4.576-3.309,6.749-4.979c4.247-3.209-0.835-9.625-5.044-6.484C376.429,403.484,374.189,405.188,372.018,406.658z     M329.742,429.752c-4.883,1.938-2.039,9.659,3.039,7.62c2.474-0.902,5.313-2.173,7.721-3.275c4.678-1.871,1.938-9.625-3.243-7.553    C334.82,427.613,332.213,428.85,329.742,429.752z M283.185,442.252c-5.815,1.169-3.573,9.09,1.203,8.121    c2.71-0.368,5.615-0.802,8.29-1.371c5.38-1.069,3.674-9.09-1.537-8.054C288.6,441.517,285.761,441.918,283.185,442.252z     M234.996,443.588c-6.286,0-5.25,8.188-0.702,8.188c2.67,0.2,5.815,0.267,8.353,0.567c5.917,0,5.313-8.188,0.403-8.188    C240.341,444.022,237.702,443.822,234.996,443.588z M187.838,433.695c-4.847-1.938-7.721,5.749-2.607,7.787l7.988,2.507    c1.972,0.803,3.944-0.602,4.812-2.038c1.105-2.774,0.035-4.813-2.471-5.815L187.838,433.695z M65.118,320.702    c-1.906-4.779-9.623-2.006-7.521,3.274c1.07,2.574,2.274,5.114,3.478,7.619c1.871,4.646,9.525,1.771,7.384-3.574    C67.326,325.614,66.154,323.174,65.118,320.702z M51.351,274.549c-1.105-5.548-9.09-3.676-8.089,1.403    c0.47,2.74,1.003,5.515,1.604,8.222c1.004,5.113,9.09,3.742,8.023-1.738C52.319,279.828,51.786,277.155,51.351,274.549z     M48.743,226.423c0-6.082-8.223-5.28-8.223-0.534c-0.165,2.807-0.267,5.547-0.333,8.355c0,5.681,8.188,5.38,8.188,0.199    L48.743,226.423z M57.331,179.033c1.772-4.378-5.545-8.154-7.819-2.474c-0.835,2.708-1.506,5.415-2.306,8.088    c-1.204,5.915,6.984,6.784,7.921,2.072C55.829,184.146,56.562,181.573,57.331,179.033z M92.022,112.761    c3.376-4.478-3.341-9.224-6.482-5.047c-1.706,2.206-3.411,4.411-5.015,6.685c-1.537,2.005-0.667,5.213,1.604,6.115    c1.804,0.903,3.945,0.134,5.046-1.337C88.748,117.006,90.383,114.866,92.022,112.761z M125.977,78.605    c4.211-3.143-0.6-9.793-5.078-6.451c-2.172,1.738-4.412,3.51-6.486,5.348c-4.31,4.346,2.074,9.525,5.38,6.184L125.977,78.605z     M166.985,53.238c4.612-1.838,1.969-9.592-3.443-7.419c-2.439,1.103-5.215,2.374-7.552,3.677c-5.18,3.108-0.302,9.759,3.776,7.285    L166.985,53.238z M212.802,38.232c4.345-0.868,4.313-7.185,0-8.054c-0.365-0.134-1.267-0.067-1.671,0    c-2.706,0.568-5.447,1.137-8.152,1.805c-4.948,1.003-3.478,9.091,1.937,7.987C207.523,39.336,210.163,38.768,212.802,38.232z     M253.441,26.002h-0.702c-5.38,0-5.38,8.188,0,8.188c2.941,0,5.85,0.066,8.756,0.167c5.783,0,5.348-8.222,0.302-8.222    L253.441,26.002z M74.878,485.999c-2.274,0-4.113-1.839-4.113-4.111s1.839-4.11,4.113-4.11h281.265c2.271,0,4.11,1.838,4.11,4.11    s-1.84,4.111-4.11,4.111H74.878z M239.572,468.887c-2.271,0-4.11-1.838-4.11-4.11s1.839-4.11,4.11-4.11h194.641    c2.238,0,4.109,1.838,4.109,4.11s-1.871,4.11-4.109,4.11H239.572z M454.133,468.887c-2.274,0-4.113-1.838-4.113-4.11    s1.839-4.11,4.113-4.11h24.327c2.274,0,4.113,1.838,4.113,4.11s-1.839,4.11-4.113,4.11H454.133z M33.536,469.389    c-2.274,0-4.109-1.838-4.109-4.077c0-2.272,1.835-4.111,4.109-4.111h122.485c2.274,0,4.109,1.839,4.109,4.111    c0,2.239-1.835,4.077-4.109,4.077H33.536z M310.289,123.555c-13.835-26.936-32.383-44.215-52.738-46.287v80.944    c21.492-0.233,42.946-2.239,64.47-6.083C318.645,141.77,314.734,132.178,310.289,123.555z" style="fill-rule:evenodd;clip-rule:evenodd;"/></g></g><g id="Layer_1"/></svg>