<?xml version="1.0" encoding="utf-8"?>
<!-- Generator: Adobe Illustrator 24.1.3, SVG Export Plug-In . SVG Version: 6.00 Build 0)  -->
<svg version="1.1" id="Layer_1" xmlns="http://www.w3.org/2000/svg" xmlns:xlink="http://www.w3.org/1999/xlink" x="0px" y="0px"
	 viewBox="0 0 510.2 440" style="enable-background:new 0 0 510.2 440;" xml:space="preserve">
<style type="text/css">
	.st0{fill:#EDED87;}
	.st1{fill:#00B7ED;}
	.st2{fill:#F8C078;}
	.st3{fill:#F0979B;}
	.st4{fill:#F8DE64;}
	.st5{fill:#4C4949;}
	.st6{fill:#B4B5B5;}
	.st7{fill:#D81B60;}
</style>
<g>
	<g>
		<path class="st0" d="M50.4,140.4C35.9,131.6,29.9,115,37,103.1c7.1-11.8,24.7-14.3,39.2-5.5c7.1,4.3,12.2,10.5,14.7,17.1
			c-1.1-10.5-8-21.2-19.2-28c-17.1-10.3-37.8-7.4-46.2,6.5s-1.3,33.5,15.8,43.8c4,2.4,8.3,4.1,12.5,5.1
			C52.7,141.7,51.6,141.1,50.4,140.4z"/>
		<path class="st1" d="M99.3,170.6c-12.8,11.1-30.5,11.7-39.6,1.3c-9-10.4-6-27.9,6.9-39c6.3-5.4,13.7-8.4,20.8-8.7
			c-10.3-2.2-22.6,1.1-32.5,9.6c-15.1,13.1-18.7,33.6-8.1,45.9c10.6,12.3,31.5,11.6,46.6-1.5c3.6-3.1,6.5-6.6,8.7-10.3
			C101.2,168.9,100.2,169.8,99.3,170.6z"/>
		<path class="st2" d="M143.1,133.6c6.6,15.6,1.7,32.7-11,38c-12.7,5.4-28.3-3-35-18.6c-3.2-7.7-3.7-15.6-1.8-22.4
			c-5.3,9.1-6,21.9-0.9,33.9c7.8,18.4,26.2,28.2,41.2,21.9c14.9-6.3,20.8-26.4,13-44.8c-1.8-4.3-4.3-8.2-7.1-11.5
			C142,131.2,142.6,132.4,143.1,133.6z"/>
		<path class="st3" d="M121.4,80.4c16.9-1.5,31.6,8.5,32.8,22.2s-11.6,26-28.5,27.5c-8.3,0.7-16-1.3-21.9-5.2
			c7.1,7.8,18.9,12.5,32,11.3c19.9-1.7,34.9-16.2,33.5-32.4s-18.7-27.9-38.6-26.2c-4.7,0.4-9.1,1.5-13.1,3.2
			C118.8,80.7,120.1,80.5,121.4,80.4z"/>
		<path class="st4" d="M64.1,84.6C68,68.1,82,57.2,95.4,60.3s21.2,19,17.4,35.6c-1.9,8.1-6.2,14.8-11.7,19.2
			c9.6-4.3,17.7-14.2,20.7-26.9c4.5-19.5-4.6-38.2-20.4-41.9C85.5,42.7,69,55.5,64.5,74.9c-1.1,4.6-1.4,9.1-1,13.5
			C63.6,87.1,63.8,85.9,64.1,84.6z"/>
	</g>
	<g>
		<g>
			<path class="st5" d="M267.8,120.1c-1.6,3-3.6,5.8-5.9,8.3c-2.3,2.5-4.9,4.6-7.8,6.4c-2.9,1.8-6,3.2-9.4,4.2s-6.9,1.5-10.6,1.5
				c-5.3,0-10.2-1-14.9-3c-4.6-2-8.7-4.7-12.1-8.2c-3.4-3.4-6.2-7.5-8.2-12.1s-3-9.6-3-14.9c0-5.2,1-10.1,3-14.8
				c2-4.6,4.7-8.7,8.2-12.2c3.4-3.5,7.5-6.2,12.1-8.2s9.6-3,14.9-3c3.6,0,7,0.5,10.3,1.4s6.4,2.3,9.2,4s5.4,3.8,7.7,6.2
				c2.3,2.4,4.2,5,5.9,7.9c-1.6,0.8-2.9,1.5-3.9,2.1c-1,0.5-1.9,1-2.8,1.5s-1.9,1-3.1,1.5c-1.1,0.6-2.6,1.3-4.3,2.1
				c-1.8-3.2-4.4-5.9-7.8-7.9c-3.4-2-7.1-3-11.2-3c-3.1,0-6,0.6-8.7,1.8c-2.7,1.2-5.1,2.8-7.1,4.8s-3.6,4.4-4.8,7.1
				s-1.7,5.6-1.7,8.6c0,3.1,0.6,6,1.7,8.7c1.2,2.7,2.8,5.1,4.8,7.1s4.4,3.6,7.1,4.8c2.7,1.2,5.6,1.7,8.7,1.7c4.2,0,8.1-1.1,11.5-3.2
				c3.5-2.1,6.2-5,8.1-8.5c1.8,0.9,3.2,1.7,4.3,2.2c1.1,0.6,2.1,1.1,3,1.6s1.9,1,2.8,1.5C264.8,118.7,266.1,119.4,267.8,120.1z"/>
			<path class="st5" d="M295.7,115.3c0,2.5,0.5,4.7,1.4,6.4c0.9,1.8,2.1,3.2,3.6,4.3c1.5,1.1,3.3,1.9,5.3,2.4s4.1,0.8,6.4,0.8
				c1.5,0,3.1-0.1,4.7-0.4c1.7-0.2,3.3-0.7,4.7-1.4c1.5-0.7,2.7-1.7,3.7-2.9c1-1.2,1.5-2.8,1.5-4.7c0-2-0.7-3.7-2-5s-3-2.3-5.1-3.2
				c-2.1-0.9-4.5-1.6-7.2-2.2s-5.4-1.3-8.1-2.1c-2.8-0.7-5.6-1.6-8.2-2.6c-2.7-1-5.1-2.3-7.2-4c-2.1-1.6-3.8-3.6-5.1-6
				c-1.3-2.4-2-5.3-2-8.9c0-3.9,0.8-7.2,2.5-10.1c1.7-2.8,3.8-5.2,6.5-7.1s5.7-3.3,9.1-4.2c3.4-0.9,6.7-1.4,10.1-1.4
				c3.9,0,7.7,0.4,11.3,1.3c3.6,0.9,6.8,2.3,9.6,4.3c2.8,2,5,4.5,6.7,7.5c1.7,3.1,2.5,6.8,2.5,11.1h-16c-0.1-2.2-0.6-4.1-1.4-5.6
				s-1.9-2.6-3.2-3.5c-1.3-0.8-2.9-1.4-4.6-1.8c-1.8-0.4-3.6-0.5-5.6-0.5c-1.3,0-2.7,0.1-4,0.4s-2.5,0.8-3.6,1.5s-2,1.6-2.7,2.7
				s-1.1,2.4-1.1,4c0,1.5,0.3,2.7,0.8,3.6c0.6,0.9,1.7,1.7,3.3,2.5c1.7,0.7,3.9,1.5,6.9,2.3c2.9,0.8,6.7,1.8,11.4,3
				c0.9,0.2,2.1,0.5,3.6,0.9s3,0.9,4.7,1.6s3.3,1.5,5,2.6s3.2,2.4,4.5,3.9c1.4,1.5,2.5,3.4,3.3,5.5s1.3,4.6,1.3,7.4
				c0,3.4-0.7,6.6-2,9.6s-3.3,5.5-6,7.6c-2.6,2.1-5.9,3.8-9.8,5.1c-3.9,1.2-8.4,1.8-13.5,1.8c-4.1,0-8.2-0.5-12.1-1.6
				s-7.3-2.7-10.3-4.8c-3-2.2-5.3-5-7.1-8.3c-1.8-3.4-2.7-7.4-2.6-12h16.1V115.3z"/>
			<path class="st5" d="M471.4,120.1c-1.6,3-3.6,5.8-5.9,8.3c-2.3,2.5-4.9,4.6-7.8,6.4c-2.9,1.8-6,3.2-9.4,4.2s-6.9,1.5-10.6,1.5
				c-5.3,0-10.2-1-14.9-3c-4.6-2-8.7-4.7-12.1-8.2c-3.4-3.4-6.2-7.5-8.2-12.1s-3-9.6-3-14.9c0-5.2,1-10.1,3-14.8
				c2-4.6,4.7-8.7,8.2-12.2c3.4-3.5,7.5-6.2,12.1-8.2s9.6-3,14.9-3c3.6,0,7,0.5,10.3,1.4s6.4,2.3,9.2,4c2.8,1.7,5.4,3.8,7.7,6.2
				c2.3,2.4,4.2,5,5.9,7.9c-1.6,0.8-2.9,1.5-3.9,2.1c-1,0.5-1.9,1-2.8,1.5s-1.9,1-3.1,1.5c-1.1,0.6-2.6,1.3-4.3,2.1
				c-1.8-3.2-4.4-5.9-7.8-7.9s-7.1-3-11.2-3c-3.1,0-6,0.6-8.7,1.8c-2.7,1.2-5.1,2.8-7.1,4.8s-3.6,4.4-4.8,7.1
				c-1.2,2.7-1.7,5.6-1.7,8.6c0,3.1,0.6,6,1.7,8.7c1.2,2.7,2.8,5.1,4.8,7.1s4.4,3.6,7.1,4.8c2.7,1.2,5.6,1.7,8.7,1.7
				c4.2,0,8.1-1.1,11.5-3.2c3.5-2.1,6.2-5,8.1-8.5c1.8,0.9,3.2,1.7,4.3,2.2c1.1,0.6,2.1,1.1,3,1.6s1.9,1,2.8,1.5
				C468.4,118.7,469.7,119.4,471.4,120.1z"/>
		</g>
		<rect x="355.2" y="101.9" class="st5" width="37.8" height="11.9"/>
	</g>
	<g>
		<path class="st6" d="M212.4,172.6c-0.4,0.7-0.8,1.3-1.4,1.9c-0.5,0.6-1.1,1.1-1.8,1.5s-1.4,0.7-2.2,1c-0.8,0.2-1.6,0.3-2.4,0.3
			c-1.2,0-2.3-0.2-3.4-0.7c-1.1-0.5-2-1.1-2.8-1.9s-1.4-1.7-1.9-2.8s-0.7-2.2-0.7-3.4s0.2-2.3,0.7-3.4c0.5-1.1,1.1-2,1.9-2.8
			c0.8-0.8,1.7-1.4,2.8-1.9s2.2-0.7,3.4-0.7c0.8,0,1.6,0.1,2.4,0.3c0.8,0.2,1.5,0.5,2.1,0.9c0.7,0.4,1.2,0.9,1.8,1.4
			c0.5,0.5,1,1.2,1.3,1.8c-0.4,0.2-0.7,0.4-0.9,0.5s-0.4,0.2-0.7,0.3c-0.2,0.1-0.4,0.2-0.7,0.4c-0.3,0.1-0.6,0.3-1,0.5
			c-0.4-0.7-1-1.3-1.8-1.8s-1.6-0.7-2.6-0.7c-0.7,0-1.4,0.1-2,0.4s-1.2,0.6-1.6,1.1c-0.5,0.5-0.8,1-1.1,1.6s-0.4,1.3-0.4,2
			s0.1,1.4,0.4,2c0.3,0.6,0.6,1.2,1.1,1.6c0.5,0.5,1,0.8,1.6,1.1s1.3,0.4,2,0.4c1,0,1.9-0.2,2.7-0.7s1.4-1.1,1.9-1.9
			c0.4,0.2,0.7,0.4,1,0.5c0.2,0.1,0.5,0.3,0.7,0.4c0.2,0.1,0.4,0.2,0.7,0.3C211.7,172.3,212,172.5,212.4,172.6z"/>
		<path class="st6" d="M247.1,174h9.8v3.2h-13.4v-17.3H256v3.2h-8.9v3.9h7.9v3.4h-7.9V174z"/>
		<path class="st6" d="M263.7,177.3l7.8-17.3h3.8l7.7,17.3h-3.6l-1.8-3.8H269l-1.8,3.8H263.7z M273.5,163.2l-2.9,6.7h5.7
			L273.5,163.2L273.5,163.2z"/>
		<path class="st6" d="M295.1,163.2h-5.5V160h14.7v3.2h-5.4v14.1h-3.8L295.1,163.2L295.1,163.2z"/>
		<path class="st6" d="M315.6,174h9.8v3.2H312v-17.3h12.6v3.2h-8.9v3.9h7.9v3.4h-7.9v3.6H315.6z"/>
		<path class="st6" d="M343.7,171.5c0,0.6,0.1,1.1,0.3,1.5c0.2,0.4,0.5,0.7,0.8,1s0.8,0.4,1.2,0.6c0.5,0.1,0.9,0.2,1.5,0.2
			c0.3,0,0.7,0,1.1-0.1s0.8-0.2,1.1-0.3c0.3-0.2,0.6-0.4,0.8-0.7c0.2-0.3,0.3-0.6,0.3-1.1s-0.2-0.8-0.4-1.1
			c-0.3-0.3-0.7-0.5-1.2-0.7s-1-0.4-1.6-0.5s-1.2-0.3-1.9-0.5c-0.6-0.2-1.3-0.4-1.9-0.6c-0.6-0.2-1.2-0.5-1.6-0.9
			c-0.5-0.4-0.9-0.8-1.2-1.4c-0.3-0.5-0.4-1.2-0.4-2c0-0.9,0.2-1.7,0.6-2.3c0.4-0.7,0.9-1.2,1.5-1.6c0.6-0.4,1.3-0.8,2.1-1
			c0.8-0.2,1.6-0.3,2.3-0.3c0.9,0,1.8,0.1,2.6,0.3c0.8,0.2,1.6,0.5,2.2,1s1.2,1,1.5,1.7c0.4,0.7,0.6,1.6,0.6,2.6h-3.7
			c0-0.5-0.1-0.9-0.3-1.3c-0.2-0.3-0.4-0.6-0.7-0.8c-0.3-0.2-0.7-0.3-1.1-0.4c-0.4-0.1-0.8-0.1-1.3-0.1c-0.3,0-0.6,0-0.9,0.1
			s-0.6,0.2-0.8,0.3c-0.3,0.2-0.5,0.4-0.6,0.6c-0.2,0.3-0.2,0.6-0.2,0.9c0,0.3,0.1,0.6,0.2,0.8s0.4,0.4,0.8,0.6
			c0.4,0.2,0.9,0.3,1.6,0.5s1.5,0.4,2.6,0.7c0.2,0.1,0.5,0.1,0.8,0.2c0.3,0.1,0.7,0.2,1.1,0.4s0.8,0.4,1.1,0.6
			c0.4,0.2,0.7,0.5,1,0.9s0.6,0.8,0.8,1.3c0.2,0.5,0.3,1.1,0.3,1.7c0,0.8-0.2,1.5-0.5,2.2s-0.8,1.3-1.4,1.8s-1.4,0.9-2.3,1.2
			s-1.9,0.4-3.1,0.4c-1,0-1.9-0.1-2.8-0.4c-0.9-0.2-1.7-0.6-2.4-1.1c-0.7-0.5-1.2-1.1-1.6-1.9c-0.4-0.8-0.6-1.7-0.6-2.8h3.7V171.5z"
			/>
		<path class="st6" d="M363.1,160h4.9l3.9,12l4-12h5v17.3h-3.2V165l0,0l-4.2,12.3h-2.9l-4.2-12.1l0,0v12.1h-3.1V160H363.1z"/>
		<path class="st6" d="M390.4,160h3.8v17.3h-3.8V160z"/>
		<path class="st6" d="M403,159.9h3.7v14h8.9v3.2H403V159.9z"/>
		<path class="st6" d="M426.8,174h9.8v3.2h-13.4v-17.3h12.6v3.2h-8.9v3.9h7.9v3.4h-7.9v3.6H426.8z"/>
		<path class="st6" d="M471.4,172.6c-0.4,0.7-0.8,1.3-1.4,1.9c-0.5,0.6-1.1,1.1-1.8,1.5c-0.7,0.4-1.4,0.7-2.2,1
			c-0.8,0.2-1.6,0.3-2.4,0.3c-1.2,0-2.3-0.2-3.4-0.7s-2-1.1-2.8-1.9s-1.4-1.7-1.9-2.8s-0.7-2.2-0.7-3.4s0.2-2.3,0.7-3.4
			c0.5-1.1,1.1-2,1.9-2.8s1.7-1.4,2.8-1.9c1.1-0.5,2.2-0.7,3.4-0.7c0.8,0,1.6,0.1,2.4,0.3s1.5,0.5,2.1,0.9c0.7,0.4,1.2,0.9,1.8,1.4
			c0.5,0.5,1,1.2,1.3,1.8c-0.4,0.2-0.7,0.4-0.9,0.5c-0.2,0.1-0.4,0.2-0.7,0.3c-0.2,0.1-0.4,0.2-0.7,0.4c-0.3,0.1-0.6,0.3-1,0.5
			c-0.4-0.7-1-1.3-1.8-1.8s-1.6-0.7-2.6-0.7c-0.7,0-1.4,0.1-2,0.4s-1.2,0.6-1.6,1.1c-0.5,0.5-0.8,1-1.1,1.6c-0.3,0.6-0.4,1.3-0.4,2
			s0.1,1.4,0.4,2s0.6,1.2,1.1,1.6c0.5,0.5,1,0.8,1.6,1.1s1.3,0.4,2,0.4c1,0,1.9-0.2,2.7-0.7c0.8-0.5,1.4-1.1,1.9-1.9
			c0.4,0.2,0.7,0.4,1,0.5s0.5,0.3,0.7,0.4c0.2,0.1,0.4,0.2,0.7,0.3C470.7,172.3,471,172.5,471.4,172.6z"/>
	</g>
</g>
<path class="st7" d="M244.9,159.2c0,0-7,0.4-7,16s0,121.2,0,121.2s-1,11.8-13.7,8.6s-67.5-20.2-68.9,3.6l47.1,11.5l19.5,14.6
	l9.4,21.1l-1.7,6.7l-5,3.6l-0.9,18l1.4,18.7l16.3,2.2l89-1.4l4.3-5.8v-32.1l-13.4-3.8l1.4-5.5l18.5-31.7l-1.2-67.2l-6.9-7.5
	l-13.9-1.5l-10.5-9.8l-16.8,3.1l-5.7-13.9l-15.7-4.1l-12.2,7.9l-3.3-11.6l-0.8-45.1l-3.1-14.9L244.9,159.2z"/>
<g id="Finger_x2C__gesture_x2C__hand_x2C__one">
	<g>
		<g>
			<path d="M241.8,160.8c5.9,0,10.8,6.7,10.8,14.7v52.8c0,3.1,2.1,5.9,5.1,6.7h0.1h0.2c0.7,0.2,1.3,0.3,2,0.3c2.3,0,4.5-1.2,5.9-3.2
				c1.9-2.9,5.5-4.8,9.4-4.8h0.1c5.9,0,10.7,4,10.8,9v1.7c0,3.1,2.1,5.8,5,6.6l0.6,0.2c0.7,0.2,1.4,0.3,2,0.3c1.5,0,3-0.5,4.2-1.4
				c1.4-1.1,3.8-2.4,7.1-2.4h0.1c5,0,9.2,2.8,10.4,6.9c0.9,3,3.7,5,6.7,5c0.5,0,1-0.1,1.5-0.2c0.9-0.2,1.7-0.3,2.5-0.3h0.1
				c4.8,0,9.1,2.8,10.4,6.8c0.1,0.3,0.2,0.6,0.4,0.9c0.4,0.8,0.6,1.6,0.6,2.3l0.4,56.9c0,5.1-4.3,11.5-8.9,18.3
				c-3.8,5.6-7.7,11.4-10.2,17.7c-0.8,2.1-0.6,4.6,0.7,6.5s3.4,3.1,5.7,3.1h1.2c2.6,0,4.8,2.2,4.7,4.8l-0.2,26.3
				c0,2.6-2.2,4.7-4.8,4.7l-95.5-0.6c-1.3,0-2.5-0.5-3.4-1.4s-1.4-2.1-1.4-3.4l0.2-26.3c0-2.4,1.7-4.3,4.1-4.6
				c1.9-0.3,3.7-1.3,4.8-2.9s1.5-3.6,1.1-5.5c-0.3-1.2-0.6-2.1-0.9-2.9c-5.8-13-11.7-24.5-25.1-32.4c-11.6-6.9-28.6-11.1-58-14.5
				c-0.5-1.6-0.7-4.4,0.6-7.1c2.6-5.3,10.2-8.3,21.5-8.3h0.3c15.2,0,47.6,8.2,48,8.2c0.6,0.1,1.1,0.2,1.7,0.2c1.6,0,3.1-0.5,4.3-1.5
				c1.7-1.3,2.7-3.4,2.7-5.6c-0.1-18.7-0.2-29-0.2-34.7c0-0.4,0-0.9-0.1-1.3v-8.9v-13c0,0,0,0,0-0.1c0-1.6,0-3.4,0-5.4
				c0-0.1,0-0.1,0-0.2v-0.3c0-0.1,0-0.3,0-0.4c0-14.1,0-27.9,0-43.3v-9.6C231,167.5,235.9,160.8,241.8,160.8L241.8,160.8
				 M241.8,153.8c-9.8,0-17.8,9.7-17.8,21.6c0,19.5,0,35.9,0,52.9c0,0.3,0,0.6,0,0.9c0,2,0,3.8,0,5.4c0,7.5,0,15.1,0,23.3h0.1
				c0,5.7,0.1,16,0.2,34.7c0,0-33.4-8.5-49.7-8.5c-0.1,0-0.2,0-0.3,0c-35.2,0.3-31.4,25.5-25.9,29c59.9,6.4,68.5,16.1,80.5,43.1
				c0.2,0.3,0.3,0.9,0.5,1.6c-5.7,0.8-10.1,5.6-10.2,11.5l-0.2,26.3c0,6.5,5.2,11.8,11.7,11.8l95.5,0.6h0.1
				c6.5,0,11.7-5.2,11.8-11.7l0.2-26.3c0-6.5-5.2-11.8-11.7-11.8h-1.2c5.4-13.8,19.7-26.4,19.6-38.6l-0.4-56.9
				c0-1.8-0.5-3.6-1.3-5.2c-2.1-6.7-8.9-11.6-17-11.6h-0.1c-1.4,0-2.7,0.2-3.9,0.5c-2-6.9-8.9-12-17.1-12h-0.1
				c-4.3,0-8.2,1.5-11.2,3.8c-0.2-0.1-0.4-0.1-0.6-0.2v-1.7c-0.1-8.8-8-15.9-17.8-15.9c-0.1,0-0.1,0-0.2,0c-6.5,0-12.1,3.3-15.2,8
				c-0.1,0-0.2-0.1-0.3-0.1v-52.8C259.6,163.5,251.7,153.8,241.8,153.8L241.8,153.8L241.8,153.8z"/>
		</g>
	</g>
</g>
</svg>
