<svg id="Layer_1" data-name="Layer 1" xmlns="http://www.w3.org/2000/svg" viewBox="0 0 510.24 510.24"><defs><style>.cls-1{fill:#d81b60;}.cls-2{fill:#fff;}.cls-3{fill:#1d1d1b;}</style></defs><rect class="cls-1" x="100.97" y="295.12" width="28.3" height="47.1"/><rect class="cls-1" x="175.97" y="330.82" width="34.1" height="47.1"/><rect class="cls-1" x="250.03" y="345.45" width="34.1" height="47.1"/><rect class="cls-1" x="370.87" y="217.63" width="34.1" height="34.97"/><path class="cls-2" d="M309,398.82v-91.6h78.8v83a8.57,8.57,0,0,1-8.56,8.56Z"/><path class="cls-3" d="M386.27,308.72v81.54a7.07,7.07,0,0,1-7.06,7.06H310.47v-88.6h75.8m3-3h-81.8v94.6h71.74a10.07,10.07,0,0,0,10.06-10.06V305.72Z"/><path class="cls-2" d="M281.91,398.72a6.34,6.34,0,0,1-6.34-6.34V346.62h-32.3v43.15a9,9,0,0,1-9,9H155.49a6.93,6.93,0,0,1-6.92-6.93V307.12h146.6v86.7a4.91,4.91,0,0,1-4.9,4.9Zm-111.64-47a9.62,9.62,0,0,0,9.6,9.6h25.8v-35.4h-35.4Z"/><path class="cls-3" d="M293.67,308.62v85.2a3.4,3.4,0,0,1-3.4,3.4h-8.36a4.84,4.84,0,0,1-4.84-4.84V345.12h-35.3v44.65a7.46,7.46,0,0,1-7.45,7.45H155.49a5.43,5.43,0,0,1-5.42-5.43V308.62h143.6m-113.8,54.2h27.3v-38.4h-38.4v27.3a11.11,11.11,0,0,0,11.1,11.1m116.8-57.2H147.07v86.17a8.42,8.42,0,0,0,8.42,8.43h78.83a10.45,10.45,0,0,0,10.45-10.45V348.12h29.3v44.26a7.84,7.84,0,0,0,7.84,7.84h8.36a6.39,6.39,0,0,0,6.4-6.4v-88.2Zm-116.8,54.2a8.1,8.1,0,0,1-8.1-8.1v-24.3h32.4v32.4Z"/><polygon class="cls-3" points="214.57 301.02 175.97 301.02 222.97 233.72 261.57 233.72 214.57 301.02"/><polygon class="cls-2" points="134.84 299.52 179.75 235.22 214.69 235.22 169.79 299.52 134.84 299.52"/><path class="cls-3" d="M211.81,236.72,169,298H137.72l42.81-61.3h31.28m5.76-3H179L132,301h38.6l47-67.3Z"/><polygon class="cls-2" points="222.75 299.52 267.65 235.22 302.59 235.22 257.69 299.52 222.75 299.52"/><path class="cls-3" d="M299.71,236.72,256.9,298H225.62l42.81-61.3h31.28m5.76-3h-38.6l-47,67.3h38.6l47-67.3Z"/><path class="cls-2" d="M68,261.92a4.18,4.18,0,0,1-3.43-6.57l34.58-49.51a19.23,19.23,0,0,1,15.76-8.22h24.82l-44.9,64.3Z"/><path class="cls-3" d="M136.81,199.12,94,260.42H68a2.68,2.68,0,0,1-2.2-4.21l34.58-49.52a17.74,17.74,0,0,1,14.53-7.57h21.94m5.76-3h-27.7a20.73,20.73,0,0,0-17,8.86L63.3,254.49A5.68,5.68,0,0,0,68,263.42H95.57l47-67.3Z"/><polygon class="cls-3" points="139.47 263.42 100.97 263.42 147.97 196.12 186.47 196.12 139.47 263.42"/><polygon class="cls-3" points="401.27 301.02 352.27 233.72 349.37 233.72 343.97 233.72 310.77 233.72 263.77 301.02 302.37 301.02 346.72 237.5 392.97 301.02 401.27 301.02"/><polygon class="cls-3" points="428.07 208.42 379.07 141.12 376.27 141.12 370.87 141.12 337.67 141.12 290.67 208.42 329.27 208.42 373.62 144.9 419.87 208.42 428.07 208.42"/><polygon class="cls-2" points="147.65 261.92 192.55 197.62 229.31 197.62 252.32 229.22 247.73 229.22 226.18 199.51 205.49 229.22 176.78 229.22 175.44 231.16 153.89 261.92 147.65 261.92"/><path class="cls-3" d="M228.54,199.12l20.83,28.6h-.87l-19.87-27.39-.88-1.21h.79m-3.92,0-.88,1.26-19,27.34H176l-.9,1.29-.89,1.29-21.1,30.12h-2.59l42.81-61.3h31.29m5.75-3h-38.6l-47,67.3h9.9l22-31.4.9-1.3h28.7L226.2,202.1,247,230.72h8.3l-25.05-34.39.15-.21Z"/><path class="cls-2" d="M82.3,361.52a8.64,8.64,0,0,1-8.63-8.63V269.82h74.72L130.77,295v-6.51H95.37v28.3a7.1,7.1,0,0,0,7.09,7.1h28.31v-18.4h11.8v56Z"/><path class="cls-3" d="M145.51,271.32l-13.24,18.94V287H93.87v29.8a8.6,8.6,0,0,0,8.59,8.6h29.81V307h8.8v53H82.3a7.14,7.14,0,0,1-7.13-7.13V271.32h70.34m5.76-3H72.17v84.57A10.13,10.13,0,0,0,82.3,363h61.77V304h-14.8v18.4H102.46a5.6,5.6,0,0,1-5.59-5.6V290h32.4v9.8l.4-.6,21.6-30.9Z"/><polygon class="cls-2" points="251.42 206.92 250.51 205.69 294.55 142.62 329.49 142.62 284.59 206.92 251.42 206.92"/><path class="cls-3" d="M326.61,144.12l-42.81,61.3H252.54l42.79-61.3h31.28m5.76-3h-38.6l-45.1,64.6,2,2.7h34.7l47-67.3Z"/><path class="cls-3" d="M257.09,141.12A13.83,13.83,0,0,0,245.74,147L215,191.12h23.1l7.9,10.8,42.5-60.8Z"/><path class="cls-2" d="M393,279.42l-15.91-21.8h16.25v-29.3h-29.3v11.37l-9-12.47H334.87v-14.6h78.7v61a5.83,5.83,0,0,1-5.82,5.82Z"/><path class="cls-3" d="M412.07,214.12V273.6a4.33,4.33,0,0,1-4.32,4.32h-14l-13.72-18.8h14.8v-32.3h-32.3v8.24L356.7,227l-.9-1.24H336.37v-11.6h75.7m3-3h-81.7v17.6h20.9l11.3,15.6v-14.5h26.3v26.3h-17.7l18.1,24.8h15.48a7.32,7.32,0,0,0,7.32-7.32V211.12Z"/><rect class="cls-1" x="439.97" y="353.22" width="47.1" height="47.1" rx="14.93"/><rect class="cls-1" x="23.17" y="141.12" width="47.1" height="47.1" rx="14.93"/><path class="cls-1" d="M460.17,204.72a3.34,3.34,0,0,1-2.3.9,3.25,3.25,0,0,1-2.4-1l-1.9-2v129.3a3.3,3.3,0,0,1-6.6,0V202.62l-1.9,2a3.1,3.1,0,0,1-2.4,1,3.52,3.52,0,0,1-2.3-.9,3.29,3.29,0,0,1-.1-4.6l7.5-7.8c.1-.1.1-.1.2-.1l.1-.1c.1,0,.1-.1.2-.1a.37.37,0,0,1,.3-.1h.1c.1,0,.1-.1.2-.1h.1c.1,0,.2-.1.3-.1a.35.35,0,0,0,.2-.1h1.4c.1,0,.2.1.3.1s.2.1.3.1h.1c.1,0,.1.1.2.1h.1c.1,0,.2.1.3.1s.1.1.2.1l.1.1c.1,0,.1.1.2.1l7.5,7.8A3.2,3.2,0,0,1,460.17,204.72Z"/><path class="cls-1" d="M485.77,123a3.34,3.34,0,0,1-2.3.9,3.25,3.25,0,0,1-2.4-1l-1.9-2v211a3.3,3.3,0,1,1-6.6,0v-211l-1.9,2a3.1,3.1,0,0,1-2.4,1,3.52,3.52,0,0,1-2.3-.9,3.29,3.29,0,0,1-.1-4.6l7.5-7.8c.1-.1.1-.1.2-.1l.1-.1c.1,0,.1-.1.2-.1a.37.37,0,0,1,.3-.1h.1c.1,0,.1-.1.2-.1h.1c.1,0,.2-.1.3-.1a.35.35,0,0,0,.2-.1h1.4c.1,0,.2.1.3.1s.2.1.3.1h.1c.1,0,.1.1.2.1h.1c.1,0,.2.1.3.1s.1.1.2.1l.1.1c.1,0,.1.1.2.1l7.5,7.8A3.2,3.2,0,0,1,485.77,123Z"/></svg>