<?xml version="1.0" ?><!DOCTYPE svg  PUBLIC '-//W3C//DTD SVG 1.1//EN'  'http://www.w3.org/Graphics/SVG/1.1/DTD/svg11.dtd'><svg height="512px" style="enable-background:new 0 0 512 512;" version="1.1" viewBox="0 0 512 512" width="512px" xml:space="preserve" xmlns="http://www.w3.org/2000/svg" xmlns:xlink="http://www.w3.org/1999/xlink"><g id="_x34_49_x2C__gps_x2C__location_x2C__map_x2C__navigation_x2C__route"><g><path d="M351.315,161.278l0.032,285.337l71.691-30.298l0.091-285.368    L351.315,161.278z M192.813,214.529l0.244,231.965l71.54-30.208V285.644c-0.944,0.061-1.92-0.335-2.561-1.372    c-1.005-1.646-2.072-3.201-3.171-4.756c-2.316-3.078,2.378-6.675,4.756-3.505l0.976,1.371v-93.091    c-8.991,10.029-18.625,19.631-27.831,28.775c-7.101,7.041-13.959,13.869-19.965,20.361c-1.402,1.524-3.778,1.615-5.303,0.214    l-0.214-0.244C205.675,227.363,199.365,221.053,192.813,214.529z M214.057,56.818c13.199,0,25.208,5.365,33.896,14.052    c8.686,8.687,14.052,20.667,14.052,33.896s-5.366,25.209-14.052,33.896c-8.658,8.687-20.667,14.052-33.896,14.052    s-25.209-5.365-33.895-14.052c-8.688-8.657-14.052-20.667-14.052-33.896s5.364-25.238,14.021-33.896l0.244-0.214    C189.033,62.092,200.951,56.818,214.057,56.818z M166.049,175.879L166.049,175.879l1.86,2.133l0.457,0.52l0.335,0.365l1.067,1.189    l0.306,0.305l0.182,0.213l0.458,0.549l0.488,0.519l0.212,0.244l0.244,0.273l0.488,0.518l0.488,0.519l0.152,0.152l0.306,0.366    l0.488,0.518l0.974,1.037l0.458,0.518l0.488,0.488l0.03,0.062l0.458,0.457l0.488,0.518l0.457,0.488l0.032,0.03l0.488,0.518    l0.488,0.487l0.395,0.428l0.093,0.092l0.486,0.518l0.488,0.518l0.335,0.336l0.152,0.152l0.488,0.519l0.488,0.519l0.276,0.273    l0.212,0.215l0.488,0.518l0.488,0.487l0.214,0.214l0.304,0.304l0.488,0.487l0.488,0.52l0.123,0.121l0.365,0.365l0.488,0.52    l0.488,0.487l0.091,0.06l0.426,0.428l0.488,0.519l0.488,0.488l0,0l0.488,0.487l0.488,0.518l0.427,0.427l0.061,0.062l1.006,0.976    l0.367,0.364l0.121,0.153l0.488,0.487l0.488,0.488l0.305,0.273l0.183,0.215l0.488,0.487l4.908,4.876    c6.096,6.066,12.039,11.949,17.465,17.68c5.426-5.73,11.339-11.613,17.435-17.68c11.371-11.277,23.38-23.227,33.865-35.754    l0.031-0.03l0.029-0.03l0.03-0.061v-0.031l0.031-0.03l0.03-0.03l0.031-0.031l0.03-0.029    c16.765-20.088,29.598-41.699,29.598-64.622c0-22.403-9.083-42.675-23.746-57.366c-14.692-14.662-34.961-23.745-57.366-23.745    s-42.706,9.083-57.366,23.745c-14.693,14.691-23.775,34.963-23.775,57.366C132.916,131.62,147.608,154.634,166.049,175.879z     M343.848,161.278l-48.953-20.667c-2.409,5.305-5.272,10.486-8.535,15.577l-0.152,0.274l-0.183,0.243l-0.306,0.518l-0.182,0.274    l-0.183,0.275l-0.185,0.305l-0.212,0.273l-0.183,0.306l-0.185,0.274l-0.212,0.305l-0.183,0.273l-0.185,0.306l-0.212,0.274    l-1.587,2.316l-0.183,0.275l-0.212,0.273l-0.214,0.305l-0.183,0.273l-0.427,0.58l-0.214,0.274l-0.214,0.304l-0.183,0.275    l-0.213,0.274l-0.152,0.214l-0.062,0.091l-0.214,0.274l-0.212,0.273l-0.215,0.275l-0.182,0.305l-0.215,0.273l-0.121,0.153    l-0.091,0.122l-0.214,0.305l-0.213,0.273l-0.214,0.274l-0.214,0.275l-0.213,0.304l-0.091,0.092l-0.152,0.184l-0.215,0.273    l-0.212,0.273l-0.214,0.307l-0.214,0.273l-0.213,0.275l-0.029,0.029l-0.185,0.244l-0.212,0.274l-0.244,0.305l-0.214,0.274    l-0.213,0.275l-0.214,0.243l-0.03,0.03l-0.214,0.274l-0.214,0.274l-0.213,0.273l-0.243,0.306l-0.214,0.274l-0.153,0.183    l-0.06,0.091l-0.244,0.275l-0.214,0.273l-0.244,0.275l-0.214,0.273l-0.242,0.274l-0.093,0.152l-0.121,0.122l-0.244,0.275v119.822    l0.121-0.03c1.404-0.488,3.109,0.213,3.629,1.494l2.561,5.364c1.614,3.992-4.056,5.761-5.366,2.53l-0.944-1.981v113.481    l71.784,30.329V161.278z M242.679,76.144c-7.315-7.315-17.435-11.827-28.622-11.827c-11.095,0-21.153,4.45-28.439,11.645    l-0.182,0.213c-7.316,7.315-11.857,17.436-11.857,28.592s4.541,21.276,11.857,28.592c7.315,7.346,17.435,11.857,28.622,11.857    c11.157,0,21.276-4.542,28.592-11.857c7.345-7.285,11.857-17.405,11.857-28.592S249.994,83.459,242.679,76.144z M158.916,258.179    c3.444-0.7,2.651-6.553-1.523-5.729c-1.921,0.518-3.873,1.066-5.763,1.615c-4.297,1.706-1.309,6.857,1.648,5.669    C155.136,259.186,157.026,258.667,158.916,258.179z M181.717,253.729c4.358-0.883,2.56-6.553-0.732-5.883    c-1.951,0.213-4.023,0.549-5.975,0.854c-4.053,0.822-2.592,6.554,0.976,5.853C177.876,254.248,179.827,253.912,181.717,253.729z     M227.286,256.777c3.262,1.311,5.792-4.023,1.829-5.609c-1.981-0.64-3.933-1.219-5.914-1.707    c-4.083-0.792-4.938,5.061-1.371,5.762C223.659,255.649,225.487,256.229,227.286,256.777z M247.19,267.324    c3.232,2.407,6.615-2.408,3.627-4.664c-1.614-1.281-3.292-2.469-5.029-3.597c-3.536-2.134-6.34,3.079-3.201,4.968    C244.174,265.068,245.697,266.135,247.19,267.324z M282.213,326.428c0.581,1.372,2.257,2.256,3.842,1.615    c1.434-0.578,2.315-2.226,1.646-3.871l-2.225-5.486c-1.373-3.415-6.949-1.434-5.487,2.255L282.213,326.428z M291.938,348.283    c1.981,3.262,6.767,1.066,5.244-2.713l-2.531-5.213c-0.396-0.914-1.524-1.707-2.592-1.707c-2.286,0-3.627,2.072-2.772,4.207    C290.14,344.686,291.023,346.484,291.938,348.283z M305.867,368.34c2.865,2.865,6.889-1.464,4.268-4.086    c-1.311-1.371-2.498-2.742-3.719-4.235c-2.255-2.987-7.102,0.427-4.664,3.657C303.063,365.291,304.405,366.846,305.867,368.34z     M326.047,382.422c3.963,1.586,5.761-4.054,2.469-5.365c-1.707-0.762-3.383-1.615-5.061-2.56c-3.23-1.921-6.34,3.109-2.895,5.151    C322.358,380.654,324.157,381.599,326.047,382.422z M373.385,391.566c4.115,0,3.842-5.883,0.183-5.883    c-1.951-0.062-3.901-0.152-5.853-0.273c-4.328,0-3.809,5.912-0.335,5.912L373.385,391.566z M397.283,391.2    c3.535,0,3.932-5.913-0.336-5.913l-5.854,0.275c-3.779,0-3.627,5.911,0.215,5.911L397.283,391.2z M128.954,262.172    c-3.385,1.342-1.343,6.889,2.437,5.396l-0.091,0.029c1.798-0.762,3.597-1.523,5.425-2.255c3.659-1.464,1.434-6.92-2.164-5.487    c-1.798,0.701-3.841,1.464-5.578,2.316l0.121-0.061L128.954,262.172z M320.346,107.783c-1.797-1.037-2.407-3.323-1.37-5.121    c1.035-1.768,3.321-2.377,5.091-1.371l31.578,18.228l44.869-25.909c1.798-1.037,4.085-0.396,5.09,1.371    c1.037,1.799,0.427,4.085-1.372,5.092l-46.544,26.884c-1.158,0.731-2.652,0.853-3.934,0.122L320.346,107.783z M88.87,250.955    c0-2.072,1.676-3.75,3.748-3.75c2.074,0,3.75,1.678,3.75,3.75v174.201l32.828,15.271c1.86,0.885,2.683,3.109,1.798,4.97    c-0.853,1.89-3.078,2.681-4.968,1.828l-34.87-16.247c-1.342-0.579-2.287-1.89-2.287-3.444V250.955z M121.424,473.684    c-2.042,0-3.718-1.678-3.718-3.75s1.676-3.748,3.718-3.748h202.643c2.072,0,3.748,1.676,3.748,3.748s-1.676,3.75-3.748,3.75    H121.424z M240.089,485.999c-2.072,0-3.75-1.678-3.75-3.721c0-2.072,1.678-3.748,3.75-3.748h140.215    c2.073,0,3.75,1.676,3.75,3.748c0,2.043-1.677,3.721-3.75,3.721H240.089z M394.661,485.999c-2.072,0-3.75-1.678-3.75-3.721    c0-2.072,1.678-3.748,3.75-3.748h17.526c2.072,0,3.75,1.676,3.75,3.748c0,2.043-1.678,3.721-3.75,3.721H394.661z M113.468,485.632    c-2.072,0-3.75-1.676-3.75-3.748c0-2.043,1.678-3.75,3.75-3.75h66.419c2.074,0,3.75,1.707,3.75,3.75    c0,2.072-1.676,3.748-3.75,3.748H113.468z M132.458,138.966l-18.928-8.017v285.337l71.783,30.329V207.063l-0.488-0.459    l-0.456-0.487l-0.274-0.273l-0.214-0.214l-0.488-0.488l-0.488-0.488l-0.273-0.273l-0.184-0.182l-0.486-0.488l-0.488-0.488    l-0.305-0.305l-0.183-0.183l-0.488-0.487l-0.458-0.488l-0.335-0.336l-0.152-0.152l-0.488-0.488l-0.488-0.487l-0.457-0.487    l-0.488-0.518l-0.488-0.488l-0.367-0.365l-0.121-0.123l-0.458-0.487l-0.486-0.487l-0.396-0.396l-0.091-0.121l-0.488-0.488    l-0.458-0.488l-0.396-0.396l-0.091-0.091l-0.488-0.519l-0.457-0.487l-0.428-0.427l-0.06-0.061l-0.488-0.518l-0.458-0.488    l-0.426-0.458l-0.062-0.061C155.318,175.787,140.719,158.018,132.458,138.966z" style="fill-rule:evenodd;clip-rule:evenodd;"/></g></g><g id="Layer_1"/></svg>