<?xml version="1.0" ?><!DOCTYPE svg  PUBLIC '-//W3C//DTD SVG 1.1//EN'  'http://www.w3.org/Graphics/SVG/1.1/DTD/svg11.dtd'><svg height="512px" style="enable-background:new 0 0 512 512;" version="1.1" viewBox="0 0 512 512" width="512px" xml:space="preserve" xmlns="http://www.w3.org/2000/svg" xmlns:xlink="http://www.w3.org/1999/xlink"><g id="_x34_40_x2C__Device_x2C__mobile_x2C__phone_x2C__smartphone_x2C__telephone"><g><path d="M237.836,388.092h0.365c5.285,0.057,10.104,2.17,13.613,5.609    c3.608,3.521,5.875,8.427,5.931,13.865v0.422c-0.028,5.3-2.155,10.09-5.58,13.613c-3.52,3.607-8.44,5.89-13.88,5.946h-0.407    c-5.299-0.057-10.104-2.17-13.614-5.609c-3.607-3.521-5.889-8.426-5.945-13.865v-0.423c0.042-5.27,2.169-10.088,5.594-13.612    c3.523-3.606,8.44-5.861,13.88-5.946H237.836z M116.524,69.939l0.323,26.436h234.862l-0.354-29.254    c-0.043-4.03-1.748-7.694-4.439-10.314c-2.707-2.649-6.395-4.257-10.428-4.199l-205.449,2.48    c-4.033,0.056-7.679,1.746-10.314,4.452C118.103,62.217,116.481,65.938,116.524,69.939z M351.793,103.279l-234.873,0.028    l3.295,271.651h234.845L351.793,103.279z M237.851,395.024c-3.523,0.028-6.692,1.494-8.991,3.833    c-2.225,2.283-3.608,5.383-3.636,8.793v0.366c0.056,3.523,1.523,6.708,3.86,8.991c2.271,2.227,5.383,3.607,8.795,3.635h0.337    c3.538-0.056,6.707-1.521,8.991-3.861c2.225-2.282,3.608-5.382,3.65-8.793l-0.014-0.338c-0.042-3.551-1.509-6.707-3.846-8.99    c-2.285-2.226-5.398-3.607-8.795-3.664L237.851,395.024z M212.965,77.098c-1.916,0-3.467-1.55-3.467-3.467    c0-1.916,1.551-3.467,3.467-3.467h46.262c1.902,0,3.468,1.551,3.468,3.467c0,1.917-1.565,3.467-3.468,3.467H212.965z     M284.323,119.4c1.352-1.354,3.552-1.326,4.875,0.027c1.34,1.354,1.326,3.551-0.028,4.875l-101.161,99.316    c-1.365,1.353-3.552,1.324-4.889-0.028c-1.327-1.353-1.313-3.552,0.042-4.905L284.323,119.4z M237.173,198.339    c1.354-1.323,3.552-1.323,4.889,0.058c1.341,1.352,1.313,3.549-0.042,4.874l-81.771,80.265c-1.365,1.353-3.552,1.324-4.889-0.028    c-1.323-1.353-1.309-3.551,0.056-4.876L237.173,198.339z M311.93,157.644c1.365-1.353,3.551-1.325,4.889,0.028    c1.322,1.353,1.309,3.551-0.057,4.903l-141.83,139.222c-1.365,1.354-3.551,1.324-4.889-0.027    c-1.327-1.354-1.313-3.551,0.056-4.876L311.93,157.644z M264.709,236.667c1.351-1.325,3.551-1.325,4.889,0.028    c1.34,1.381,1.309,3.551-0.042,4.904l-101.162,99.287c-1.365,1.352-3.552,1.324-4.889-0.027c-1.327-1.354-1.313-3.553,0.042-4.877    L264.709,236.667z M311.887,223.027c1.365-1.354,3.549-1.324,4.889,0.028c1.338,1.353,1.31,3.55-0.041,4.874l-83.084,81.59    c-1.351,1.324-3.548,1.297-4.875-0.057c-1.337-1.354-1.323-3.552,0.028-4.875L311.887,223.027z M238.16,34.316    c-1.902,0.027-3.468-1.494-3.496-3.41c-0.028-1.888,1.509-3.467,3.411-3.467l118.762-1.438c5.889-0.056,11.244,2.283,15.147,6.115    c3.947,3.834,6.453,9.217,6.611,15.135l1.028,37.313c0.056,1.917-1.453,3.495-3.354,3.552c-1.902,0.056-3.496-1.465-3.538-3.354    l-1.028-37.314c-0.099-4.058-1.832-7.75-4.538-10.398c-2.663-2.594-6.327-4.199-10.328-4.172L238.16,34.316z M108.859,469.54    c-1.916,0-3.467-1.551-3.467-3.467c0-1.888,1.551-3.438,3.467-3.438h220.176c1.901,0,3.467,1.551,3.467,3.438    c0,1.916-1.565,3.467-3.467,3.467H108.859z M237.794,485.999c-1.916,0-3.467-1.551-3.467-3.467s1.551-3.467,3.467-3.467h152.354    c1.916,0,3.468,1.551,3.468,3.467s-1.552,3.467-3.468,3.467H237.794z M405.734,485.999c-1.902,0-3.453-1.551-3.453-3.467    s1.551-3.467,3.453-3.467h19.05c1.916,0,3.468,1.551,3.468,3.467s-1.552,3.467-3.468,3.467H405.734z M87.216,485.49    c-1.919,0-3.467-1.549-3.467-3.465c0-1.889,1.548-3.438,3.467-3.438h72.187c1.902,0,3.467,1.55,3.467,3.438    c0,1.916-1.565,3.465-3.467,3.465H87.216z M355.654,423.235l-0.51-41.372H120.3l0.537,44.219c0.042,4.03,1.748,7.666,4.439,10.315    c2.688,2.62,6.38,4.227,10.413,4.198l205.45-2.479c4.032-0.057,7.693-1.747,10.314-4.453    C354.089,430.986,355.696,427.267,355.654,423.235z" style="fill-rule:evenodd;clip-rule:evenodd;"/></g></g><g id="Layer_1"/></svg>