<svg id="Layer_1" data-name="Layer 1" xmlns="http://www.w3.org/2000/svg" viewBox="0 0 510.24 510.24"><defs><style>.cls-1{fill:#d81b60;}</style></defs><rect x="72.77" y="365.57" width="13.4" height="15.3"/><rect x="105.97" y="365.57" width="13.3" height="15.3"/><rect x="89.37" y="365.57" width="13.3" height="15.3"/><rect x="56.47" y="365.57" width="13" height="15.3"/><polygon points="150.87 312.87 128.77 312.87 96.57 312.87 74.47 312.87 74.47 318.27 150.87 318.27 150.87 312.87"/><rect x="98.17" y="305.27" width="28.9" height="4.3"/><polygon points="160.97 321.47 152.47 321.47 72.77 321.47 64.27 321.47 64.27 328.27 160.97 328.27 160.97 321.47"/><path d="M69.47,345.07a1.6,1.6,0,0,1,3.2,0v17.2h13.4v-17.2a1.6,1.6,0,1,1,3.2,0v17.2h13.3v-17.2a1.6,1.6,0,0,1,3.2,0v17.2h13.5v-17.2a1.6,1.6,0,0,1,3.2,0v17.2h13.3v-17.2a1.6,1.6,0,0,1,3.2,0v17.2h13.3v-17.2a1.6,1.6,0,0,1,3.2,0v17.2h13v-30.8H56.07v30.8h13v-17.2Z"/><rect x="155.77" y="365.57" width="13" height="15.3"/><rect x="122.57" y="365.57" width="13.3" height="15.3"/><rect x="139.17" y="365.57" width="13.3" height="15.3"/><path d="M212,418.27h-43.2v-33.6H56.47v33.6H30.87a1.6,1.6,0,1,0,0,3.2H212a1.58,1.58,0,0,0,1.6-1.6A1.47,1.47,0,0,0,212,418.27Zm-85,0h-3.3v-26.1h-9.4v26.1H111v-26.1h-9.4v26.1h-3.3v-27.7a1.58,1.58,0,0,1,1.6-1.6h25.4a1.58,1.58,0,0,1,1.6,1.6l.1,27.7Z"/><rect x="193.57" y="347.67" width="13.4" height="15.2"/><rect x="193.57" y="366.17" width="13.4" height="15.3"/><rect class="cls-1" x="193.57" y="329.17" width="13.4" height="15.2"/><rect class="cls-1" x="210.17" y="347.67" width="13.3" height="15.2"/><rect x="210.17" y="329.17" width="13.3" height="15.2"/><rect x="210.17" y="366.17" width="13.3" height="15.3"/><polygon points="271.67 275.17 249.57 275.17 217.37 275.17 195.27 275.17 195.27 280.57 271.67 280.57 271.67 275.17"/><rect x="219.07" y="267.67" width="28.9" height="4.3"/><rect x="177.27" y="347.67" width="13" height="15.2"/><rect x="177.27" y="366.17" width="13" height="15.3"/><rect x="177.27" y="329.17" width="13" height="15.2"/><polygon points="281.87 283.87 273.37 283.87 193.67 283.87 185.07 283.87 185.07 290.67 281.87 290.67 281.87 283.87"/><rect x="276.67" y="347.67" width="13" height="15.2"/><rect x="276.67" y="329.17" width="13" height="15.2"/><rect x="276.67" y="366.17" width="13" height="15.3"/><rect x="260.07" y="347.67" width="13.3" height="15.2"/><rect class="cls-1" x="260.07" y="366.17" width="13.3" height="15.3"/><path d="M190.27,307.47a1.6,1.6,0,1,1,3.2,0v17.2h13.4v-17.2a1.6,1.6,0,1,1,3.2,0v17.2h13.3v-17.2a1.6,1.6,0,1,1,3.2,0v17.2h13.3v-17.2a1.6,1.6,0,1,1,3.2,0v17.2h13.3v-17.2a1.6,1.6,0,1,1,3.2,0v17.2h13.3v-17.2a1.6,1.6,0,1,1,3.2,0v17.2h13v-30.8H177.27v30.8h13Z"/><rect x="260.07" y="329.17" width="13.3" height="15.2"/><rect x="226.77" y="347.67" width="13.3" height="15.2"/><rect x="226.77" y="366.17" width="13.3" height="15.3"/><rect class="cls-1" x="226.77" y="329.17" width="13.3" height="15.2"/><rect x="243.47" y="329.17" width="13.3" height="15.2"/><rect x="243.47" y="347.67" width="13.3" height="15.2"/><rect x="243.47" y="366.17" width="13.3" height="15.3"/><path d="M332.87,418.27h-43.2v-33.6H177.27v33.6h-25.5a1.6,1.6,0,1,0,0,3.2h181.1a1.6,1.6,0,0,0,0-3.2Zm-85,0h-3.3v-26.1h-9.4v26.1h-3.3v-26.1h-9.4v26.1h-3.3v-27.7a1.58,1.58,0,0,1,1.6-1.6h25.4a1.58,1.58,0,0,1,1.6,1.6l.1,27.7Z"/><rect x="340.07" y="347.67" width="13.4" height="15.2"/><rect x="340.07" y="366.17" width="13.4" height="15.3"/><rect class="cls-1" x="356.67" y="292.17" width="13.3" height="15.2"/><rect x="340.07" y="273.57" width="13.4" height="15.3"/><rect x="340.07" y="292.17" width="13.4" height="15.2"/><rect x="340.07" y="310.67" width="13.4" height="15.3"/><rect class="cls-1" x="340.07" y="329.17" width="13.4" height="15.2"/><rect x="373.27" y="273.57" width="13.3" height="15.3"/><rect x="373.27" y="292.17" width="13.3" height="15.2"/><rect x="356.67" y="347.67" width="13.3" height="15.2"/><rect x="356.67" y="273.57" width="13.3" height="15.3"/><rect x="356.67" y="310.67" width="13.3" height="15.3"/><rect class="cls-1" x="356.67" y="329.17" width="13.3" height="15.2"/><rect x="356.67" y="366.17" width="13.3" height="15.3"/><rect class="cls-1" x="323.77" y="273.57" width="13" height="15.3"/><rect x="323.77" y="292.17" width="13" height="15.2"/><rect x="323.77" y="310.67" width="13" height="15.3"/><polygon points="418.17 147.27 396.07 147.27 363.87 147.27 341.77 147.27 341.77 152.67 418.17 152.67 418.17 147.27"/><rect class="cls-1" x="365.57" y="139.67" width="28.9" height="4.3"/><rect x="323.77" y="347.67" width="13" height="15.2"/><rect x="323.77" y="366.17" width="13" height="15.3"/><rect x="323.77" y="329.17" width="13" height="15.2"/><polygon class="cls-1" points="428.37 155.87 419.87 155.87 340.17 155.87 331.57 155.87 331.57 162.67 428.37 162.67 428.37 155.87"/><rect x="423.17" y="347.67" width="13" height="15.2"/><rect x="423.17" y="329.17" width="13" height="15.2"/><rect x="423.17" y="366.17" width="13" height="15.3"/><rect x="406.57" y="347.67" width="13.3" height="15.2"/><rect x="423.17" y="310.67" width="13" height="15.3"/><rect class="cls-1" x="406.57" y="366.17" width="13.3" height="15.3"/><path d="M336.77,179.47a1.6,1.6,0,0,1,3.2,0v17.2h13.4v-17.2a1.6,1.6,0,1,1,3.2,0v17.2h13.3v-17.2a1.6,1.6,0,1,1,3.2,0v17.2h13.3v-17.2a1.6,1.6,0,1,1,3.2,0v17.2h13.7v-17.2a1.6,1.6,0,0,1,3.2,0v17.2h13.3v-17.2a1.6,1.6,0,0,1,3.2,0v17.2h13v-30.8H323.57v30.8h13v-17.2Z"/><rect x="423.17" y="292.17" width="13" height="15.2"/><rect class="cls-1" x="423.17" y="273.57" width="13" height="15.3"/><rect x="406.57" y="329.17" width="13.3" height="15.2"/><rect class="cls-1" x="373.27" y="347.67" width="13.3" height="15.2"/><rect x="373.27" y="366.17" width="13.3" height="15.3"/><rect x="389.97" y="292.17" width="13.3" height="15.2"/><rect class="cls-1" x="389.97" y="273.57" width="13.3" height="15.3"/><rect class="cls-1" x="389.97" y="310.67" width="13.3" height="15.3"/><rect x="373.27" y="329.17" width="13.3" height="15.2"/><rect x="373.27" y="310.67" width="13.3" height="15.3"/><rect x="389.97" y="329.17" width="13.3" height="15.2"/><rect x="406.57" y="273.57" width="13.3" height="15.3"/><rect class="cls-1" x="406.57" y="310.67" width="13.3" height="15.3"/><rect class="cls-1" x="406.57" y="292.17" width="13.3" height="15.2"/><rect class="cls-1" x="356.67" y="218.07" width="13.3" height="15.2"/><rect class="cls-1" x="340.07" y="199.57" width="13.4" height="15.3"/><rect x="340.07" y="218.07" width="13.4" height="15.2"/><rect x="340.07" y="236.57" width="13.4" height="15.3"/><rect class="cls-1" x="340.07" y="255.07" width="13.4" height="15.2"/><rect class="cls-1" x="373.27" y="199.57" width="13.3" height="15.3"/><rect x="373.27" y="218.07" width="13.3" height="15.2"/><rect x="356.67" y="199.57" width="13.3" height="15.3"/><rect x="356.67" y="236.57" width="13.3" height="15.3"/><rect class="cls-1" x="356.67" y="255.07" width="13.3" height="15.2"/><rect x="323.77" y="199.57" width="13" height="15.3"/><rect x="323.77" y="218.07" width="13" height="15.2"/><rect class="cls-1" x="323.77" y="236.57" width="13" height="15.3"/><rect x="323.77" y="255.07" width="13" height="15.2"/><rect x="423.17" y="255.07" width="13" height="15.2"/><rect x="423.17" y="236.57" width="13" height="15.3"/><rect x="423.17" y="218.07" width="13" height="15.2"/><rect class="cls-1" x="423.17" y="199.57" width="13" height="15.3"/><rect x="406.57" y="255.07" width="13.3" height="15.2"/><rect x="389.97" y="218.07" width="13.3" height="15.2"/><rect class="cls-1" x="389.97" y="199.57" width="13.3" height="15.3"/><rect class="cls-1" x="389.97" y="236.57" width="13.3" height="15.3"/><rect x="373.27" y="255.07" width="13.3" height="15.2"/><rect x="373.27" y="236.57" width="13.3" height="15.3"/><rect x="389.97" y="255.07" width="13.3" height="15.2"/><rect x="406.57" y="199.57" width="13.3" height="15.3"/><rect x="406.57" y="236.57" width="13.3" height="15.3"/><rect class="cls-1" x="406.57" y="218.07" width="13.3" height="15.2"/><rect x="389.97" y="347.67" width="13.3" height="15.2"/><rect class="cls-1" x="389.97" y="366.17" width="13.3" height="15.3"/><path d="M479.37,418.27h-43.2v-33.6H323.77v33.6h-25.5a1.6,1.6,0,1,0,0,3.2h181.1a1.6,1.6,0,0,0,0-3.2Zm-85,0h-3.3v-26.1h-9.4v26.1h-3.3v-26.1H369v26.1h-3.3v-27.7a1.58,1.58,0,0,1,1.6-1.6h25.4a1.58,1.58,0,0,1,1.6,1.6l.1,27.7Z"/><path class="cls-1" d="M452.67,261.07V90.37a1.6,1.6,0,0,0-3.2,0v170.7a1.58,1.58,0,0,0,1.6,1.6A1.64,1.64,0,0,0,452.67,261.07Z"/><path class="cls-1" d="M459.57,96.67l-7.4-7.4a1.63,1.63,0,1,0-2.3,2.3l7.4,7.4a1.63,1.63,0,0,0,2.3-2.3Z"/><path class="cls-1" d="M304.17,398.87v-51.2a1.6,1.6,0,0,0-3.2,0v51.2a1.6,1.6,0,0,0,3.2,0Z"/><path class="cls-1" d="M311.07,353.87l-7.4-7.4a1.63,1.63,0,1,0-2.3,2.3l7.4,7.4a1.69,1.69,0,0,0,2.3,0A1.52,1.52,0,0,0,311.07,353.87Z"/><path class="cls-1" d="M44.27,348.47a1.58,1.58,0,0,0,1.6-1.6v-30.6a1.6,1.6,0,0,0-3.2,0v30.6A1.52,1.52,0,0,0,44.27,348.47Z"/><path class="cls-1" d="M35.67,324.87a1.69,1.69,0,0,0,2.3,0l7.4-7.4a1.63,1.63,0,0,0-2.3-2.3l-7.4,7.4A1.69,1.69,0,0,0,35.67,324.87Z"/></svg>