<svg id="Layer_1" data-name="Layer 1" xmlns="http://www.w3.org/2000/svg" viewBox="0 0 510.24 510.24"><defs><style>.cls-1{fill:#d81b60;}.cls-2{fill:#fff;}.cls-3{fill:#1d1d1b;}</style></defs><path class="cls-1" d="M83.42,347.77H56.32a3.3,3.3,0,1,0,0,6.6h27.1a3.3,3.3,0,0,0,0-6.6Z"/><path class="cls-1" d="M429.22,163.07h27.1a3.3,3.3,0,1,0,0-6.6h-27.1a3.3,3.3,0,0,0,0,6.6Z"/><rect class="cls-1" x="436.72" y="344.37" width="12.1" height="12.1"/><path class="cls-1" d="M83.42,339.07H56.32a3.3,3.3,0,1,0,0,6.6h27.1a3.33,3.33,0,0,0,3.3-3.3A3.27,3.27,0,0,0,83.42,339.07Z"/><path class="cls-1" d="M429.22,172h27.1a3.3,3.3,0,1,0,0-6.6h-27.1a3.33,3.33,0,0,0-3.3,3.3A3.4,3.4,0,0,0,429.22,172Z"/><rect class="cls-1" x="63.82" y="153.87" width="12.1" height="12.1"/><path class="cls-1" d="M302,240.07h0l.1.1a6,6,0,0,0,8,.5l64.7-55.3h95.9a5.8,5.8,0,0,0,0-11.6h-98a5.88,5.88,0,0,0-3.7,1.4l-66.3,56.7A5.76,5.76,0,0,0,302,240.07Z"/><path class="cls-1" d="M39.52,185.27h96.1l64.7,55.3A5.88,5.88,0,0,0,204,242a5.5,5.5,0,0,0,4.5-2.2,5.78,5.78,0,0,0-.7-8l-66.3-56.7a5.88,5.88,0,0,0-3.7-1.4H39.52a5.8,5.8,0,1,0,0,11.6Z"/><path class="cls-1" d="M208.52,269.67a5.8,5.8,0,0,0-4.4-2.1,5.49,5.49,0,0,0-3.7,1.4l-64.7,55.4H39.62a5.8,5.8,0,1,0,0,11.6h98.2a5.88,5.88,0,0,0,3.7-1.4l66.3-56.8A5.64,5.64,0,0,0,208.52,269.67Z"/><path class="cls-1" d="M470.52,324.37h-95.9l-64.7-55.5a6.4,6.4,0,0,0-3.7-1.3,5.71,5.71,0,0,0-4.4,2l-.1.1a5.78,5.78,0,0,0,.7,8l66.3,56.8a5.88,5.88,0,0,0,3.7,1.4h98a6,6,0,0,0,4.2-1.8,5.26,5.26,0,0,0,1.5-4.1A5.47,5.47,0,0,0,470.52,324.37Z"/><path class="cls-2" d="M344.11,290.81a96.4,96.4,0,0,0-.08-71.88l21.55-18.41a123.42,123.42,0,0,1,.12,109Z"/><path class="cls-3" d="M364.54,205.35a120.39,120.39,0,0,1,.13,99.3l-17-14.72a99.5,99.5,0,0,0-.06-70.11l16.93-14.47m2-9.58-26.1,22.3A92.6,92.6,0,0,1,348,255a93.67,93.67,0,0,1-7.5,36.7l26.1,22.6a125,125,0,0,0,14.7-59.1,126.26,126.26,0,0,0-14.8-59.4Z"/><path class="cls-2" d="M156.79,180.9A123.77,123.77,0,0,1,252.12,132v27.21a96,96,0,0,0-74.56,39.44Z"/><path class="cls-3" d="M249.12,135.12v21.23a99,99,0,0,0-72,38l-16.17-13.82a120,120,0,0,1,88.2-45.36m6-6.15a126.07,126.07,0,0,0-102.4,52.4l25.4,21.7a92.93,92.93,0,0,1,77-40.9V129Z"/><path class="cls-2" d="M144.55,309.62a123.52,123.52,0,0,1,.19-109.21l21.57,18.51a96.12,96.12,0,0,0-.11,72.19Z"/><path class="cls-3" d="M145.76,205.24l17,14.57a99.16,99.16,0,0,0-.1,70.41l-17,14.57a120.61,120.61,0,0,1,.18-99.55m-1.94-9.57a126.4,126.4,0,0,0-.2,118.7l26.2-22.4a92.11,92.11,0,0,1-7.6-36.8,93.26,93.26,0,0,1,7.7-37.1l-26.1-22.4Z"/><path class="cls-2" d="M255.12,378.27a123.56,123.56,0,0,1-98.64-49.33l20.86-17.83A95.83,95.83,0,0,0,333,311l20.86,17.83A123.7,123.7,0,0,1,255.12,378.27Z"/><path class="cls-3" d="M333.48,315.37l16.26,13.9a120.21,120.21,0,0,1-189.14.1l16.25-13.9a98.82,98.82,0,0,0,156.63-.1m-1.06-8.8a92.83,92.83,0,0,1-154.5.1l-25.5,21.8a126.31,126.31,0,0,0,205.5-.1l-25.5-21.8Z"/><path class="cls-2" d="M332.79,198.84a95.64,95.64,0,0,0-62.33-38.43l3.36-27a123.16,123.16,0,0,1,79.73,47.74Z"/><path class="cls-3" d="M276.41,136.83a120.21,120.21,0,0,1,73,43.84l-16.17,13.81a98.64,98.64,0,0,0-59.48-36.54l2.62-21.11M271.22,130l-4.1,33,.1,0a92.65,92.65,0,0,1,65,40.3l25.4-21.7a125.79,125.79,0,0,0-86.4-51.6Z"/><path class="cls-1" d="M311.72,242.57a8.59,8.59,0,0,1-5.3,1.9,8.26,8.26,0,0,1-6-2.6l-.1-.1-.1-.1a8.27,8.27,0,0,1,.9-11.7l23.7-20.3a83.32,83.32,0,0,0-58.8-37l1.2-9.69h-.1a92.64,92.64,0,0,0-11.9-.8V172a83,83,0,0,0-69.5,37.6l23.7,20.3a8.19,8.19,0,0,1,1.1,11.4,8.12,8.12,0,0,1-11.8,1.2l-20.8-17.8a82.86,82.86,0,0,0-.2,60.4l21-18a8.13,8.13,0,0,1,5.3-2,8.51,8.51,0,0,1,6.3,2.9,8.27,8.27,0,0,1-.9,11.7l-24,20.6a83,83,0,0,0,139.4,0l-24-20.6a8.3,8.3,0,0,1-1.1-11.5l.1-.1.1-.1a8.51,8.51,0,0,1,6.3-2.9,8.22,8.22,0,0,1,5.2,1.8l.1.1.1.1,21,18a83.27,83.27,0,0,0-.1-60.3Zm-62.5,19.3a3.34,3.34,0,0,1-2.3.9,3.25,3.25,0,0,1-2.4-1l-1.9-2v33.4a3.3,3.3,0,0,1-6.6,0v-33.4l-1.9,2a3.1,3.1,0,0,1-2.4,1,3.52,3.52,0,0,1-2.3-.9,3.29,3.29,0,0,1-.1-4.6l7.5-7.8c.1-.1.1-.1.2-.1l.1-.1c.1,0,.1-.1.2-.1a.37.37,0,0,1,.3-.1h.1c.1,0,.1-.1.2-.1h.1c.1,0,.2-.1.3-.1a.35.35,0,0,0,.2-.1h1.4c.1,0,.2.1.3.1s.2.1.3.1h.1c.1,0,.1.1.2.1h.1c.1,0,.2.1.3.1s.1.1.2.1l.1.1c.1,0,.1.1.2.1l7.5,7.8A3.2,3.2,0,0,1,249.22,261.87Zm31.7-28.9a3.34,3.34,0,0,1-2.3.9,3.25,3.25,0,0,1-2.4-1l-1.9-2v33.4a3.3,3.3,0,0,1-6.6,0v-33.4l-1.9,2a3.1,3.1,0,0,1-2.4,1,3.52,3.52,0,0,1-2.3-.9,3.29,3.29,0,0,1-.1-4.6l7.5-7.8c.1-.1.1-.1.2-.1l.1-.1c.1,0,.1-.1.2-.1a.37.37,0,0,1,.3-.1h.1c.1,0,.1-.1.2-.1h.1c.1,0,.2-.1.3-.1a.35.35,0,0,0,.2-.1h1.4c.1,0,.2.1.3.1s.2.1.3.1h.1c.1,0,.1.1.2.1h.1c.1,0,.2.1.3.1s.1.1.2.1l.1.1c.1,0,.1.1.2.1l7.5,7.8A3.2,3.2,0,0,1,280.92,233Z"/></svg>