<?xml version="1.0" ?><!DOCTYPE svg  PUBLIC '-//W3C//DTD SVG 1.1//EN'  'http://www.w3.org/Graphics/SVG/1.1/DTD/svg11.dtd'><svg height="512px" style="enable-background:new 0 0 512 512;" version="1.1" viewBox="0 0 512 512" width="512px" xml:space="preserve" xmlns="http://www.w3.org/2000/svg" xmlns:xlink="http://www.w3.org/1999/xlink"><g id="C_-_176_x2C__workflow_x2C__workflow_planning_x2C__Business_x2C__modern_x2C__planning"><g><rect height="31.756" width="33.843" x="47.311" y="434.076"/><rect height="31.756" width="71.627" x="220.058" y="434.076"/><rect height="31.749" width="33.838" x="431.094" y="46.169"/><rect height="31.749" width="33.843" x="47.311" y="46.169"/><rect height="31.749" width="71.627" x="220.058" y="46.169"/><rect height="31.756" width="33.838" x="431.094" y="434.076"/><path d="M468.477,377.633l-16.027,11.233V256.001V122.959l16.283,11.41c0.818,0.574,1.756,0.849,2.686,0.849    c1.476,0,2.93-0.696,3.84-1.997c1.486-2.12,0.972-5.041-1.148-6.526l-23.408-16.403c-0.03-0.022-0.066-0.034-0.098-0.055    c-0.143-0.095-0.293-0.172-0.445-0.25c-0.128-0.067-0.254-0.138-0.385-0.192c-0.133-0.053-0.271-0.089-0.406-0.13    c-0.157-0.047-0.313-0.1-0.472-0.13c-0.128-0.024-0.259-0.031-0.39-0.045c-0.167-0.017-0.334-0.039-0.502-0.039    c-0.049,0-0.097,0.001-0.146,0.002c-0.031,0-0.061-0.009-0.094-0.009c-1.391,0-2.626,0.618-3.484,1.581l-22.357,15.67    c-2.119,1.485-2.633,4.407-1.147,6.527c0.912,1.3,2.364,1.996,3.841,1.996c0.929,0,1.867-0.276,2.686-0.849l15.777-11.059v128.006    h-30.723v-70.862c0-2.588-2.098-4.686-4.686-4.686H260.555v-52.634l16.033,11.235c0.818,0.574,1.756,0.849,2.685,0.849    c1.477,0,2.93-0.696,3.841-1.997c1.484-2.119,0.971-5.041-1.148-6.526l-23.406-16.403c-0.012-0.007-0.023-0.012-0.035-0.019    c-0.033-0.023-0.068-0.043-0.102-0.066c-0.127-0.082-0.261-0.144-0.394-0.213c-0.019-0.01-0.038-0.021-0.058-0.031    c-0.088-0.044-0.17-0.103-0.26-0.141c-0.032-0.014-0.066-0.022-0.098-0.035c-0.131-0.052-0.266-0.084-0.398-0.125    c-0.129-0.04-0.255-0.092-0.386-0.119c-0.029-0.005-0.059-0.006-0.087-0.012c-0.13-0.025-0.262-0.029-0.394-0.043    c-0.147-0.015-0.294-0.041-0.442-0.042c-0.012,0-0.023-0.003-0.036-0.003c-0.014,0-0.026,0.003-0.04,0.003    c-0.134,0.002-0.267,0.025-0.399,0.038c-0.146,0.014-0.292,0.02-0.438,0.048c-0.028,0.004-0.058,0.006-0.086,0.012    c-0.122,0.026-0.239,0.075-0.358,0.111c-0.143,0.042-0.287,0.078-0.426,0.133c-0.031,0.013-0.065,0.021-0.096,0.035    c-0.087,0.038-0.167,0.094-0.253,0.137c-0.018,0.009-0.036,0.02-0.053,0.029c-0.137,0.07-0.275,0.134-0.404,0.219    c-0.034,0.022-0.069,0.042-0.102,0.065c-0.011,0.007-0.023,0.012-0.034,0.019l-23.402,16.403c-2.12,1.485-2.633,4.407-1.148,6.527    c0.912,1.3,2.364,1.996,3.841,1.996c0.929,0,1.867-0.276,2.685-0.849l16.027-11.234v52.633H104.072    c-2.587,0-4.686,2.098-4.686,4.686v70.862H68.666V122.956l16.282,11.413c0.818,0.574,1.756,0.849,2.685,0.849    c1.476,0,2.93-0.696,3.841-1.996c1.485-2.12,0.972-5.042-1.147-6.527l-23.402-16.403c-0.031-0.021-0.065-0.033-0.096-0.054    c-0.148-0.098-0.304-0.178-0.46-0.258c-0.122-0.062-0.242-0.131-0.366-0.182c-0.143-0.059-0.29-0.097-0.438-0.141    c-0.146-0.043-0.291-0.093-0.439-0.121c-0.141-0.027-0.283-0.035-0.427-0.049c-0.155-0.016-0.309-0.037-0.464-0.037    c-0.054,0-0.107,0.001-0.162,0.003c-0.031-0.001-0.059-0.009-0.091-0.009c-1.395,0-2.634,0.622-3.492,1.589l-22.35,15.662    c-2.119,1.485-2.633,4.407-1.148,6.526c0.912,1.301,2.365,1.997,3.842,1.997c0.928,0,1.866-0.275,2.685-0.849l15.778-11.057    v132.689v132.865l-16.027-11.233c-2.119-1.485-5.042-0.971-6.526,1.147c-1.485,2.12-0.972,5.042,1.148,6.527l23.402,16.401    c0.008,0.007,0.018,0.011,0.027,0.017c0.186,0.128,0.378,0.243,0.578,0.342c0.046,0.022,0.093,0.039,0.139,0.061    c0.01,0.004,0.021,0.009,0.032,0.014c0.054,0.024,0.108,0.049,0.163,0.071c0.087,0.034,0.174,0.066,0.262,0.096    c0.076,0.025,0.152,0.048,0.228,0.068c0.085,0.024,0.17,0.048,0.256,0.067c0.052,0.012,0.105,0.019,0.157,0.028    c0.073,0.013,0.146,0.028,0.22,0.038c0.196,0.026,0.394,0.043,0.591,0.044c0.01,0.001,0.021,0.003,0.031,0.003    c0.001,0,0.002,0,0.003,0h0.001c0.001,0,0.001,0,0.002,0s0.002,0,0.002,0c0.011,0,0.021-0.002,0.031-0.003    c0.199-0.001,0.396-0.018,0.592-0.044c0.073-0.01,0.146-0.025,0.219-0.038c0.052-0.01,0.105-0.017,0.157-0.028    c0.087-0.02,0.172-0.043,0.258-0.067c0.075-0.021,0.15-0.043,0.225-0.067c0.089-0.029,0.177-0.063,0.264-0.097    c0.056-0.022,0.108-0.047,0.163-0.071c0.013-0.006,0.025-0.011,0.038-0.016c0.044-0.021,0.089-0.037,0.132-0.058    c0.201-0.1,0.396-0.216,0.583-0.345c0.008-0.005,0.017-0.009,0.024-0.015l23.407-16.401c2.12-1.485,2.634-4.406,1.148-6.526    c-1.484-2.119-4.405-2.631-6.525-1.148l-16.033,11.235V260.687h30.721v70.854c0,2.588,2.099,4.685,4.686,4.685h147.111v52.817    l-16.284-11.41c-2.119-1.486-5.041-0.971-6.526,1.148c-1.485,2.12-0.971,5.042,1.148,6.526l23.409,16.401    c0.008,0.006,0.018,0.01,0.025,0.015c0.186,0.129,0.379,0.244,0.58,0.344c0.047,0.022,0.097,0.041,0.146,0.063    c0.147,0.067,0.296,0.128,0.449,0.179c0.078,0.025,0.155,0.049,0.232,0.069c0.133,0.038,0.269,0.068,0.405,0.093    c0.075,0.015,0.15,0.03,0.226,0.04c0.195,0.026,0.393,0.043,0.59,0.044c0.01,0.001,0.021,0.003,0.031,0.003c0,0,0.002,0,0.003,0    c0.002,0,0.003,0,0.005,0c0.01,0,0.02-0.002,0.03-0.003c0.04,0,0.08-0.005,0.121-0.006c0.032,0,0.061,0.009,0.093,0.009    c1.391,0,2.627-0.618,3.484-1.58l22.356-15.67c2.118-1.485,2.632-4.407,1.147-6.527c-1.486-2.118-4.407-2.632-6.527-1.147    l-15.775,11.058v-52.465H407.67c2.588,0,4.686-2.097,4.686-4.685v-70.854h30.723v128.182l-16.034-11.235    c-2.118-1.485-5.04-0.972-6.526,1.148c-1.484,2.12-0.971,5.042,1.148,6.526l23.41,16.401c0.008,0.006,0.017,0.01,0.025,0.016    c0.014,0.01,0.026,0.021,0.04,0.03c0.002,0.001,0.003,0.002,0.003,0.003c0.173,0.116,0.352,0.218,0.536,0.309    c0.048,0.023,0.097,0.042,0.145,0.063c0.009,0.004,0.017,0.008,0.026,0.012c0.055,0.024,0.107,0.049,0.164,0.071    c0.086,0.034,0.173,0.066,0.261,0.096c0.075,0.025,0.153,0.049,0.23,0.069c0.085,0.024,0.169,0.048,0.255,0.066    c0.052,0.012,0.104,0.019,0.156,0.028c0.074,0.013,0.146,0.029,0.221,0.038c0.196,0.026,0.395,0.043,0.595,0.045    c0.009,0,0.019,0.002,0.027,0.002c0.001,0,0.001,0,0.001,0c0.002,0,0.002,0,0.002,0h0.002h0.002c0.01,0,0.019-0.002,0.027-0.002    c0.2-0.002,0.398-0.019,0.596-0.045c0.074-0.01,0.146-0.025,0.219-0.038c0.053-0.01,0.105-0.017,0.158-0.028    c0.086-0.02,0.172-0.043,0.257-0.067c0.076-0.021,0.151-0.043,0.228-0.067c0.088-0.03,0.174-0.063,0.262-0.097    c0.055-0.022,0.108-0.047,0.163-0.071c0.011-0.005,0.021-0.009,0.029-0.013c0.048-0.022,0.097-0.039,0.144-0.063    c0.184-0.091,0.361-0.192,0.533-0.309c0.002-0.001,0.002-0.001,0.002-0.002c0.014-0.008,0.025-0.02,0.04-0.029    c0.009-0.006,0.021-0.011,0.028-0.018l23.402-16.401c2.119-1.485,2.633-4.407,1.148-6.527    C473.518,376.662,470.598,376.15,468.477,377.633z M245.775,245.94h20.208v20.121h-20.208V245.94z M215.387,245.94v20.121h-20.215    V245.94H215.387z M144.569,245.94h20.215v20.121h-20.215V245.94z M296.371,266.061V245.94h20.215v20.121H296.371z     M367.182,266.061h-20.209V245.94h20.209V266.061z"/></g></g><g id="Layer_1"/></svg>