<?xml version="1.0" encoding="utf-8"?>
<!-- Generator: Adobe Illustrator 24.1.3, SVG Export Plug-In . SVG Version: 6.00 Build 0)  -->
<svg version="1.1" id="Layer_1" xmlns="http://www.w3.org/2000/svg" xmlns:xlink="http://www.w3.org/1999/xlink" x="0px" y="0px"
	 viewBox="0 0 510.2 510.2" style="enable-background:new 0 0 510.2 510.2;" xml:space="preserve">
<style type="text/css">
	.st0{fill:#D81B60;}
	.st1{fill:#FFFFFF;stroke:#1D1D1B;stroke-width:8;stroke-miterlimit:10;}
	.st2{fill:#FFFFFF;}
</style>
<g id="C_-_176_workflow_workflow_planning_Business_modern_planning">
	<path class="st0" d="M57.5,433.2h11.7c6.1,0,11.1,5,11.1,11.1v9.6c0,6.1-5,11.1-11.1,11.1H57.5c-6.1,0-11.1-5-11.1-11.1v-9.6
		C46.4,438.1,51.4,433.2,57.5,433.2z"/>
	<path class="st0" d="M230.2,433.2h49.5c6.1,0,11.1,5,11.1,11.1v9.6c0,6.1-5,11.1-11.1,11.1h-49.5c-6.1,0-11.1-5-11.1-11.1v-9.6
		C219.2,438.1,224.1,433.2,230.2,433.2z"/>
	<path class="st0" d="M441.3,45.3H453c6.1,0,11.1,5,11.1,11.1V66c0,6.1-5,11.1-11.1,11.1h-11.7c-6.1,0-11.1-5-11.1-11.1v-9.6
		C430.2,50.2,435.2,45.3,441.3,45.3z"/>
	<path class="st0" d="M57.5,45.3h11.7c6.1,0,11.1,5,11.1,11.1V66c0,6.1-5,11.1-11.1,11.1H57.5c-6.1,0-11.1-5-11.1-11.1v-9.6
		C46.4,50.2,51.4,45.3,57.5,45.3z"/>
	<path class="st0" d="M230.2,45.3h49.5c6.1,0,11.1,5,11.1,11.1V66c0,6.1-5,11.1-11.1,11.1h-49.5c-6.1,0-11.1-5-11.1-11.1v-9.6
		C219.2,50.2,224.1,45.3,230.2,45.3z"/>
	<path class="st0" d="M441.3,433.2H453c6.1,0,11.1,5,11.1,11.1v9.6c0,6.1-5,11.1-11.1,11.1h-11.7c-6.1,0-11.1-5-11.1-11.1v-9.6
		C430.2,438.1,435.2,433.2,441.3,433.2z"/>
	<path d="M467.6,376.8l-16,11.2V122.1l16.3,11.4c2.2,1.4,5.1,0.8,6.5-1.3c1.4-2.1,0.9-4.9-1.1-6.4l-23.4-16.4c0,0-0.1,0-0.1-0.1
		c-0.1-0.1-0.3-0.2-0.4-0.3l-0.4-0.2l-0.4-0.1c-0.2,0-0.3-0.1-0.5-0.1h-0.4c-0.2,0-0.3,0-0.5,0h-0.2c-1.3,0-2.6,0.6-3.5,1.6
		L421,125.8c-2.2,1.4-2.7,4.3-1.3,6.5s4.3,2.7,6.5,1.3c0.1,0,0.1-0.1,0.2-0.1l15.8-11.1v128h-30.7v-70.9c0-2.6-2.1-4.7-4.7-4.7
		c0,0,0,0,0,0H259.7v-52.6l16,11.2c2.2,1.4,5.1,0.8,6.5-1.3c1.4-2.1,0.9-4.9-1.1-6.4l-23.4-16.4l0,0l-0.1-0.1
		c-0.1-0.1-0.3-0.1-0.4-0.2h-0.1l-0.3-0.1h-0.1c-0.1-0.1-0.3-0.1-0.4-0.1s-0.3-0.1-0.4-0.1h-0.1c-0.1,0-0.3,0-0.4,0
		c-0.1,0-0.3,0-0.4,0h0h-0.4c-0.1,0-0.3,0-0.4,0.1H254l-0.4,0.1c-0.1,0-0.3,0.1-0.4,0.1h-0.1l-0.3,0.1l0,0c-0.1,0.1-0.3,0.1-0.4,0.2
		l-0.1,0.1l0,0L229,125.9c-2.2,1.4-2.8,4.3-1.4,6.5c1.4,2.2,4.3,2.8,6.5,1.4c0.1-0.1,0.2-0.2,0.3-0.2l16-11.2V175H103.2
		c-2.6,0-4.7,2.1-4.7,4.7c0,0,0,0,0,0v70.9H67.8V122.1l16.3,11.4c2.2,1.4,5.1,0.8,6.5-1.3c1.4-2.1,0.9-4.9-1.1-6.4L66,109.4h-0.1
		c-0.2-0.1-0.3-0.2-0.5-0.3l-0.4-0.2c-0.1-0.1-0.3-0.1-0.4-0.2s-0.3-0.1-0.4-0.1l-0.4-0.1c-0.2,0-0.3,0-0.5,0h-0.2
		c-1.3,0-2.6,0.6-3.5,1.6l-22.3,15.6c-2.2,1.4-2.7,4.3-1.3,6.5s4.3,2.7,6.5,1.3c0.1,0,0.1-0.1,0.2-0.1l15.8-11.1V388l-16-11.2
		c-2.1-1.5-5-1-6.5,1.1c-1.5,2.1-1,5,1.1,6.5l23.4,16.4l0,0c0.2,0.1,0.4,0.2,0.6,0.3l0.1,0.1l0,0l0.2,0.1l0.3,0.1l0.2,0.1l0.3,0.1
		h0.2h0.2c0.2,0,0.4,0,0.6,0h0.1c0.2,0,0.4,0,0.6,0h0.2H64l0.3-0.1l0.2-0.1l0.3-0.1l0.2-0.1l0,0l0.1,0c0.2-0.1,0.4-0.2,0.6-0.4l0,0
		l23.6-16.4c2.1-1.5,2.6-4.4,1.1-6.5c-1.5-2.1-4.4-2.6-6.5-1.1l0,0l-16,11.3V259.8h30.7v70.9c0,2.6,2.1,4.7,4.7,4.7h147.1v52.8
		L234,376.8c-2.1-1.5-5-1-6.5,1.1c-1.5,2.1-1,5,1.1,6.5l23.4,16.4l0,0c0.2,0.1,0.4,0.2,0.6,0.3l0.1,0.1l0.4,0.2l0.2,0.1l0.4,0.1h0.2
		c0.2,0,0.4,0,0.6,0h0.4c1.3,0,2.6-0.6,3.5-1.6l22.4-15.7c2.1-1.5,2.5-4.5,1-6.6c-1.5-2-4.3-2.5-6.4-1.1l-15.8,11.1v-52.4h147.1
		c2.6,0,4.7-2.1,4.7-4.7v-70.9h30.7V388l-16-11.2c-2.2-1.4-5.1-0.8-6.5,1.3c-1.4,2.1-0.9,4.9,1.1,6.4l23.4,16.4l0,0l0,0l0,0
		c0.2,0.1,0.4,0.2,0.5,0.3l0.1,0.1l0,0l0.2,0.1l0.3,0.1l0.2,0.1l0.3,0.1h0.1h0.2c0.2,0,0.4,0,0.6,0h0.1c0.2,0,0.4,0,0.6,0h0.2h0.1
		l0.3-0.1l0.2-0.1l0.3-0.1l0.2-0.1l0,0l0.1-0.1c0.2-0.1,0.4-0.2,0.5-0.3l0,0l0,0l0,0l23.4-16.4c2.2-1.4,2.7-4.3,1.3-6.5
		s-4.3-2.7-6.5-1.3c-0.1,0-0.1,0.1-0.2,0.1L467.6,376.8z M244.9,245.1h20.2v20.1h-20.2V245.1z M214.5,245.1v20.1h-20.2v-20.1H214.5z
		 M143.7,245.1h20.2v20.1h-20.2V245.1z M295.5,265.2v-20.1h20.2v20.1H295.5z M366.3,265.2h-20.2v-20.1h20.2V265.2z"/>
</g>
<path class="st1" d="M106.5,172H403c6,0,10.9,4.9,10.9,10.9v144.1c0,6-4.9,10.9-10.9,10.9H106.5c-6,0-10.9-4.9-10.9-10.9V182.8
	C95.7,176.8,100.5,172,106.5,172z"/>
<path class="st0" d="M130.6,237.1h11.7c6.1,0,11.1,5,11.1,11.1v9.6c0,6.1-5,11.1-11.1,11.1h-11.7c-6.1,0-11.1-5-11.1-11.1v-9.6
	C119.5,242,124.5,237.1,130.6,237.1z"/>
<path class="st0" d="M170.3,237.1H182c6.1,0,11.1,5,11.1,11.1v9.6c0,6.1-5,11.1-11.1,11.1h-11.7c-6.1,0-11.1-5-11.1-11.1v-9.6
	C159.3,242,164.2,237.1,170.3,237.1z"/>
<path class="st0" d="M210.1,237.1h11.7c6.1,0,11.1,5,11.1,11.1v9.6c0,6.1-5,11.1-11.1,11.1h-11.7c-6.1,0-11.1-5-11.1-11.1v-9.6
	C199.1,242,204,237.1,210.1,237.1z"/>
<path class="st0" d="M249.9,237.1h11.7c6.1,0,11.1,5,11.1,11.1v9.6c0,6.1-5,11.1-11.1,11.1h-11.7c-6.1,0-11.1-5-11.1-11.1v-9.6
	C238.8,242,243.8,237.1,249.9,237.1z"/>
<path class="st0" d="M289.7,237.1h11.7c6.1,0,11.1,5,11.1,11.1v9.6c0,6.1-5,11.1-11.1,11.1h-11.7c-6.1,0-11.1-5-11.1-11.1v-9.6
	C278.6,242,283.5,237.1,289.7,237.1z"/>
<path class="st0" d="M329.4,237.1h11.7c6.1,0,11.1,5,11.1,11.1v9.6c0,6.1-5,11.1-11.1,11.1h-11.7c-6.1,0-11.1-5-11.1-11.1v-9.6
	C318.4,242,323.3,237.1,329.4,237.1z"/>
<path class="st0" d="M369.2,237.1h11.7c6.1,0,11.1,5,11.1,11.1v9.6c0,6.1-5,11.1-11.1,11.1h-11.7c-6.1,0-11.1-5-11.1-11.1v-9.6
	C358.1,242,363.1,237.1,369.2,237.1z"/>
<g>
	<path class="st0" d="M85.1,102.3H41.6c-10.7,0-19.3-8.6-19.3-19.3V39.4c0-10.7,8.6-19.3,19.3-19.3h43.6c10.7,0,19.3,8.6,19.3,19.3
		V83C104.5,93.6,95.8,102.3,85.1,102.3z"/>
	<path class="st2" d="M49.6,41.1h-6.8v-5.2h26c8.9,0,14.1,4.5,14.1,13.3c0,5.7-2.3,9.5-6.3,11.6c4.8,1.8,7.4,6,7.4,12.2
		c0,8.8-5.2,13.3-14.1,13.3H42.7v-5.2h6.8V41.1z M55.6,58.5h12.2c6.1,0,9-3,9-8.7c0-5.6-3-8.6-8.9-8.6H55.6V58.5z M55.6,81.2h13.3
		c6,0,9-3,9-8.7c0-5.7-3-8.8-8.9-8.8H55.6V81.2z"/>
</g>
<g>
	<path class="st0" d="M277.5,490.2h-43.6c-10.7,0-19.3-8.6-19.3-19.3v-43.6c0-10.7,8.6-19.3,19.3-19.3h43.6
		c10.7,0,19.3,8.6,19.3,19.3v43.6C296.8,481.5,288.2,490.2,277.5,490.2z"/>
	<path class="st2" d="M232.6,423.9h25.8c9.8,0,16.1,4.8,16.1,14.8c0,8.6-4.6,13.4-12,14.6l9.2,15.8h7.2v5.2h-11.1l-12-20.7h-10.4
		v15.5h7.6v5.2h-20.4v-5.2h6.8V429h-6.8V423.9z M245.4,448.4h12.8c6.2,0,10.2-3.1,10.2-9.7c0-6.6-4-9.7-10.2-9.7h-12.8V448.4z"/>
</g>
<g>
	<path class="st0" d="M465.9,102.3h-43.6c-10.7,0-19.3-8.6-19.3-19.3V39.4c0-10.7,8.6-19.3,19.3-19.3h43.6
		c10.7,0,19.3,8.6,19.3,19.3V83C485.2,93.6,476.6,102.3,465.9,102.3z"/>
	<path class="st2" d="M429.8,41.1h-6.8v-5.2h39.4v14.4h-6v-9.2h-20.6v17.4h18.7v5.2h-18.7v17.5h20.6V72h6v14.4h-39.4v-5.2h6.8V41.1z
		"/>
</g>
</svg>
