<?xml version="1.0" encoding="utf-8"?>
<!-- Generator: Adobe Illustrator 24.1.3, SVG Export Plug-In . SVG Version: 6.00 Build 0)  -->
<svg version="1.1" id="Layer_1" xmlns="http://www.w3.org/2000/svg" xmlns:xlink="http://www.w3.org/1999/xlink" x="0px" y="0px"
	 viewBox="0 0 510.2 510.2" style="enable-background:new 0 0 510.2 510.2;" xml:space="preserve">
<style type="text/css">
	.st0{fill:#FFFFFF;stroke:#1D1D1B;stroke-width:6;stroke-miterlimit:10;}
	.st1{fill:#D81B60;}
	.st2{fill-rule:evenodd;clip-rule:evenodd;}
	.st3{fill-rule:evenodd;clip-rule:evenodd;fill:#D81B60;}
</style>
<path class="st0" d="M260.1,48.9c-31.7-31.7-83.1-31.7-114.7,0c-15.2,15.2-23.7,35.8-23.8,57.3c0,24.5,14.7,47.5,33.1,68.8l1.9,2.1
	l0.5,0.5l0.3,0.4l1.1,1.2l0.3,0.3l0.2,0.2l0.5,0.6l0.5,0.5l0.2,0.2l0.2,0.3l0.5,0.5l0.5,0.5l0.1,0.1l0.3,0.4l0.5,0.5l1,1l0.5,0.5
	l0.5,0.5v0.1l0.5,0.5l0.5,0.5l0.5,0.5l0,0l0.5,0.5l0.5,0.5l0.4,0.4l0.1,0.1l0.5,0.5l0.5,0.5l0.3,0.3l0.1,0.1l0.5,0.5l0.5,0.5
	l0.3,0.3l0.2,0.2l0.5,0.5l0.5,0.5l0.2,0.2l0.3,0.3l0.5,0.5l0.5,0.5l0.1,0.1l0.4,0.4l0.5,0.5l0.5,0.5l0.1,0.1l0.4,0.4l0.5,0.5
	l0.5,0.5l0.5,0.5l0.5,0.5l0.4,0.4l0.1,0.1l1,1l0.4,0.4l0.1,0.2l0.5,0.5l0.5,0.5l0.3,0.3l0.2,0.2l0.5,0.5l4.9,4.9
	c6.1,6.1,12,12,17.5,17.7c5.4-5.7,11.3-11.6,17.4-17.7c11.4-11.3,23.4-23.2,33.9-35.8l0,0l0,0V171l0,0l0,0l0,0l0,0l0,0
	c16.8-20.1,29.6-41.7,29.6-64.6C283.7,84.9,275.3,64.2,260.1,48.9z M236.6,137.8c-19.1,18.4-49.4,17.8-67.8-1.2
	c-17.9-18.6-17.9-48,0-66.5l0.2-0.2c19-18.4,49.4-17.9,67.8,1.2C254.9,89.6,254.8,119.2,236.6,137.8L236.6,137.8z"/>
<path class="st1" d="M202.8,72.2c-8.3,0-16.4,3.3-22.3,9.1l-0.1,0.2c-12.4,12.4-12.4,32.5,0,44.9c12.4,12.4,32.5,12.4,44.9,0
	c12.4-12.4,12.4-32.5,0-44.9C219.3,75.5,211.2,72.2,202.8,72.2z"/>
<path class="st2" d="M309,106.9c-1.8-1-2.4-3.3-1.4-5.1c1-1.8,3.3-2.4,5.1-1.4l31.6,18.2l44.9-25.9c1.7-1.1,4-0.6,5.1,1.2
	s0.6,4-1.2,5.1c-0.1,0.1-0.2,0.1-0.2,0.1l-46.5,26.9c-1.2,0.8-2.7,0.8-3.9,0.1L309,106.9z"/>
<path class="st2" d="M110.1,472.8c-2.1,0-3.8-1.7-3.8-3.8s1.7-3.8,3.8-3.8h202.6c2.1,0,3.8,1.7,3.8,3.8s-1.7,3.8-3.8,3.8H110.1z"/>
<path class="st2" d="M228.8,485.1c-2.1,0-3.7-1.7-3.7-3.7c0-2.1,1.7-3.7,3.7-3.7c0,0,0,0,0,0H369c2.1,0,3.7,1.7,3.7,3.7
	c0,2.1-1.7,3.7-3.7,3.7c0,0,0,0,0,0H228.8z"/>
<path class="st2" d="M383.4,485.1c-2.1,0-3.7-1.7-3.7-3.7c0-2.1,1.7-3.7,3.7-3.7c0,0,0,0,0,0h17.5c2.1,0,3.7,1.7,3.7,3.7
	c0,2.1-1.7,3.7-3.7,3.7c0,0,0,0,0,0H383.4z"/>
<path class="st2" d="M102.2,484.8c-2.1,0-3.8-1.7-3.8-3.8s1.7-3.8,3.8-3.8h66.4c2.1,0,3.8,1.7,3.8,3.8s-1.7,3.8-3.8,3.8H102.2z"/>
<path d="M405.8,139.1l-0.1,272.3L346,436.7V164.4L405.8,139.1 M379.6,378.7c-2.5,0-4.8,1.1-6.4,3c-1.3,1.5-2,3.4-2.1,5.3
	c-0.2-1.9-0.9-3.7-2.1-5.1c-1.6-1.9-4-3-6.5-3c-1.9-0.1-3.8-0.1-5.6-0.3h-0.4c-2.5-0.1-5,1-6.7,2.8c-3.4,3.7-3.1,9.3,0.5,12.7
	c1.6,1.5,3.6,2.3,5.7,2.4l5.9,0.2h0.2c4.8,0.1,8.8-3.6,9-8.3c0.3,4.7,4.2,8.3,8.9,8.3h0.3l5.9-0.3c4.9-0.6,8.4-5.1,7.8-10
	c-0.5-4.3-4-7.6-8.3-7.9h-0.3L379.6,378.7 M411.8,130.1L340,160.4v285.3l71.7-30.3L411.8,130.1L411.8,130.1z M380,390.6
	c-3.8,0-4-5.9-0.2-5.9l5.9-0.3c4.3,0,3.9,5.9,0.3,5.9L380,390.6L380,390.6z M362.1,390.7l-6-0.2c-3.5,0-4-5.9,0.3-5.9
	c2,0.1,3.9,0.2,5.9,0.3C365.9,384.8,366.2,390.7,362.1,390.7L362.1,390.7z"/>
<path d="M247.3,198.7v69.7c-0.9,0.3-1.8,0.7-2.6,1.3c0.7-0.8,1.2-1.8,1.5-2.8c1.2-3.6,0-7.5-3-9.8c-1.7-1.3-3.5-2.6-5.4-3.9
	l-0.1-0.1l-0.1-0.1c-1.4-0.9-3.1-1.4-4.8-1.4c-3,0-5.8,1.6-7.4,4.1c0.1-0.4,0.2-0.7,0.3-1.1c0.8-4.3-1.5-8.5-5.6-10l-0.2-0.1
	l-0.2-0.1c-2.4-0.8-4.4-1.3-6.3-1.8h-0.1H213c-0.6-0.1-1.2-0.2-1.9-0.2c-5,0.2-8.8,4.4-8.6,9.4c0.2,4,2.9,7.3,6.7,8.3
	c1.4,0.3,2.8,0.8,4.3,1.2l0.5,0.2c0.9,0.3,1.9,0.5,2.9,0.5c3,0,5.8-1.6,7.4-4.1c0,0.1-0.1,0.2-0.1,0.4c-1.1,3.8,0.5,7.8,3.8,9.9
	c1.6,1,2.9,2,4.1,2.9l0.1,0.1l0.1,0.1c1.6,1.2,3.5,1.8,5.4,1.9c1.8,0,3.6-0.6,5.1-1.7c-0.4,0.5-0.7,1-1,1.5c-1.5,3-1.2,6.5,0.8,9.2
	c0.9,1.3,2,2.8,2.9,4.4c0.5,0.7,1,1.4,1.7,2v122.8l-59.6,25.1l-0.2-208.4c2.8,2.9,5.5,5.6,8,8.3l0.2,0.2l0.2,0.2l0.2,0.2
	c4,3.6,10.1,3.4,13.8-0.6c5.8-6.2,12.4-12.8,19.8-20.2C235,211.2,241.1,205.1,247.3,198.7 M253.3,183.4c-9,10-18.6,19.6-27.8,28.8
	c-7.1,7-14,13.9-20,20.4c-1.4,1.5-3.8,1.6-5.3,0.2l-0.2-0.3c-5.6-6-11.9-12.3-18.5-18.9l0.2,232l71.5-30.2V284.8H253
	c-1,0-1.9-0.5-2.4-1.4c-1-1.6-2.1-3.2-3.2-4.8c-1-1.3-0.6-3.2,0.7-4.2c0.5-0.4,1.1-0.6,1.8-0.6c0.9,0,1.8,0.5,2.3,1.2l1,1.4
	L253.3,183.4L253.3,183.4z M217,256.1c-0.3,0-0.7-0.1-1-0.2c-1.8-0.6-3.6-1.1-5.5-1.6c-3.3-0.7-2.8-5.8,0.6-5.8c0.2,0,0.5,0,0.7,0.1
	c2,0.5,3.9,1.1,5.9,1.7c1.6,0.6,2.4,2.3,1.8,3.8C219.2,255.2,218.2,256,217,256.1L217,256.1z M237.7,267.1c-0.7,0-1.3-0.2-1.8-0.7
	c-1.5-1.2-3-2.3-4.6-3.3c-2.6-1.6-1.1-5.5,1.5-5.5c0.6,0,1.2,0.2,1.7,0.5c1.7,1.1,3.4,2.3,5,3.6
	C241.9,263.6,240.1,267.1,237.7,267.1L237.7,267.1z"/>
<path class="st3" d="M275,155.3l-0.1,0.3l-0.2,0.2l-0.3,0.5l-0.2,0.3l-0.2,0.3l-0.2,0.3l-0.2,0.3l-0.2,0.3l-0.2,0.3l-0.2,0.3
	l-0.2,0.3l-0.2,0.3l-0.2,0.3l-1.6,2.3l-0.2,0.3l-0.2,0.3l-0.2,0.3l-0.2,0.3l-0.4,0.6l-0.2,0.3l-0.2,0.3l-0.2,0.3l-0.2,0.3l-0.1,0.2
	l-0.1,0.1l-0.2,0.3l-0.2,0.3l-0.2,0.3l-0.2,0.3l-0.2,0.3l-0.1,0.1l-0.1,0.1l-0.2,0.3l-0.2,0.3l-0.2,0.3l-0.2,0.3l-0.2,0.3l-0.1,0.1
	l-0.1,0.2l-0.2,0.3l-0.2,0.3l-0.2,0.3l-0.2,0.3l-0.2,0.3l0,0l-0.2,0.2l-0.2,0.3l-0.2,0.3l-0.2,0.3l-0.2,0.3l-0.2,0.2l0,0l-0.2,0.3
	l-0.2,0.3l-0.2,0.3l-0.3,0.3l-0.2,0.3l-0.1,0.2l-0.1,0.1l-0.3,0.3l-0.2,0.3l-0.3,0.3l-0.2,0.3l-0.2,0.3l-0.1,0.1l-0.1,0.1l-0.2,0.3
	v119.9h0.1c1.4-0.4,2.9,0.2,3.6,1.5l2.6,5.4c1.6,4-4,5.8-5.4,2.5l-1-2v113.5l71.8,30.3V160.4l0,0l-49-20.7
	C281.1,145.1,278.3,150.3,275,155.3z M274.8,327.2c-1.5,0.6-3.2-0.1-3.8-1.6l-2.2-5.5c-1.5-3.7,4.1-5.7,5.5-2.3l2.2,5.5
	C277,324.8,276.3,326.5,274.8,327.2z M312.1,373.6c1.7,1,3.4,1.8,5.1,2.6c3.3,1.3,1.5,7-2.5,5.4c-1.9-0.8-3.7-1.8-5.5-2.8
	C305.8,376.7,308.9,371.7,312.1,373.6L312.1,373.6z M295.1,359.1c1.2,1.5,2.4,2.9,3.7,4.2c2.6,2.6-1.4,7-4.3,4.1
	c-1.5-1.5-2.8-3-4.1-4.7C288,359.6,292.9,356.1,295.1,359.1L295.1,359.1z M280.6,347.4c-0.9-1.8-1.8-3.6-2.6-5.4
	c-0.7-1.5-0.1-3.2,1.4-3.9c0.4-0.2,0.9-0.3,1.4-0.3c1.1,0.1,2.1,0.7,2.6,1.7l2.5,5.2c0.5,1.6-0.4,3.3-2,3.8
	C282.7,348.8,281.4,348.4,280.6,347.4z"/>
<path class="st3" d="M173.1,205.2l-0.3-0.3l-0.2-0.2l-0.5-0.5l-0.5-0.5l-0.3-0.3l-0.2-0.2l-0.5-0.5l-0.5-0.5l-0.3-0.3l-0.2-0.2
	l-0.5-0.5l-0.5-0.5l-0.3-0.3l-0.1-0.1l-0.5-0.5l-0.5-0.5l-0.5-0.5l-0.5-0.5l-0.5-0.5l-0.4-0.4l-0.1-0.1l-0.5-0.5l-0.5-0.5l-0.4-0.4
	l-0.1-0.1l-0.5-0.5L163,195l-0.4-0.4l-0.1-0.1L162,194l-0.5-0.5l-0.4-0.4l-0.1-0.1l-0.5-0.5l-0.5-0.5l-0.4-0.5l-0.1-0.1
	c-15.6-16.6-30.2-34.3-38.5-53.4l-18.9-8v285.3l71.8,30.3V206.2l-0.5-0.5L173.1,205.2z M125.4,264.5c-1.8,0.7-3.6,1.5-5.4,2.2h0.1
	H120l0,0c-3.7,1.4-5.7-4.1-2.4-5.4l0.2-0.1l-0.1,0.1c1.7-0.9,3.8-1.6,5.6-2.3C126.8,257.5,129.1,263,125.4,264.5z M147.6,257.3
	c-1.9,0.5-3.8,1-5.6,1.6c-2.9,1.2-5.9-4-1.6-5.7c1.9-0.6,3.9-1.1,5.8-1.6C150.3,250.7,151.1,256.6,147.6,257.3L147.6,257.3z
	 M170.4,252.8c-1.9,0.2-3.8,0.5-5.7,0.8c-3.6,0.7-5-5-1-5.9c2-0.3,4-0.6,6-0.9C173,246.3,174.8,252,170.4,252.8L170.4,252.8z"/>
</svg>
