<svg id="Layer_1" data-name="Layer 1" xmlns="http://www.w3.org/2000/svg" viewBox="0 0 510.24 510.24"><defs><style>.cls-1,.cls-5{fill:#fff;}.cls-2{fill:#1d1d1b;}.cls-3{fill:#d81b60;}.cls-3,.cls-4,.cls-5{fill-rule:evenodd;}</style></defs><path class="cls-1" d="M118.93,79.19l-.29-23.47A11.78,11.78,0,0,1,130.2,43.9l205.62-2.48A11.75,11.75,0,0,1,347.47,53l.32,26.22ZM212.08,53a6.47,6.47,0,0,0,0,12.93h46.26a6.47,6.47,0,1,0,0-12.93Z"/><path class="cls-2" d="M335.82,44.42A8.74,8.74,0,0,1,344.47,53l.28,23.18H121.89l-.25-20.5a8.73,8.73,0,0,1,2.5-6.15,8.62,8.62,0,0,1,6.09-2.64l205.46-2.48h.13M212.08,68.91h46.26a9.47,9.47,0,1,0,0-18.93H212.08a9.47,9.47,0,0,0,0,18.93M335.82,38.42h-.21L130.16,40.9a14.79,14.79,0,0,0-14.52,14.85L116,82.19H350.83l-.36-29.25a14.75,14.75,0,0,0-14.65-14.52ZM212.08,62.91a3.47,3.47,0,0,1,0-6.93h46.26a3.47,3.47,0,1,1,0,6.93Z"/><path class="cls-3" d="M121.8,358.27,118.57,91.62l229.87,0,3.21,266.68ZM266.26,219a5.93,5.93,0,0,0-4.18,1.71L160.91,320a5.93,5.93,0,0,0-1.77,4.18,5.95,5.95,0,0,0,10.13,4.29L270.42,229.2A6,6,0,0,0,266.26,219Zm47.17-13.65a5.9,5.9,0,0,0-4.19,1.73l-83.07,81.55a5.85,5.85,0,0,0-1.77,4.18,6,6,0,0,0,10.12,4.32l83.08-81.59a6,6,0,0,0,.07-8.42A5.94,5.94,0,0,0,313.43,205.34Zm.05-65.38a5.92,5.92,0,0,0-4.19,1.72L167.46,280.93a5.94,5.94,0,1,0,8.35,8.46L317.63,150.17a6,6,0,0,0,.09-8.43A5.91,5.91,0,0,0,313.48,140Zm-74.77,40.71a5.91,5.91,0,0,0-4.17,1.7l-81.76,80.29a5.95,5.95,0,1,0,8.35,8.47l81.76-80.26a6,6,0,0,0-4.18-10.2Zm47.15-79a5.89,5.89,0,0,0-4.19,1.74L180.53,202.72a6,6,0,0,0-.08,8.44,6,6,0,0,0,8.44.05L290,111.9a5.85,5.85,0,0,0,1.77-4.18,6,6,0,0,0-5.95-6Z"/><path d="M346,94.09l3.15,261.68H124.27L121.1,94.12l224.87,0m-66.05,7.57L178.75,201a8.52,8.52,0,0,0-.07,12,8.46,8.46,0,0,0,11.95.08l101.15-99.31a8.44,8.44,0,0,0,.11-11.94,8.48,8.48,0,0,0-6-2.54,8.38,8.38,0,0,0-5.94,2.45m-108.3,192a8.37,8.37,0,0,0,5.93-2.43L319.4,151.94a8.51,8.51,0,0,0,.09-12,8.46,8.46,0,0,0-11.95-.08L165.74,279.12a8.44,8.44,0,0,0,5.88,14.49m-14.68-18.26a8.4,8.4,0,0,0,5.93-2.43l81.76-80.26a8.45,8.45,0,1,0-11.84-12.07l-81.74,80.27a8.44,8.44,0,0,0,5.89,14.49m73.42,26a8.35,8.35,0,0,0,5.91-2.41l83.08-81.58a8.45,8.45,0,1,0-11.85-12l-83.08,81.56a8.45,8.45,0,0,0,5.94,14.48M165.08,332.7a8.38,8.38,0,0,0,5.93-2.43L272.18,231h0l0,0a8.55,8.55,0,0,0,.06-12,8.49,8.49,0,0,0-11.95-.08L159.17,318.22a8.45,8.45,0,0,0,5.91,14.48M350.91,89.09,116,89.12l3.29,271.65H354.18L350.91,89.09ZM184.7,210.43a3.45,3.45,0,0,1-2.46-1,3.49,3.49,0,0,1,0-4.91l101.16-99.28a3.45,3.45,0,1,1,4.85,4.9L187.13,209.43a3.45,3.45,0,0,1-2.43,1Zm-13.08,78.18a3.43,3.43,0,0,1-2.4-5.9L311.05,143.46a3.45,3.45,0,0,1,4.89,0,3.48,3.48,0,0,1-.06,4.9L174.05,287.61a3.44,3.44,0,0,1-2.43,1Zm-14.68-18.26a3.44,3.44,0,0,1-2.41-5.9l81.76-80.3a3.48,3.48,0,0,1,2.42-1,3.41,3.41,0,0,1,2.47,1,3.46,3.46,0,0,1,0,4.88l-81.77,80.26a3.45,3.45,0,0,1-2.43,1Zm73.42,26a3.5,3.5,0,0,1-2.47-1,3.46,3.46,0,0,1,0-4.88L311,208.84a3.45,3.45,0,1,1,4.85,4.9l-83.08,81.59a3.41,3.41,0,0,1-2.41,1ZM165.08,327.7a3.44,3.44,0,0,1-2.42-5.9l101.17-99.32a3.45,3.45,0,1,1,4.84,4.93L167.51,326.7a3.42,3.42,0,0,1-2.43,1Z"/><path class="cls-4" d="M108,455.36a3.46,3.46,0,1,1,0-6.91H328.15a3.46,3.46,0,1,1,0,6.91Z"/><path class="cls-4" d="M236.91,471.81a3.47,3.47,0,1,1,0-6.93H389.27a3.47,3.47,0,0,1,0,6.93Z"/><path class="cls-4" d="M404.85,471.81a3.47,3.47,0,0,1,0-6.93h19a3.47,3.47,0,1,1,0,6.93Z"/><path class="cls-4" d="M86.33,471.31a3.46,3.46,0,1,1,0-6.91h72.19a3.46,3.46,0,1,1,0,6.91Z"/><path class="cls-5" d="M134.7,423.41A11.76,11.76,0,0,1,123,411.87l-.5-41.19H351.3l.47,38.41a11.68,11.68,0,0,1-3.34,8.28,11.53,11.53,0,0,1-8.22,3.56Zm102.22-48a18.16,18.16,0,0,0-17.94,18v.35a18.18,18.18,0,0,0,18,18h.34a18.13,18.13,0,0,0,18-18v-.34a18.16,18.16,0,0,0-18-18h-.39Z"/><path class="cls-2" d="M348.34,373.68l.43,35.43a8.7,8.7,0,0,1-2.47,6.16l0,0h0a8.54,8.54,0,0,1-6.08,2.63l-205.42,2.48h-.06a8.74,8.74,0,0,1-8.75-8.59l-.46-38.14H230A21.14,21.14,0,0,0,216,393.5v.39a21.17,21.17,0,0,0,21,20.93h.44a21.13,21.13,0,0,0,20.91-21.06v-.38a21.15,21.15,0,0,0-14-19.7H348.34m5.92-6H119.42L120,411.9a14.75,14.75,0,0,0,14.75,14.51h.11l205.45-2.48a14.77,14.77,0,0,0,14.51-14.88l-.51-41.37ZM237,408.82a15.18,15.18,0,0,1-15.05-15v-.33a15.16,15.16,0,0,1,15-15.05h.31a15.16,15.16,0,0,1,15,15v.32a15.14,15.14,0,0,1-15,15.06Z"/><path class="cls-5" d="M237,401.23a7.38,7.38,0,0,1-5.16-2.14,7.62,7.62,0,0,1-2.3-5.34v-.26a7.55,7.55,0,0,1,7.47-7.43h.1l.24,0a7.63,7.63,0,0,1,5.1,2.17,7.51,7.51,0,0,1,2.27,5.32v.28a7.58,7.58,0,0,1-7.47,7.42Z"/><path class="cls-2" d="M237.42,389a4.69,4.69,0,0,1,3,1.32,4.49,4.49,0,0,1,1.37,3.21v.26a4.6,4.6,0,0,1-1.31,3,4.52,4.52,0,0,1-3.2,1.38h-.17a4.46,4.46,0,0,1-3.12-1.29,4.59,4.59,0,0,1-1.39-3.2v-.2a4.54,4.54,0,0,1,4.49-4.48h.21l.16,0m-.13-6-.29,0a10.55,10.55,0,0,0-10.44,10.43v.31a10.63,10.63,0,0,0,3.19,7.43,10.48,10.48,0,0,0,7.27,3h.28a10.6,10.6,0,0,0,10.45-10.46v-.28a10.5,10.5,0,0,0-3.18-7.43,10.63,10.63,0,0,0-7.27-3Z"/></svg>