<?xml version="1.0" ?><!DOCTYPE svg  PUBLIC '-//W3C//DTD SVG 1.1//EN'  'http://www.w3.org/Graphics/SVG/1.1/DTD/svg11.dtd'><svg height="512px" style="enable-background:new 0 0 512 512;" version="1.1" viewBox="0 0 512 512" width="512px" xml:space="preserve" xmlns="http://www.w3.org/2000/svg" xmlns:xlink="http://www.w3.org/1999/xlink"><g id="_x34_25_x2C__Engineer_x2C__headphones_x2C__listen_x2C__meloman_x2C__music"><g><path d="M280.659,99.061c-2.722,2.652-5.657,5.057-8.769,7.248    c-12.444,8.803-27.646,14.001-44.016,14.001c-5.621,0-11.171-0.638-16.546-1.804c-3.783-0.848-7.459-1.979-10.995-3.324    c-1.555,5.623-2.369,11.526-2.369,17.643c0,18.563,7.531,35.355,19.693,47.518c12.161,12.162,28.99,19.691,47.515,19.691    c18.562,0,35.39-7.529,47.552-19.691c12.163-12.162,19.694-28.955,19.694-47.518c0-4.666-0.497-9.227-1.38-13.646    c-10.147-0.141-19.799-2.263-28.603-6.01C294.376,109.703,287.023,104.93,280.659,99.061 M297.947,74.137    c-2.829,6.646-6.61,12.797-11.136,18.313c5.585,5.162,12.09,9.369,19.197,12.41c6.929,2.935,14.496,4.772,22.45,5.197    c-3.394-9.404-8.804-17.82-15.733-24.749C308.342,80.924,303.393,77.176,297.947,74.137z M259.233,274.102l-41.469-39.881    l-93.902,36.875v128.655h45.36v-73.36c0-2.404,1.944-4.349,4.349-4.349c2.404,0,4.348,1.944,4.348,4.349v73.36h171.966v-73.36    c0-2.404,1.943-4.349,4.348-4.349c2.369,0,4.313,1.944,4.313,4.349v73.36h45.396V271.096l-94.045-36.91l-44.651,39.916    C263.584,275.693,260.933,275.728,259.233,274.102z M293.174,203.781c-8.661,3.429-18.1,5.303-28,5.303    c-10.713,0-20.894-2.227-30.157-6.223l0.035,35.956l27.293,26.268l30.829-27.575V203.781z M366.357,221.883    c-2.049-1.203-2.756-3.854-1.59-5.904c1.203-2.086,3.854-2.793,5.905-1.592l66.467,38.361c1.412,0.813,2.191,2.262,2.191,3.746    v48.119c0,2.403-1.944,4.348-4.313,4.348c-2.403,0-4.35-1.944-4.35-4.348v-45.608L366.357,221.883z M85.361,330.668    c0-2.404,1.944-4.348,4.348-4.348c2.404,0,4.35,1.943,4.35,4.348v92.1h27.788c2.404,0,4.348,1.943,4.348,4.348    s-1.944,4.349-4.348,4.349H89.709c-2.404,0-4.348-1.944-4.348-4.349V330.668z M171.979,117.587    c6.435-22.202,18.279-42.178,33.87-56.744c16.228-15.132,36.592-24.465,59.325-24.465c23.122,0,43.699,9.228,60.031,24.43    c15.486,14.459,27.119,34.329,33.306,56.779h5.798v30.581h-24.395c1.024-4.949,1.555-10.076,1.555-15.344    c0-5.232-0.53-10.323-1.52-15.237h9.191c-5.903-19.834-16.369-37.37-30.086-50.168c-14.673-13.683-33.163-21.991-53.881-21.991    c-20.293,0-38.571,8.379-53.172,22.027c-13.824,12.868-24.43,30.475-30.582,50.132h9.051c-1.026,4.914-1.557,10.005-1.557,15.237    c0,5.268,0.53,10.395,1.557,15.344h-24.359v-30.581H171.979z M470.088,446.489c2.404,0,4.351,1.944,4.351,4.349    s-1.946,4.349-4.351,4.349H176.257c-2.369,0-4.349-1.944-4.349-4.349s1.979-4.349,4.349-4.349H470.088z M315.307,466.925    c2.404,0,4.349,1.944,4.349,4.349c0,2.369-1.944,4.349-4.349,4.349H83.134c-2.369,0-4.348-1.979-4.348-4.349    c0-2.404,1.979-4.349,4.348-4.349H315.307z M59.375,466.925c2.406,0,4.35,1.944,4.35,4.349c0,2.369-1.944,4.349-4.35,4.349H30.35    c-2.404,0-4.348-1.979-4.348-4.349c0-2.404,1.944-4.349,4.348-4.349H59.375z M481.65,466.288c2.404,0,4.349,1.944,4.349,4.349    s-1.944,4.349-4.349,4.349H385.31c-2.404,0-4.349-1.944-4.349-4.349s1.944-4.349,4.349-4.349H481.65z M203.268,106.627    c3.218,1.273,6.577,2.298,10.005,3.076c4.633,1.025,9.546,1.555,14.602,1.555c14.496,0,27.86-4.561,38.82-12.303    c3.746-2.652,7.212-5.691,10.358-9.051l0.424-0.459l0.035-0.036c5.091-5.586,9.299-12.056,12.303-19.161    c-6.045-2.369-12.479-3.891-19.231-4.42l-0.213-0.035l0,0h-0.247l-0.46-0.036h-0.143l-0.564-0.035l-0.213-0.034h-0.104h-0.143    h-0.247l-0.213-0.035h-0.494h-0.213h-0.247l-0.141-0.037h-0.107h-0.212h-0.247h-0.248h-0.07h-0.142h-0.247h-0.248h-0.247h-0.672    h-0.176h-0.495h-0.39l-0.247,0.037h-0.602h-0.07l-0.672,0.035h-0.105l-0.565,0.034l-0.319,0.035h-0.353l-0.495,0.036l-0.142,0.035    l-0.673,0.035h-0.034l-0.601,0.07l-0.247,0.035l-0.425,0.037l-0.425,0.035l-0.212,0.035l-0.637,0.07h-0.035l-0.635,0.106h-0.142    l-0.53,0.069l-0.318,0.072l-0.319,0.035l-0.53,0.105h-0.105l-0.637,0.106l-0.07,0.034l-0.567,0.072l-0.247,0.07l-0.388,0.07    l-0.459,0.07l-0.177,0.036l-0.637,0.142l0,0l-0.635,0.141l-0.177,0.035l-0.814,0.213l-0.248,0.07l-0.565,0.142h-0.07l-0.637,0.177    l-0.07,0.035l-0.53,0.142l-0.284,0.071l-0.353,0.105l-0.459,0.105l-0.142,0.071l-1.202,0.354l-0.212,0.07l-0.423,0.142    l-0.354,0.142l-0.248,0.07l-0.53,0.177h-0.07l-1.486,0.565l-0.282,0.106l-0.495,0.213c-5.02,1.979-9.758,4.525-14.106,7.6    l-0.035,0.036l-0.105,0.071l-0.354,0.283l-0.955,0.672l-0.46,0.352l-0.177,0.143l-0.282,0.213l-0.353,0.282l-0.107,0.07    l-0.459,0.39l-0.07,0.035l-0.388,0.317l-0.25,0.212l-0.175,0.178l-0.425,0.317l-0.035,0.036l-0.459,0.389l-0.142,0.105    l-0.283,0.283l-0.317,0.248l-0.107,0.105l-0.46,0.39l-0.035,0.035l-0.388,0.389l-0.177,0.177l-0.248,0.212l-0.354,0.318    l-0.07,0.071l-0.425,0.424l-0.07,0.07l-0.317,0.318l-0.283,0.247l-0.142,0.177l-0.425,0.389v0.037l-0.388,0.387l-0.177,0.178    l-0.212,0.247l-0.317,0.319l-0.107,0.105l-0.39,0.425l-0.07,0.07l-0.317,0.354l-0.212,0.247l-0.46,0.531l-0.07,0.07l-0.035,0.035    l-0.354,0.459l-0.141,0.143l-0.249,0.282l-0.248,0.317l-0.105,0.143c-0.637,0.742-1.237,1.52-1.804,2.298l-0.105,0.106    C208.113,96.904,205.39,101.606,203.268,106.627z" style="fill-rule:evenodd;clip-rule:evenodd;"/></g></g><g id="Layer_1"/></svg>