<?xml version="1.0" encoding="utf-8"?>
<!-- Generator: Adobe Illustrator 24.0.2, SVG Export Plug-In . SVG Version: 6.00 Build 0)  -->
<svg version="1.1" id="Layer_1" xmlns="http://www.w3.org/2000/svg" xmlns:xlink="http://www.w3.org/1999/xlink" x="0px" y="0px"
	 viewBox="0 0 512 512" style="enable-background:new 0 0 512 512;" xml:space="preserve">
<g id="Layer_1_1_">
</g>
<g>
	<g>
		<rect x="308.4" y="306.6" width="81.8" height="94.6"/>
		<path d="M148,306.5v94.6h97.7v-52.1H275v52.1h22.6v-94.6H148z M205.1,360.7h-32.4v-32.4h32.4V360.7z"/>
		<polygon points="215.5,301.9 176.9,301.9 223.9,234.6 262.5,234.6 		"/>
		<polygon points="171.5,301.9 132.9,301.9 179.9,234.6 218.5,234.6 		"/>
		<polygon points="259.4,301.9 220.8,301.9 267.8,234.6 306.4,234.6 		"/>
		<polygon points="96.5,264.3 58,264.3 105,197 143.5,197 		"/>
		<polygon points="140.4,264.3 101.9,264.3 148.9,197 187.4,197 		"/>
		<polygon points="303.3,301.9 264.7,301.9 311.7,234.6 350.3,234.6 		"/>
		<polygon points="402.2,301.9 393.9,301.9 344.9,234.6 353.2,234.6 		"/>
		<polygon points="330.2,209.3 291.6,209.3 338.6,142 377.2,142 		"/>
		<polygon points="429,209.3 420.8,209.3 371.8,142 380,142 		"/>
		<polygon points="256.2,231.6 247.9,231.6 222.8,197 231,197 		"/>
		<g>
			<polygon points="177.6,232.9 178.5,231.6 180.1,231.6 207.2,231.6 231.3,197 192.7,197 145.7,264.3 155.6,264.3 			"/>
		</g>
		<g>
			<g>
				<polygon points="145,304.9 133.1,304.9 130.2,304.9 130.2,323.3 97.8,323.3 97.8,290.9 130.2,290.9 130.2,300.7 130.6,300.1 
					152.2,269.2 73.1,269.2 73.1,363.9 145,363.9 145,308.5 145,306.4 145,305.5 				"/>
			</g>
		</g>
		<g>
			<polygon points="239,192 239.3,192 239.2,192.2 246.9,202.8 289.4,142 250.8,142 215.9,192 230.8,192 			"/>
			<polygon points="333.3,142 294.7,142 249.6,206.6 251.6,209.3 286.3,209.3 			"/>
			<polygon points="239,192 239.2,192.2 239.3,192 			"/>
		</g>
		<polygon points="334.3,212 334.3,229.6 346.9,229.6 352.3,229.6 355.2,229.6 366.5,245.2 366.5,230.7 392.8,230.7 392.8,257 
			375.1,257 393.2,281.8 416,281.8 416,212 		"/>
	</g>
	<rect x="440.9" y="354.1" width="47.1" height="47.1"/>
	<rect x="24.1" y="142" width="47.1" height="47.1"/>
	<path d="M461.1,205.6c-0.6,0.6-1.5,0.9-2.3,0.9c-0.9,0-1.7-0.3-2.4-1l-1.9-2v129.3c0,1.8-1.5,3.3-3.3,3.3s-3.3-1.5-3.3-3.3V203.5
		l-1.9,2c-0.6,0.7-1.5,1-2.4,1c-0.8,0-1.6-0.3-2.3-0.9c-1.3-1.3-1.3-3.3-0.1-4.6l7.5-7.8c0.1-0.1,0.1-0.1,0.2-0.1l0.1-0.1
		c0.1,0,0.1-0.1,0.2-0.1c0.1-0.1,0.2-0.1,0.3-0.1c0,0,0,0,0.1,0c0.1,0,0.1-0.1,0.2-0.1c0,0,0,0,0.1,0c0.1,0,0.2-0.1,0.3-0.1
		s0.2-0.1,0.2-0.1s0,0,0.1,0c0.1,0,0.2,0,0.3,0c0.1,0,0.2,0,0.3,0c0.1,0,0.2,0,0.3,0s0.2,0,0.3,0c0,0,0,0,0.1,0
		c0.1,0,0.2,0.1,0.3,0.1s0.2,0.1,0.3,0.1c0,0,0,0,0.1,0c0.1,0,0.1,0.1,0.2,0.1c0,0,0,0,0.1,0c0.1,0,0.2,0.1,0.3,0.1s0.1,0.1,0.2,0.1
		l0.1,0.1c0.1,0,0.1,0.1,0.2,0.1l7.5,7.8C462.4,202.3,462.4,204.4,461.1,205.6z"/>
	<path d="M486.7,123.9c-0.6,0.6-1.5,0.9-2.3,0.9c-0.9,0-1.7-0.3-2.4-1l-1.9-2v211c0,1.8-1.5,3.3-3.3,3.3s-3.3-1.5-3.3-3.3v-211
		l-1.9,2c-0.6,0.7-1.5,1-2.4,1c-0.8,0-1.6-0.3-2.3-0.9c-1.3-1.3-1.3-3.3-0.1-4.6l7.5-7.8c0.1-0.1,0.1-0.1,0.2-0.1l0.1-0.1
		c0.1,0,0.1-0.1,0.2-0.1c0.1-0.1,0.2-0.1,0.3-0.1c0,0,0,0,0.1,0c0.1,0,0.1-0.1,0.2-0.1c0,0,0,0,0.1,0c0.1,0,0.2-0.1,0.3-0.1
		s0.2-0.1,0.2-0.1s0,0,0.1,0c0.1,0,0.2,0,0.3,0c0.1,0,0.2,0,0.3,0c0.1,0,0.2,0,0.3,0s0.2,0,0.3,0c0,0,0,0,0.1,0
		c0.1,0,0.2,0.1,0.3,0.1s0.2,0.1,0.3,0.1c0,0,0,0,0.1,0c0.1,0,0.1,0.1,0.2,0.1c0,0,0,0,0.1,0c0.1,0,0.2,0.1,0.3,0.1s0.1,0.1,0.2,0.1
		l0.1,0.1c0.1,0,0.1,0.1,0.2,0.1l7.5,7.8C488,120.6,488,122.7,486.7,123.9z"/>
</g>
</svg>
