<?xml version="1.0" encoding="utf-8"?>
<!-- Generator: Adobe Illustrator 24.0.2, SVG Export Plug-In . SVG Version: 6.00 Build 0)  -->
<svg version="1.1" id="Layer_1" xmlns="http://www.w3.org/2000/svg" xmlns:xlink="http://www.w3.org/1999/xlink" x="0px" y="0px"
	 viewBox="0 0 512 512" style="enable-background:new 0 0 512 512;" xml:space="preserve">
<g>
	<g>
		<rect x="76.5" y="362.9" width="13.4" height="15.3"/>
		<rect x="109.7" y="362.9" width="13.3" height="15.3"/>
		<rect x="93.1" y="362.9" width="13.3" height="15.3"/>
		<rect x="60.2" y="362.9" width="13" height="15.3"/>
		<polygon points="154.6,310.2 132.5,310.2 100.3,310.2 78.2,310.2 78.2,315.6 154.6,315.6 		"/>
		<rect x="101.9" y="302.6" width="28.9" height="4.3"/>
		<polygon points="164.7,318.8 156.2,318.8 76.5,318.8 68,318.8 68,325.6 164.7,325.6 		"/>
		<path d="M73.2,342.4c0-0.9,0.7-1.6,1.6-1.6s1.6,0.7,1.6,1.6v17.2h13.4v-17.2c0-0.9,0.7-1.6,1.6-1.6s1.6,0.7,1.6,1.6v17.2h13.3
			v-17.2c0-0.9,0.7-1.6,1.6-1.6s1.6,0.7,1.6,1.6v17.2H123v-17.2c0-0.9,0.7-1.6,1.6-1.6s1.6,0.7,1.6,1.6v17.2h13.3v-17.2
			c0-0.9,0.7-1.6,1.6-1.6c0.9,0,1.6,0.7,1.6,1.6v17.2H156v-17.2c0-0.9,0.7-1.6,1.6-1.6s1.6,0.7,1.6,1.6v17.2h13v-30.8H166H66h-6.2
			v30.8h13v-17.2H73.2z"/>
		<rect x="159.5" y="362.9" width="13" height="15.3"/>
		<rect x="126.3" y="362.9" width="13.3" height="15.3"/>
		<rect x="142.9" y="362.9" width="13.3" height="15.3"/>
		<path d="M189.7,422.7h-80.5c-0.9,0-1.6,0.7-1.6,1.6s0.7,1.6,1.6,1.6h80.5c0.9,0,1.6-0.7,1.6-1.6
			C191.4,423.4,190.6,422.7,189.7,422.7z"/>
		<path d="M208,422.7h-10c-0.9,0-1.6,0.7-1.6,1.6s0.7,1.6,1.6,1.6h10c0.9,0,1.6-0.7,1.6-1.6C209.7,423.4,208.9,422.7,208,422.7z"/>
		<path d="M74.6,422.4H36.5c-0.9,0-1.6,0.7-1.6,1.6s0.7,1.6,1.6,1.6h38.2c0.9,0,1.6-0.7,1.6-1.6C76.3,423.2,75.6,422.4,74.6,422.4z"
			/>
		<path d="M215.7,415.6h-7.6l0,0h-3.3l0,0h-14.5l0,0H187h-14.5V382H60.2v33.6H45.8H34.6c-0.9,0-1.6,0.7-1.6,1.6s0.7,1.6,1.6,1.6
			h181.1c0.9,0,1.6-0.7,1.6-1.6C217.4,416.3,216.7,415.6,215.7,415.6z M130.7,415.6h-3.3v-26.1H118v26.1h-3.3v-26.1h-9.4v26.1H102
			v-27.7c0-0.9,0.7-1.6,1.6-1.6h12.7H129c0.9,0,1.6,0.7,1.6,1.6L130.7,415.6L130.7,415.6z"/>
	</g>
	<g>
		<rect x="197.3" y="345" width="13.4" height="15.2"/>
		<rect x="197.3" y="363.5" width="13.4" height="15.3"/>
		<rect x="197.3" y="326.5" width="13.4" height="15.2"/>
		<rect x="213.9" y="345" width="13.3" height="15.2"/>
		<rect x="213.9" y="326.5" width="13.3" height="15.2"/>
		<rect x="213.9" y="363.5" width="13.3" height="15.3"/>
		<polygon points="275.4,272.5 253.3,272.5 221.1,272.5 199,272.5 199,277.9 275.4,277.9 		"/>
		<rect x="222.8" y="265" width="28.9" height="4.3"/>
		<rect x="181" y="345" width="13" height="15.2"/>
		<rect x="181" y="363.5" width="13" height="15.3"/>
		<rect x="181" y="326.5" width="13" height="15.2"/>
		<polygon points="285.6,281.2 277.1,281.2 197.4,281.2 188.8,281.2 188.8,288 285.6,288 		"/>
		<rect x="280.4" y="345" width="13" height="15.2"/>
		<rect x="280.4" y="326.5" width="13" height="15.2"/>
		<rect x="280.4" y="363.5" width="13" height="15.3"/>
		<rect x="263.8" y="345" width="13.3" height="15.2"/>
		<rect x="263.8" y="363.5" width="13.3" height="15.3"/>
		<path d="M194,304.8c0-0.9,0.7-1.6,1.6-1.6c0.9,0,1.6,0.7,1.6,1.6V322h13.4v-17.2c0-0.9,0.7-1.6,1.6-1.6c0.9,0,1.6,0.7,1.6,1.6V322
			h13.3v-17.2c0-0.9,0.7-1.6,1.6-1.6c0.9,0,1.6,0.7,1.6,1.6V322h13.3v-17.2c0-0.9,0.7-1.6,1.6-1.6c0.9,0,1.6,0.7,1.6,1.6V322h13.3
			v-17.2c0-0.9,0.7-1.6,1.6-1.6s1.6,0.7,1.6,1.6V322h13.3v-17.2c0-0.9,0.7-1.6,1.6-1.6s1.6,0.7,1.6,1.6V322h13v-30.8h-6.2h-100H181
			V322h13V304.8z"/>
		<rect x="263.8" y="326.5" width="13.3" height="15.2"/>
		<rect x="230.5" y="345" width="13.3" height="15.2"/>
		<rect x="230.5" y="363.5" width="13.3" height="15.3"/>
		<rect x="230.5" y="326.5" width="13.3" height="15.2"/>
		<rect x="247.2" y="326.5" width="13.3" height="15.2"/>
		<rect x="247.2" y="345" width="13.3" height="15.2"/>
		<rect x="247.2" y="363.5" width="13.3" height="15.3"/>
		<path d="M310.6,422.7h-80.5c-0.9,0-1.6,0.7-1.6,1.6s0.7,1.6,1.6,1.6h80.5c0.9,0,1.6-0.7,1.6-1.6S311.5,422.7,310.6,422.7z"/>
		<path d="M328.9,422.7h-10.1c-0.9,0-1.6,0.7-1.6,1.6s0.7,1.6,1.6,1.6h10.1c0.9,0,1.6-0.7,1.6-1.6S329.8,422.7,328.9,422.7z"/>
		<path d="M195.5,422.4h-38.2c-0.9,0-1.6,0.7-1.6,1.6s0.7,1.6,1.6,1.6h38.2c0.9,0,1.6-0.7,1.6-1.6
			C197.1,423.2,196.4,422.4,195.5,422.4z"/>
		<path d="M336.6,415.6H329l0,0h-3.3l0,0h-14.5l0,0h-3.3h-14.5V382H181v33.6h-14.4h-11.1c-0.9,0-1.6,0.7-1.6,1.6s0.7,1.6,1.6,1.6
			h181.1c0.9,0,1.6-0.7,1.6-1.6C338.2,416.3,337.5,415.6,336.6,415.6z M251.6,415.6h-3.3v-26.1h-9.4v26.1h-3.3v-26.1h-9.4v26.1h-3.3
			v-27.7c0-0.9,0.7-1.6,1.6-1.6h12.7h12.7c0.9,0,1.6,0.7,1.6,1.6L251.6,415.6L251.6,415.6z"/>
	</g>
	<g>
		<rect x="343.8" y="345" width="13.4" height="15.2"/>
		<rect x="343.8" y="363.5" width="13.4" height="15.3"/>
		<rect x="360.4" y="289.5" width="13.3" height="15.2"/>
		<rect x="343.8" y="270.9" width="13.4" height="15.3"/>
		<rect x="343.8" y="289.5" width="13.4" height="15.2"/>
		<rect x="343.8" y="308" width="13.4" height="15.3"/>
		<rect x="343.8" y="326.5" width="13.4" height="15.2"/>
		<rect x="377" y="270.9" width="13.3" height="15.3"/>
		<rect x="377" y="289.5" width="13.3" height="15.2"/>
		<rect x="360.4" y="345" width="13.3" height="15.2"/>
		<rect x="360.4" y="270.9" width="13.3" height="15.3"/>
		<rect x="360.4" y="308" width="13.3" height="15.3"/>
		<rect x="360.4" y="326.5" width="13.3" height="15.2"/>
		<rect x="360.4" y="363.5" width="13.3" height="15.3"/>
		<rect x="327.5" y="270.9" width="13" height="15.3"/>
		<rect x="327.5" y="289.5" width="13" height="15.2"/>
		<rect x="327.5" y="308" width="13" height="15.3"/>
		<polygon points="421.9,144.6 399.8,144.6 367.6,144.6 345.5,144.6 345.5,150 421.9,150 		"/>
		<rect x="369.3" y="137" width="28.9" height="4.3"/>
		<rect x="327.5" y="345" width="13" height="15.2"/>
		<rect x="327.5" y="363.5" width="13" height="15.3"/>
		<rect x="327.5" y="326.5" width="13" height="15.2"/>
		<polygon points="432.1,153.2 423.6,153.2 343.9,153.2 335.3,153.2 335.3,160 432.1,160 		"/>
		<rect x="426.9" y="345" width="13" height="15.2"/>
		<rect x="426.9" y="326.5" width="13" height="15.2"/>
		<rect x="426.9" y="363.5" width="13" height="15.3"/>
		<rect x="410.3" y="345" width="13.3" height="15.2"/>
		<rect x="426.9" y="308" width="13" height="15.3"/>
		<rect x="410.3" y="363.5" width="13.3" height="15.3"/>
		<path d="M340.5,176.8c0-0.9,0.7-1.6,1.6-1.6s1.6,0.7,1.6,1.6V194h13.4v-17.2c0-0.9,0.7-1.6,1.6-1.6s1.6,0.7,1.6,1.6V194h13.3
			v-17.2c0-0.9,0.7-1.6,1.6-1.6s1.6,0.7,1.6,1.6V194h13.3v-17.2c0-0.9,0.7-1.6,1.6-1.6s1.6,0.7,1.6,1.6V194H407v-17.2
			c0-0.9,0.7-1.6,1.6-1.6s1.6,0.7,1.6,1.6V194h13.3v-17.2c0-0.9,0.7-1.6,1.6-1.6s1.6,0.7,1.6,1.6V194h13v-30.8h-6.2h-100h-6.2V194
			h13v-17.2H340.5z"/>
		<rect x="426.9" y="289.5" width="13" height="15.2"/>
		<rect x="426.9" y="270.9" width="13" height="15.3"/>
		<rect x="410.3" y="326.5" width="13.3" height="15.2"/>
		<rect x="377" y="345" width="13.3" height="15.2"/>
		<rect x="377" y="363.5" width="13.3" height="15.3"/>
		<rect x="393.7" y="289.5" width="13.3" height="15.2"/>
		<rect x="393.7" y="270.9" width="13.3" height="15.3"/>
		<rect x="393.7" y="308" width="13.3" height="15.3"/>
		<rect x="377" y="326.5" width="13.3" height="15.2"/>
		<rect x="377" y="308" width="13.3" height="15.3"/>
		<rect x="393.7" y="326.5" width="13.3" height="15.2"/>
		<rect x="410.3" y="270.9" width="13.3" height="15.3"/>
		<rect x="410.3" y="308" width="13.3" height="15.3"/>
		<rect x="410.3" y="289.5" width="13.3" height="15.2"/>
		<rect x="360.4" y="215.4" width="13.3" height="15.2"/>
		<rect x="343.8" y="196.9" width="13.4" height="15.3"/>
		<rect x="343.8" y="215.4" width="13.4" height="15.2"/>
		<rect x="343.8" y="233.9" width="13.4" height="15.3"/>
		<rect x="343.8" y="252.4" width="13.4" height="15.2"/>
		<rect x="377" y="196.9" width="13.3" height="15.3"/>
		<rect x="377" y="215.4" width="13.3" height="15.2"/>
		<rect x="360.4" y="196.9" width="13.3" height="15.3"/>
		<rect x="360.4" y="233.9" width="13.3" height="15.3"/>
		<rect x="360.4" y="252.4" width="13.3" height="15.2"/>
		<rect x="327.5" y="196.9" width="13" height="15.3"/>
		<rect x="327.5" y="215.4" width="13" height="15.2"/>
		<rect x="327.5" y="233.9" width="13" height="15.3"/>
		<rect x="327.5" y="252.4" width="13" height="15.2"/>
		<rect x="426.9" y="252.4" width="13" height="15.2"/>
		<rect x="426.9" y="233.9" width="13" height="15.3"/>
		<rect x="426.9" y="215.4" width="13" height="15.2"/>
		<rect x="426.9" y="196.9" width="13" height="15.3"/>
		<rect x="410.3" y="252.4" width="13.3" height="15.2"/>
		<rect x="393.7" y="215.4" width="13.3" height="15.2"/>
		<rect x="393.7" y="196.9" width="13.3" height="15.3"/>
		<rect x="393.7" y="233.9" width="13.3" height="15.3"/>
		<rect x="377" y="252.4" width="13.3" height="15.2"/>
		<rect x="377" y="233.9" width="13.3" height="15.3"/>
		<rect x="393.7" y="252.4" width="13.3" height="15.2"/>
		<rect x="410.3" y="196.9" width="13.3" height="15.3"/>
		<rect x="410.3" y="233.9" width="13.3" height="15.3"/>
		<rect x="410.3" y="215.4" width="13.3" height="15.2"/>
		<rect x="393.7" y="345" width="13.3" height="15.2"/>
		<rect x="393.7" y="363.5" width="13.3" height="15.3"/>
		<path d="M457.1,422.7h-80.5c-0.9,0-1.6,0.7-1.6,1.6s0.7,1.6,1.6,1.6h80.5c0.9,0,1.6-0.7,1.6-1.6S458,422.7,457.1,422.7z"/>
		<path d="M475.4,422.7h-10.1c-0.9,0-1.6,0.7-1.6,1.6s0.7,1.6,1.6,1.6h10.1c0.9,0,1.6-0.7,1.6-1.6S476.3,422.7,475.4,422.7z"/>
		<path d="M342,422.4h-38.2c-0.9,0-1.6,0.7-1.6,1.6s0.7,1.6,1.6,1.6H342c0.9,0,1.6-0.7,1.6-1.6C343.6,423.2,342.9,422.4,342,422.4z"
			/>
		<path d="M483.1,415.6h-7.6l0,0h-3.3l0,0h-14.5l0,0h-3.3h-14.5V382H327.5v33.6h-14.4H302c-0.9,0-1.6,0.7-1.6,1.6s0.7,1.6,1.6,1.6
			h181.1c0.9,0,1.6-0.7,1.6-1.6C484.7,416.3,484,415.6,483.1,415.6z M398.1,415.6h-3.3v-26.1h-9.4v26.1h-3.3v-26.1h-9.4v26.1h-3.3
			v-27.7c0-0.9,0.7-1.6,1.6-1.6h12.7h12.7c0.9,0,1.6,0.7,1.6,1.6L398.1,415.6L398.1,415.6z"/>
	</g>
	<g>
		<path d="M456.4,258.4V87.7c0-0.9-0.7-1.6-1.6-1.6s-1.6,0.7-1.6,1.6v170.7c0,0.9,0.7,1.6,1.6,1.6
			C455.6,260,456.4,259.3,456.4,258.4z"/>
		<path d="M463.3,94l-7.4-7.4c-0.6-0.6-1.7-0.6-2.3,0c-0.6,0.6-0.6,1.7,0,2.3l7.4,7.4c0.6,0.6,1.7,0.6,2.3,0
			C463.9,95.6,463.9,94.6,463.3,94z"/>
	</g>
	<g>
		<path d="M307.9,396.2V345c0-0.9-0.7-1.6-1.6-1.6s-1.6,0.7-1.6,1.6v51.2c0,0.9,0.7,1.6,1.6,1.6
			C307.2,397.8,307.9,397.1,307.9,396.2z"/>
		<path d="M314.8,351.2l-7.4-7.4c-0.6-0.6-1.7-0.6-2.3,0c-0.6,0.6-0.6,1.7,0,2.3l7.4,7.4c0.6,0.6,1.7,0.6,2.3,0
			C315.5,352.9,315.5,351.9,314.8,351.2z"/>
	</g>
	<g>
		<path d="M48,345.8c0.9,0,1.6-0.7,1.6-1.6v-30.6c0-0.9-0.7-1.6-1.6-1.6c-0.9,0-1.6,0.7-1.6,1.6v30.6
			C46.3,345.1,47.1,345.8,48,345.8z"/>
		<path d="M39.4,322.2c0.6,0.6,1.7,0.6,2.3,0l7.4-7.4c0.6-0.6,0.6-1.7,0-2.3s-1.7-0.6-2.3,0l-7.4,7.4
			C38.8,320.5,38.8,321.5,39.4,322.2z"/>
	</g>
</g>
</svg>
