<?xml version="1.0" encoding="utf-8"?>
<!-- Generator: Adobe Illustrator 24.0.2, SVG Export Plug-In . SVG Version: 6.00 Build 0)  -->
<svg version="1.1" id="Layer_1" xmlns="http://www.w3.org/2000/svg" xmlns:xlink="http://www.w3.org/1999/xlink" x="0px" y="0px"
	 viewBox="0 0 512 512" style="enable-background:new 0 0 512 512;" xml:space="preserve">
<g>
	<rect x="76.5" y="408.5" width="13.4" height="15.3"/>
	<rect x="109.7" y="408.5" width="13.3" height="15.3"/>
	<rect x="93.1" y="408.5" width="13.3" height="15.3"/>
	<rect x="60.2" y="408.5" width="13" height="15.3"/>
	<polygon points="154.6,355.8 132.5,355.8 100.3,355.8 78.2,355.8 78.2,361.2 154.6,361.2 	"/>
	<rect x="101.9" y="348.2" width="28.9" height="4.3"/>
	<polygon points="164.7,364.4 156.2,364.4 76.5,364.4 68,364.4 68,371.2 164.7,371.2 	"/>
	<path d="M73.2,388c0-0.9,0.7-1.6,1.6-1.6c0.9,0,1.6,0.7,1.6,1.6v17.2h13.4V388c0-0.9,0.7-1.6,1.6-1.6c0.9,0,1.6,0.7,1.6,1.6v17.2
		h13.3V388c0-0.9,0.7-1.6,1.6-1.6c0.9,0,1.6,0.7,1.6,1.6v17.2H123V388c0-0.9,0.7-1.6,1.6-1.6c0.9,0,1.6,0.7,1.6,1.6v17.2h13.3V388
		c0-0.9,0.7-1.6,1.6-1.6c0.9,0,1.6,0.7,1.6,1.6v17.2h13.3V388c0-0.9,0.7-1.6,1.6-1.6s1.6,0.7,1.6,1.6v17.2h13v-30.8h-6.2h-100h-6.2
		v30.8h13V388z"/>
	<rect x="159.5" y="408.5" width="13" height="15.3"/>
	<rect x="126.3" y="408.5" width="13.3" height="15.3"/>
	<rect x="142.9" y="408.5" width="13.3" height="15.3"/>
	<path d="M189.7,468.3h-80.5c-0.9,0-1.6,0.7-1.6,1.6s0.7,1.6,1.6,1.6h80.5c0.9,0,1.6-0.7,1.6-1.6C191.4,469,190.6,468.3,189.7,468.3
		z"/>
	<path d="M208,468.3H198c-0.9,0-1.6,0.7-1.6,1.6s0.7,1.6,1.6,1.6H208c0.9,0,1.6-0.7,1.6-1.6C209.7,469,208.9,468.3,208,468.3z"/>
	<path d="M74.6,468H36.5c-0.9,0-1.6,0.7-1.6,1.6c0,0.9,0.7,1.6,1.6,1.6h38.2c0.9,0,1.6-0.7,1.6-1.6C76.3,468.8,75.6,468,74.6,468z"
		/>
	<path d="M215.7,461.2h-7.6v0h-3.3v0h-14.5v0h-3.3h-14.5v-33.6H60.2v33.6H45.8H34.6c-0.9,0-1.6,0.7-1.6,1.6c0,0.9,0.7,1.6,1.6,1.6
		h181.1c0.9,0,1.6-0.7,1.6-1.6C217.4,461.9,216.7,461.2,215.7,461.2z M130.7,461.2h-3.3v-26.1H118v26.1h-3.3v-26.1h-9.4v26.1H102
		v-27.7c0-0.9,0.7-1.6,1.6-1.6h12.7h12.7c0.9,0,1.6,0.7,1.6,1.6V461.2z"/>
</g>
<g>
	<rect x="197.3" y="390.6" width="13.4" height="15.2"/>
	<rect x="197.3" y="409.1" width="13.4" height="15.3"/>
	<rect x="197.3" y="372.1" width="13.4" height="15.2"/>
	<rect x="213.9" y="390.6" width="13.3" height="15.2"/>
	<rect x="213.9" y="372.1" width="13.3" height="15.2"/>
	<rect x="213.9" y="409.1" width="13.3" height="15.3"/>
	<polygon points="275.4,318.1 253.3,318.1 221.1,318.1 199,318.1 199,323.5 275.4,323.5 	"/>
	<rect x="222.8" y="310.6" width="28.9" height="4.3"/>
	<rect x="181" y="390.6" width="13" height="15.2"/>
	<rect x="181" y="409.1" width="13" height="15.3"/>
	<rect x="181" y="372.1" width="13" height="15.2"/>
	<polygon points="285.6,326.8 277.1,326.8 197.4,326.8 188.8,326.8 188.8,333.6 285.6,333.6 	"/>
	<rect x="280.4" y="390.6" width="13" height="15.2"/>
	<rect x="280.4" y="372.1" width="13" height="15.2"/>
	<rect x="280.4" y="409.1" width="13" height="15.3"/>
	<rect x="263.8" y="390.6" width="13.3" height="15.2"/>
	<rect x="263.8" y="409.1" width="13.3" height="15.3"/>
	<path d="M194,350.4c0-0.9,0.7-1.6,1.6-1.6c0.9,0,1.6,0.7,1.6,1.6v17.2h13.4v-17.2c0-0.9,0.7-1.6,1.6-1.6c0.9,0,1.6,0.7,1.6,1.6
		v17.2h13.3v-17.2c0-0.9,0.7-1.6,1.6-1.6c0.9,0,1.6,0.7,1.6,1.6v17.2h13.3v-17.2c0-0.9,0.7-1.6,1.6-1.6c0.9,0,1.6,0.7,1.6,1.6v17.2
		h13.3v-17.2c0-0.9,0.7-1.6,1.6-1.6c0.9,0,1.6,0.7,1.6,1.6v17.2h13.3v-17.2c0-0.9,0.7-1.6,1.6-1.6c0.9,0,1.6,0.7,1.6,1.6v17.2h13
		v-30.8h-6.2h-100H181v30.8h13V350.4z"/>
	<rect x="263.8" y="372.1" width="13.3" height="15.2"/>
	<rect x="230.5" y="390.6" width="13.3" height="15.2"/>
	<rect x="230.5" y="409.1" width="13.3" height="15.3"/>
	<rect x="230.5" y="372.1" width="13.3" height="15.2"/>
	<rect x="247.2" y="372.1" width="13.3" height="15.2"/>
	<rect x="247.2" y="390.6" width="13.3" height="15.2"/>
	<rect x="247.2" y="409.1" width="13.3" height="15.3"/>
	<path d="M310.6,468.3h-80.5c-0.9,0-1.6,0.7-1.6,1.6s0.7,1.6,1.6,1.6h80.5c0.9,0,1.6-0.7,1.6-1.6C312.2,469,311.5,468.3,310.6,468.3
		z"/>
	<path d="M328.9,468.3h-10.1c-0.9,0-1.6,0.7-1.6,1.6s0.7,1.6,1.6,1.6h10.1c0.9,0,1.6-0.7,1.6-1.6C330.5,469,329.8,468.3,328.9,468.3
		z"/>
	<path d="M195.5,468h-38.2c-0.9,0-1.6,0.7-1.6,1.6c0,0.9,0.7,1.6,1.6,1.6h38.2c0.9,0,1.6-0.7,1.6-1.6
		C197.1,468.8,196.4,468,195.5,468z"/>
	<path d="M336.6,461.2H329v0h-3.3v0h-14.5v0h-3.3h-14.5v-33.6H181v33.6h-14.4h-11.1c-0.9,0-1.6,0.7-1.6,1.6c0,0.9,0.7,1.6,1.6,1.6
		h181.1c0.9,0,1.6-0.7,1.6-1.6C338.2,461.9,337.5,461.2,336.6,461.2z M251.6,461.2h-3.3v-26.1h-9.4v26.1h-3.3v-26.1h-9.4v26.1h-3.3
		v-27.7c0-0.9,0.7-1.6,1.6-1.6h12.7h12.7c0.9,0,1.6,0.7,1.6,1.6V461.2z"/>
</g>
<g>
	<rect x="343.8" y="390.6" width="13.4" height="15.2"/>
	<rect x="343.8" y="409.1" width="13.4" height="15.3"/>
	<rect x="360.4" y="335.1" width="13.3" height="15.2"/>
	<rect x="343.8" y="316.5" width="13.4" height="15.3"/>
	<rect x="343.8" y="335.1" width="13.4" height="15.2"/>
	<rect x="343.8" y="353.6" width="13.4" height="15.3"/>
	<rect x="343.8" y="372.1" width="13.4" height="15.2"/>
	<rect x="377" y="316.5" width="13.3" height="15.3"/>
	<rect x="377" y="335.1" width="13.3" height="15.2"/>
	<rect x="360.4" y="390.6" width="13.3" height="15.2"/>
	<rect x="360.4" y="316.5" width="13.3" height="15.3"/>
	<rect x="360.4" y="353.6" width="13.3" height="15.3"/>
	<rect x="360.4" y="372.1" width="13.3" height="15.2"/>
	<rect x="360.4" y="409.1" width="13.3" height="15.3"/>
	<rect x="327.5" y="316.5" width="13" height="15.3"/>
	<rect x="327.5" y="335.1" width="13" height="15.2"/>
	<rect x="327.5" y="353.6" width="13" height="15.3"/>
	<polygon points="421.9,190.2 399.8,190.2 367.6,190.2 345.5,190.2 345.5,195.6 421.9,195.6 	"/>
	<rect x="369.3" y="182.6" width="28.9" height="4.3"/>
	<rect x="327.5" y="390.6" width="13" height="15.2"/>
	<rect x="327.5" y="409.1" width="13" height="15.3"/>
	<rect x="327.5" y="372.1" width="13" height="15.2"/>
	<polygon points="432.1,198.8 423.6,198.8 343.9,198.8 335.3,198.8 335.3,205.6 432.1,205.6 	"/>
	<rect x="426.9" y="390.6" width="13" height="15.2"/>
	<rect x="426.9" y="372.1" width="13" height="15.2"/>
	<rect x="426.9" y="409.1" width="13" height="15.3"/>
	<rect x="410.3" y="390.6" width="13.3" height="15.2"/>
	<rect x="426.9" y="353.6" width="13" height="15.3"/>
	<rect x="410.3" y="409.1" width="13.3" height="15.3"/>
	<path d="M340.5,222.4c0-0.9,0.7-1.6,1.6-1.6c0.9,0,1.6,0.7,1.6,1.6v17.2h13.4v-17.2c0-0.9,0.7-1.6,1.6-1.6c0.9,0,1.6,0.7,1.6,1.6
		v17.2h13.3v-17.2c0-0.9,0.7-1.6,1.6-1.6c0.9,0,1.6,0.7,1.6,1.6v17.2h13.3v-17.2c0-0.9,0.7-1.6,1.6-1.6c0.9,0,1.6,0.7,1.6,1.6v17.2
		H407v-17.2c0-0.9,0.7-1.6,1.6-1.6c0.9,0,1.6,0.7,1.6,1.6v17.2h13.3v-17.2c0-0.9,0.7-1.6,1.6-1.6s1.6,0.7,1.6,1.6v17.2h13v-30.8
		h-6.2h-100h-6.2v30.8h13V222.4z"/>
	<rect x="426.9" y="335.1" width="13" height="15.2"/>
	<rect x="426.9" y="316.5" width="13" height="15.3"/>
	<rect x="410.3" y="372.1" width="13.3" height="15.2"/>
	<rect x="377" y="390.6" width="13.3" height="15.2"/>
	<rect x="377" y="409.1" width="13.3" height="15.3"/>
	<rect x="393.7" y="335.1" width="13.3" height="15.2"/>
	<rect x="393.7" y="316.5" width="13.3" height="15.3"/>
	<rect x="393.7" y="353.6" width="13.3" height="15.3"/>
	<rect x="377" y="372.1" width="13.3" height="15.2"/>
	<rect x="377" y="353.6" width="13.3" height="15.3"/>
	<rect x="393.7" y="372.1" width="13.3" height="15.2"/>
	<rect x="410.3" y="316.5" width="13.3" height="15.3"/>
	<rect x="410.3" y="353.6" width="13.3" height="15.3"/>
	<rect x="410.3" y="335.1" width="13.3" height="15.2"/>
	<rect x="360.4" y="261" width="13.3" height="15.2"/>
	<rect x="343.8" y="242.5" width="13.4" height="15.3"/>
	<rect x="343.8" y="261" width="13.4" height="15.2"/>
	<rect x="343.8" y="279.5" width="13.4" height="15.3"/>
	<rect x="343.8" y="298" width="13.4" height="15.2"/>
	<rect x="377" y="242.5" width="13.3" height="15.3"/>
	<rect x="377" y="261" width="13.3" height="15.2"/>
	<rect x="360.4" y="242.5" width="13.3" height="15.3"/>
	<rect x="360.4" y="279.5" width="13.3" height="15.3"/>
	<rect x="360.4" y="298" width="13.3" height="15.2"/>
	<rect x="327.5" y="242.5" width="13" height="15.3"/>
	<rect x="327.5" y="261" width="13" height="15.2"/>
	<rect x="327.5" y="279.5" width="13" height="15.3"/>
	<rect x="327.5" y="298" width="13" height="15.2"/>
	<rect x="426.9" y="298" width="13" height="15.2"/>
	<rect x="426.9" y="279.5" width="13" height="15.3"/>
	<rect x="426.9" y="261" width="13" height="15.2"/>
	<rect x="426.9" y="242.5" width="13" height="15.3"/>
	<rect x="410.3" y="298" width="13.3" height="15.2"/>
	<rect x="393.7" y="261" width="13.3" height="15.2"/>
	<rect x="393.7" y="242.5" width="13.3" height="15.3"/>
	<rect x="393.7" y="279.5" width="13.3" height="15.3"/>
	<rect x="377" y="298" width="13.3" height="15.2"/>
	<rect x="377" y="279.5" width="13.3" height="15.3"/>
	<rect x="393.7" y="298" width="13.3" height="15.2"/>
	<rect x="410.3" y="242.5" width="13.3" height="15.3"/>
	<rect x="410.3" y="279.5" width="13.3" height="15.3"/>
	<rect x="410.3" y="261" width="13.3" height="15.2"/>
	<rect x="393.7" y="390.6" width="13.3" height="15.2"/>
	<rect x="393.7" y="409.1" width="13.3" height="15.3"/>
	<path d="M457.1,468.3h-80.5c-0.9,0-1.6,0.7-1.6,1.6s0.7,1.6,1.6,1.6h80.5c0.9,0,1.6-0.7,1.6-1.6C458.7,469,458,468.3,457.1,468.3z"
		/>
	<path d="M475.4,468.3h-10.1c-0.9,0-1.6,0.7-1.6,1.6s0.7,1.6,1.6,1.6h10.1c0.9,0,1.6-0.7,1.6-1.6C477,469,476.3,468.3,475.4,468.3z"
		/>
	<path d="M342,468h-38.2c-0.9,0-1.6,0.7-1.6,1.6c0,0.9,0.7,1.6,1.6,1.6H342c0.9,0,1.6-0.7,1.6-1.6C343.6,468.8,342.9,468,342,468z"
		/>
	<path d="M483.1,461.2h-7.6v0h-3.3v0h-14.5v0h-3.3h-14.5v-33.6H327.5v33.6h-14.4H302c-0.9,0-1.6,0.7-1.6,1.6c0,0.9,0.7,1.6,1.6,1.6
		h181.1c0.9,0,1.6-0.7,1.6-1.6C484.7,461.9,484,461.2,483.1,461.2z M398.1,461.2h-3.3v-26.1h-9.4v26.1h-3.3v-26.1h-9.4v26.1h-3.3
		v-27.7c0-0.9,0.7-1.6,1.6-1.6h12.7h12.7c0.9,0,1.6,0.7,1.6,1.6V461.2z"/>
</g>
<g>
	<path d="M456.4,304V133.3c0-0.9-0.7-1.6-1.6-1.6c-0.9,0-1.6,0.7-1.6,1.6V304c0,0.9,0.7,1.6,1.6,1.6
		C455.6,305.6,456.4,304.9,456.4,304z"/>
	<path d="M463.3,139.6l-7.4-7.4c-0.6-0.6-1.7-0.6-2.3,0c-0.6,0.6-0.6,1.7,0,2.3l7.4,7.4c0.6,0.6,1.7,0.6,2.3,0
		C463.9,141.2,463.9,140.2,463.3,139.6z"/>
</g>
<g>
	<path d="M307.9,441.8v-51.2c0-0.9-0.7-1.6-1.6-1.6c-0.9,0-1.6,0.7-1.6,1.6v51.2c0,0.9,0.7,1.6,1.6,1.6
		C307.2,443.4,307.9,442.7,307.9,441.8z"/>
	<path d="M314.8,396.8l-7.4-7.4c-0.6-0.6-1.7-0.6-2.3,0c-0.6,0.6-0.6,1.7,0,2.3l7.4,7.4c0.6,0.6,1.7,0.6,2.3,0
		C315.5,398.5,315.5,397.5,314.8,396.8z"/>
</g>
<g>
	<path d="M48,391.4c0.9,0,1.6-0.7,1.6-1.6v-30.6c0-0.9-0.7-1.6-1.6-1.6c-0.9,0-1.6,0.7-1.6,1.6v30.6C46.3,390.7,47.1,391.4,48,391.4
		z"/>
	<path d="M39.4,367.8c0.6,0.6,1.7,0.6,2.3,0l7.4-7.4c0.6-0.6,0.6-1.7,0-2.3s-1.7-0.6-2.3,0l-7.4,7.4
		C38.8,366.1,38.8,367.1,39.4,367.8z"/>
</g>
</svg>
