<svg id="Layer_1" data-name="Layer 1" xmlns="http://www.w3.org/2000/svg" viewBox="0 0 510.24 510.24"><defs><style>.cls-1{fill:#d81b60;}.cls-2{fill:#fff;stroke:#1d1d1b;stroke-miterlimit:10;stroke-width:7px;}.cls-3{fill-rule:evenodd;}</style></defs><path class="cls-1" d="M240.73,259.81s-27.92-33.26-25.82-80.43,52.63-62.06,103.77-48.66,39.72,86.71,39.72,86.71l-28.8,48.31L406.06,311l-11.92,86.89-242.29,3.47s-2.48-66,5.47-74.47,78.94-54,78.94-54Z"/><path class="cls-2" d="M388.82,416.18c.86-.86,1.95-1.52,2.82-2.38.65-.66,1.3-1.09,1.95-1.74.66-.44,1.09-1.09,1.74-1.52A213.93,213.93,0,0,0,448.77,336c.21-.65.65-1.52.87-2.17.43-.87.65-1.74,1.08-2.61.44-1.3.87-2.39,1.31-3.69.21-.43.21-.65.43-1.09a36.93,36.93,0,0,0,1.52-4.56h0A206.72,206.72,0,0,0,465.06,255c0-115.13-94.27-209-210-209S45.18,140.1,45.18,255.23s94.27,209,210.05,209a209,209,0,0,0,133.15-47.57ZM256.17,119.67c35.67,0,64.77,27.41,64.77,61.21,0,30.41-21.59,84.86-64.77,84.86-43,0-64.77-54.26-64.77-84.86C191.4,147.27,220.5,119.67,256.17,119.67ZM142.39,390.78a8.81,8.81,0,0,1-8.82-8.82c0-7.89-.19-14.65-.19-20.84-.75-48.25,1.32-51.45,42.43-72.1,7.89-3.94,17.84-8.82,29.48-15.21a9,9,0,0,1,9.2.57l40.74,27.78L296,274.38a9,9,0,0,1,9.2-.57c11.45,6.2,21.22,11.08,28.91,14.84,20.84,10.51,31.36,15.77,37.55,26.09,6,10.33,5.82,22.53,5.45,46.75,0,6-.19,12.58-.19,20.28a8.81,8.81,0,0,1-8.82,8.82l-225.68.19Z"/><path class="cls-3" d="M161.59,166a3.28,3.28,0,0,0,3.09-2.48c6.42-22.31,17.72-42.34,32.42-57.08,15.86-15.89,35.76-25.68,58-25.68,22.6,0,42.72,9.68,58.68,25.64,14.6,14.63,25.69,34.55,31.89,57.08a3.28,3.28,0,0,0,3.1,2.52h0a3.35,3.35,0,0,1,3.23,3.47v25.15a3.35,3.35,0,0,1-3.23,3.47H332a3.4,3.4,0,0,1-3.19-4,85.67,85.67,0,0,0,.85-12.08,87.31,87.31,0,0,0-.83-12,3.4,3.4,0,0,1,3.19-4h.71a3.45,3.45,0,0,0,3.07-4.59c-5.95-18.93-15.64-35.63-28.05-48.07C293.41,99,275.33,90.23,255.08,90.23c-19.83,0-37.7,8.79-52,23.12-12.5,12.49-22.3,29.23-28.46,48a3.45,3.45,0,0,0,3.06,4.63h.49a3.39,3.39,0,0,1,3.18,4,86,86,0,0,0,0,24,3.41,3.41,0,0,1-3.19,4H161.49a3.36,3.36,0,0,1-3.24-3.47V169.44a3.36,3.36,0,0,1,3.24-3.47Z"/></svg>