<?xml version="1.0" encoding="utf-8"?>
<!-- Generator: Adobe Illustrator 24.1.3, SVG Export Plug-In . SVG Version: 6.00 Build 0)  -->
<svg version="1.1" id="Layer_1" xmlns="http://www.w3.org/2000/svg" xmlns:xlink="http://www.w3.org/1999/xlink" x="0px" y="0px"
	 viewBox="0 0 800 210" style="enable-background:new 0 0 800 210;" xml:space="preserve">
<style type="text/css">
	.st0{opacity:0.9;fill:#FFFFFF;}
	.st1{fill:#FFFFFF;}
	.st2{opacity:0.7;fill:#FFFFFF;}
</style>
<path class="st0" d="M112.2,60.1h5.2v2.2h-5.2v1.9c0,1.3-0.3,2-1.2,2.3c-1.3,0.3-2.7,0.5-4,0.4c-0.2-0.9-0.5-1.7-0.9-2.5
	c1.2,0.1,2.5,0.1,2.9,0.1s0.5-0.1,0.5-0.4v-1.9h-7.2c0.9,0.6,1.7,1.3,2.5,2.1l-2.1,1.8c-1-1.1-2-2-3.2-2.8l1.3-1.1h-5.4v-2.2h14v-1
	c-1.6,0-3.1,0-4.2,0c-2.4-0.1-4.1-0.6-5.2-2.2c-1.2,0.8-2.3,1.5-3.7,2.4l-1-2.3c0.9-0.4,2-1,3-1.5v-3h-2.8v-2.2h5.4V55
	c0.8,1.3,2.2,1.9,4.3,1.9c2.9,0.1,9.2,0,12.6-0.2c-0.3,0.7-0.5,1.5-0.7,2.2c-1.3,0-3,0.1-4.8,0.1L112.2,60.1z M99.3,49.3
	c-0.9-1.2-2.1-2.2-3.3-3.1l1.8-1.6c1.3,0.8,2.4,1.8,3.4,3L99.3,49.3z M107.6,49.1c0-0.2,0.1-0.5,0.2-0.8h-6.2v-1.9h3.6
	c-0.2-0.5-0.5-1.1-0.8-1.6l2.3-0.4c0.4,0.6,0.8,1.3,1.1,2h3.3c0.4-0.6,0.7-1.3,1-2l2.7,0.4c-0.4,0.6-0.7,1.2-1.1,1.6h3.6v1.9h-6.9
	l-0.3,0.8h5.2v7.2h-11.8v-7.3L107.6,49.1z M112.6,50.3h-6.4v0.7h6.4V50.3z M112.6,52.3h-6.4V53h6.4V52.3z M112.6,54.3h-6.4V55h6.4
	V54.3z"/>
<path class="st0" d="M132.9,45.8c0,4.6,0.6,13.4,9.5,18.6c-0.9,0.7-1.6,1.6-2.3,2.5c-4.3-2.7-7.5-6.9-8.9-11.9
	c-1.8,5.4-4.7,9.4-8.9,11.9c-0.8-0.8-1.7-1.6-2.6-2.3c5-2.5,7.9-7.2,9.2-13.5l1.5,0.3c-0.2-0.9-0.3-1.7-0.3-2.6h-5.5v-3H132.9z"/>
<path class="st0" d="M153.5,60.4c-0.5-0.7-1.3-1.6-2.1-2.5V67h-2.9v-8.4c-0.9,0.9-1.9,1.6-3,2.3c-0.3-1-0.8-1.9-1.4-2.7
	c2.8-1.6,5.1-3.9,6.8-6.8H145v-2.6h3.4v-4.4h2.9v4.4h1.1l0.5-0.1l1.6,1c-0.7,1.9-1.7,3.6-2.8,5.3c1.2,0.9,3,2.6,3.5,3.1L153.5,60.4z
	 M167.3,63.5v2.8h-13.7v-2.8h5.6v-8.8h-4.6v-2.8h4.6v-7.2h2.9v7.2h4.6v2.8h-4.6v8.8H167.3z"/>
<path class="st0" d="M190.4,51.4c-0.3,3.1-1.2,6.2-2.6,9c1,1.7,2.5,3.1,4.3,4c-0.8,0.7-1.5,1.6-2,2.5c-1.6-1-3-2.3-4.1-3.8
	c-1.4,1.7-3.1,3-5,4c-0.3-0.6-0.6-1.1-0.9-1.6l-1.1,1.1c-0.8-0.7-1.6-1.3-2.5-1.8c-1.8,1.2-3.8,2-6,2.3c-0.2-0.9-0.6-1.7-1.1-2.4
	c1.6-0.1,3.2-0.6,4.6-1.3c-0.4-0.2-0.9-0.5-1.4-0.7l-0.3,0.5l-2.5-0.8c0.5-0.8,1.1-1.9,1.7-3.1h-2.3v-2.3h3.5
	c0.3-0.6,0.6-1.2,0.8-1.7l0.5,0.1V53c-1.1,1.1-2.3,2-3.6,2.8c-0.4-0.8-0.9-1.5-1.4-2.1c1.6-0.7,3-1.7,4.2-3h-3.8v-2.3h1.8
	c-0.3-1-0.7-1.9-1.3-2.8l2.1-0.9c0.6,0.9,1.1,1.9,1.4,3l-1.5,0.7h2v-4.1h2.6v4.1h1.9l-1.6-0.7c0.6-1,1.2-2,1.6-3.1l2.4,1
	c-0.8,1-1.5,2-2.1,2.8h2.3v2.3h-4c1.2,0.7,2.9,1.7,3.4,2l-1.5,2c-0.5-0.5-1.5-1.3-2.5-2.1v2.9h-1.6l1,0.2l-0.6,1.2h5.8
	c-0.6-0.6-1.3-1.2-2-1.7c2-2.5,3.2-6.6,3.8-10.9l2.9,0.4c-0.2,1.3-0.5,2.7-0.8,4h6.4v2.6H190.4z M173.8,60.5
	c0.7,0.3,1.4,0.6,2.1,0.9c0.4-0.7,0.7-1.4,0.9-2.2h-2.3L173.8,60.5z M179.5,59.3c-0.2,1.2-0.6,2.4-1.3,3.4c0.7,0.4,1.4,0.8,2,1.3
	c1.7-0.9,3.1-2.1,4.3-3.7c-0.7-1.5-1.3-3.1-1.6-4.8c-0.3,0.6-0.7,1.2-1.1,1.7l-0.3-0.4v2.3L179.5,59.3z M184.7,51.4
	c0.3,1.9,0.8,3.8,1.5,5.7c0.6-1.8,1.1-3.7,1.3-5.7H184.7z"/>
<path class="st1" d="M107.6,113h-3.7v8.1h-5.8V113H84.9v-4.2L96.5,90h7.4v18.3h3.7L107.6,113z M98.1,108.3v-6.3
	c0-1.8,0.2-4.6,0.3-6.4h-0.2c-0.8,1.6-1.6,3.4-2.5,5l-4.8,7.7L98.1,108.3z"/>
<path class="st1" d="M111.7,105.4c0-10.8,4.2-16,10.6-16s10.5,5.3,10.5,16s-4.2,16.3-10.5,16.3S111.7,116.1,111.7,105.4z
	 M126.9,105.4c0-8.7-2-11.2-4.7-11.2s-4.7,2.5-4.7,11.2s2,11.4,4.7,11.4S126.9,114.1,126.9,105.4z"/>
<path class="st1" d="M137.5,105.4c0-10.8,4.2-16,10.6-16s10.5,5.3,10.5,16s-4.2,16.3-10.5,16.3S137.5,116.1,137.5,105.4z
	 M152.7,105.4c0-8.7-2-11.2-4.7-11.2s-4.7,2.5-4.7,11.2s2,11.4,4.7,11.4S152.7,114.1,152.7,105.4z"/>
<path class="st1" d="M178.4,113.3c-0.9-1.2-2.3-2.9-3.7-4.4v15.8h-5v-14.5c-1.6,1.5-3.4,2.8-5.2,4c-0.6-1.7-1.4-3.3-2.4-4.8
	c4.9-2.8,9-6.9,11.8-11.8h-10.1v-4.5h6v-7.7h5v7.7h1.9l0.9-0.2l2.8,1.8c-1.3,3.2-3,6.2-5,9c2,1.6,5.3,4.5,6.1,5.4L178.4,113.3z
	 M202.5,118.6v4.9h-23.8v-4.9h9.7v-15.4h-8v-4.8h8V85.8h5.1v12.6h7.9v4.8h-7.9v15.4H202.5z"/>
<path class="st0" d="M130.6,158.8c-3.2,1.4-6.8,2.9-9.5,4.1l-1-3.1c0.9-0.3,2-0.7,3.2-1.2l-0.5-14.1l3-0.1l0.4,13.1
	c1.2-0.5,2.4-1,3.6-1.5L130.6,158.8z M140.6,165.6c-1.3-2.1-2.8-4-4.5-5.8c-1.9,2.6-4.4,4.6-7.3,5.9c-0.7-0.9-1.4-1.8-2.3-2.5
	c7.7-2.9,10.1-8.7,11-18.7l3.2,0.3c-0.5,4.9-1.4,9-3,12.3c1.9,1.9,3.7,4,5.4,6.2L140.6,165.6z M131.6,153.2c-0.9-2.2-2.1-4.2-3.6-6
	l2.6-1.3c1.5,1.7,2.8,3.7,3.8,5.8L131.6,153.2z"/>
<path class="st0" d="M167.2,161.5v2.9h-21.9v-2.9h8.6v-18.2h3.1v6.9h8.5v2.9H157v8.4H167.2z"/>
<path class="st2" d="M48,21.6h33.3v12.8H62v49.5H48V21.6z"/>
<path class="st2" d="M235.4,188.4H202v-12.8h19.3v-49.5h14L235.4,188.4z"/>
<path class="st0" d="M344.9,60.7c1.6,2.2,4.4,3.2,8.9,3.5c-0.7,0.8-1.3,1.8-1.8,2.8c-4.6-0.6-7.4-1.9-9.2-4.6c-1.2,2-4,3.8-10.1,4.6
	c-0.5-0.9-1-1.7-1.6-2.4c6.2-0.8,8.5-2.3,9.3-3.9h-8.7v-2.4h9v-1.4h2.9v1.4h9.5v2.4L344.9,60.7z M331.4,54.2
	c1.2-0.1,2.6-0.2,4.1-0.4v-2h-3.3v-2.2h3.3v-1.5h-3.7V46h3.7v-1.7h2.7V46h3.4v2.1h-3.4v1.5h3.1v2.2h-3.1v1.7l3.4-0.4v1.3
	c2.5-1.5,3-3.7,3.2-6.7h-2.8v-2.4h10.8c0,0,0,0.8,0,1.1c-0.2,5.8-0.5,8.1-1.1,8.9c-0.4,0.5-1,0.9-1.7,0.9c-0.9,0.1-1.8,0.1-2.7,0.1
	c0-0.9-0.3-1.8-0.8-2.6c0.9,0.1,1.6,0.1,2,0.1c0.3,0,0.6-0.1,0.7-0.3c0.3-0.4,0.5-2,0.7-5.8h-2.6c-0.3,4.1-1.2,7.1-4.7,9
	c-0.3-0.6-0.7-1.2-1.2-1.7v0.3c-3.5,0.5-7.3,0.9-10,1.2L331.4,54.2z"/>
<path class="st0" d="M359.1,58.9c-0.2,2.1-0.7,4.2-1.5,6.2c-0.7-0.4-1.4-0.7-2.2-1c0.7-1.8,1.2-3.7,1.3-5.6L359.1,58.9z M377.9,48.4
	c0,0,0,1,0,1.3c-0.3,10.6-0.7,14.4-1.7,15.7c-0.5,0.8-1.4,1.3-2.3,1.3c-1.2,0.1-2.5,0.1-3.8,0.1c-0.1-1-0.5-2-1-2.9
	c1.5,0.2,2.9,0.2,3.5,0.2c0.4,0,0.8-0.1,1-0.4c0.7-0.8,1.1-4.3,1.4-12.5h-6.7c-0.6,1.1-1.3,2.1-2,3.1c-0.7-0.6-1.5-1.1-2.3-1.6
	c0.8,1.4,1.5,2.9,1.9,4.5l-2.2,1c-0.1-0.4-0.2-0.9-0.3-1.3l-1.4,0.1v9.9h-2.5v-9.7l-3.6,0.2l-0.2-2.5l1.8-0.1c0.4-0.5,0.7-1,1.1-1.5
	c-0.9-1.2-1.8-2.3-2.9-3.3l1.4-2l0.6,0.5c0.7-1.4,1.3-2.8,1.8-4.2l2.5,0.9c-0.9,1.7-1.9,3.5-2.7,4.9c0.3,0.3,0.6,0.7,0.8,1
	c0.8-1.3,1.6-2.6,2.2-4l2.4,1c-1.4,2.3-3,4.4-4.6,6.5l2.4-0.1c-0.3-0.6-0.5-1.1-0.8-1.7l2-0.9l0.2,0.3c1.9-2.3,3.3-5.1,4-8l2.9,0.6
	c-0.3,1.2-0.7,2.3-1.2,3.5L377.9,48.4z M364.3,58.3c0.7,1.5,1.2,3,1.6,4.5l-2.3,0.8c-0.3-1.6-0.8-3.2-1.4-4.7L364.3,58.3z
	 M369.9,60.8c-0.7-2-1.7-3.9-2.9-5.6l2.3-1.2c1.3,1.7,2.3,3.5,3.1,5.4L369.9,60.8z"/>
<path class="st0" d="M402.9,47.2v2.7h-17.5v3.4c0,3.9-0.4,9.9-2.5,13.6c-0.8-0.6-1.6-1.2-2.5-1.6c2-3.5,2.1-8.5,2.1-12v-6.1h8.6
	v-2.8h3v2.8H402.9z M395,52.5h7.5V55H395v2.6h6.1v9.2h-2.9V66h-8.6v0.9h-2.8v-9.2h5.3v-7.4h2.9V52.5z M398.2,60.2h-8.6v3.3h8.6V60.2
	z"/>
<path class="st0" d="M422.8,50v1.6h4.5v12.6c0,1.1-0.1,1.8-0.8,2.2c-0.8,0.4-1.7,0.6-2.6,0.5c-0.1-0.8-0.4-1.7-0.7-2.4
	c0.6,0,1.2,0,1.4,0s0.3-0.1,0.3-0.3v-2.4h-2v5h-2.6v-5h-1.9v5.1h-2.5V51.6h4.4V50h-4.8v-1.1l-1.6,2c-0.9-1.4-1.9-2.7-3.1-3.9
	c-1,1.7-2.2,3.2-3.6,4.6h2.2v-2h2.6v2h2.8v2.2H412v1.6h3.3v2.3h-9.4v-2.3h3.5v-1.6h-2.7v-1.9c-0.5-0.7-1.1-1.3-1.8-1.8
	c1.8-1.6,3.2-3.5,4.1-5.7h2.4c1.5,1.2,2.8,2.6,4,4.1v-1h4.8v-3.1h2.6v3.2h2.6c-0.7-0.7-1.5-1.3-2.3-1.9l1.7-1.3
	c1,0.6,1.9,1.3,2.7,2.1l-1.3,1h1.4V50H422.8z M406.5,58.8h8.4v7.6h-2.6v-0.8H409v1.2h-2.5V58.8z M409,61.1v2.2h3.3v-2.2H409z
	 M418.4,54v1.5h1.9V54H418.4z M420.2,59.4v-1.6h-1.9v1.6L420.2,59.4z M422.8,54v1.5h2V54H422.8z M424.8,59.4v-1.6h-2v1.6L424.8,59.4
	z"/>
<path class="st0" d="M451.2,51.3c-0.4,3.1-1.2,6.2-2.6,9c1.1,1.7,2.5,3.1,4.3,4c-0.8,0.7-1.5,1.6-2,2.5c-1.6-1-3-2.3-4-3.8
	c-1.4,1.7-3.1,3-5.1,4c-0.3-0.6-0.6-1.1-0.9-1.6l-1.1,1.1c-0.8-0.7-1.6-1.3-2.5-1.8c-1.8,1.2-3.8,2-5.9,2.3
	c-0.2-0.9-0.6-1.7-1.1-2.4c1.6-0.1,3.1-0.6,4.6-1.3c-0.4-0.2-0.9-0.5-1.4-0.7l-0.3,0.5l-2.5-0.8c0.5-0.8,1.1-1.9,1.7-3.1h-2.3v-2.4
	h3.5c0.3-0.6,0.6-1.2,0.8-1.7l0.5,0.1V53c-1.1,1.1-2.3,2-3.6,2.8c-0.4-0.8-0.9-1.5-1.5-2.1c1.6-0.7,3-1.7,4.3-3h-3.8v-2.3h1.8
	c-0.3-1-0.7-1.9-1.3-2.8l2.1-0.9c0.6,0.9,1.1,1.9,1.5,3l-1.5,0.7h2v-4.1h2.6v4.1h1.9l-1.6-0.7c0.6-1,1.2-2,1.6-3.1l2.4,1
	c-0.8,1-1.5,2-2.1,2.8h2.3v2.3h-4c1.1,0.7,2.9,1.7,3.4,2l-1.5,2c-0.5-0.5-1.5-1.4-2.5-2.1v2.9H436l1,0.2l-0.6,1.2h5.7
	c-0.6-0.6-1.3-1.2-2-1.7c2-2.5,3.2-6.6,3.8-10.9l2.9,0.4c-0.2,1.3-0.5,2.7-0.8,4h6.4v2.7L451.2,51.3z M434.6,60.5
	c0.7,0.3,1.4,0.6,2.1,0.9c0.4-0.7,0.7-1.4,0.9-2.2h-2.3L434.6,60.5z M440.3,59.2c-0.2,1.2-0.7,2.4-1.3,3.4c0.7,0.4,1.4,0.8,2,1.3
	c1.7-0.9,3.1-2.1,4.3-3.7c-0.7-1.5-1.3-3.1-1.6-4.8c-0.3,0.6-0.7,1.2-1.1,1.7c-0.1-0.1-0.2-0.2-0.3-0.4v2.3H440.3z M445.5,51.4
	c0.3,1.9,0.8,3.8,1.5,5.6c0.6-1.8,1.1-3.7,1.3-5.7L445.5,51.4z"/>
<path class="st1" d="M301.7,113.4h6.7V93.7h-5.6v-3.8c2.6-0.4,5-1.3,7.2-2.6h4.6v26.1h5.8v5h-18.7L301.7,113.4z"/>
<path class="st1" d="M325.9,114.8c8.5-7.6,13.5-13.4,13.5-18.2c0-3.2-1.7-5-4.7-5c-2.3,0-4.2,1.5-5.7,3.2l-3.4-3.4
	c2.9-3,5.6-4.7,9.9-4.7c5.9,0,9.8,3.8,9.8,9.6c0,5.6-4.7,11.7-10.4,17.2c1.6-0.2,3.6-0.3,5-0.3h6.8v5.2h-20.8V114.8z"/>
<path class="st1" d="M352.1,124c3.2-1.2,5-3.3,5-5.8h-0.4c-2,0.1-3.7-1.4-3.9-3.4c0-0.1,0-0.2,0-0.3c0-2.1,1.7-3.7,3.8-3.7
	c0.1,0,0.2,0,0.2,0c2.9,0,4.5,2.3,4.5,6.1c0,4.9-2.9,8.7-7.9,10.3L352.1,124z"/>
<path class="st1" d="M366.4,102.7c0-10.8,4.2-16,10.5-16s10.5,5.3,10.5,16S383.3,119,377,119S366.4,113.4,366.4,102.7z M381.7,102.7
	c0-8.7-2-11.2-4.7-11.2s-4.7,2.5-4.7,11.2s2,11.4,4.7,11.4S381.7,111.4,381.7,102.7z"/>
<path class="st1" d="M392.3,102.7c0-10.8,4.2-16,10.5-16s10.5,5.3,10.5,16s-4.2,16.3-10.5,16.3S392.3,113.4,392.3,102.7z
	 M407.5,102.7c0-8.7-2-11.2-4.7-11.2s-4.7,2.5-4.7,11.2s2,11.4,4.7,11.4S407.5,111.4,407.5,102.7z"/>
<path class="st1" d="M418,102.7c0-10.8,4.2-16,10.6-16s10.5,5.3,10.5,16s-4.2,16.3-10.5,16.3S418,113.4,418,102.7z M433.3,102.7
	c0-8.7-2-11.2-4.7-11.2s-4.7,2.5-4.7,11.2s2,11.4,4.7,11.4S433.3,111.4,433.3,102.7z"/>
<path class="st1" d="M482.3,87.7v4.8h-30.5v5.8c0,6.8-0.6,17.2-4.4,23.7c-1.3-1.1-2.8-2-4.3-2.8c3.5-6,3.7-14.8,3.7-20.9V87.7h15
	v-4.8h5.2v4.8H482.3z M468.6,97h13.1v4.4h-13.1v4.6h10.6v16h-5.1v-1.5h-14.9v1.6h-4.9v-16h9.2V93h5.1V97z M474.1,110.4h-14.9v5.7
	h14.9L474.1,110.4z"/>
<path class="st0" d="M378.9,158.8c-3.2,1.4-6.8,2.9-9.5,4.1l-1-3.1c0.9-0.3,2-0.7,3.2-1.2l-0.5-14.1l3-0.1l0.4,13.1
	c1.2-0.5,2.4-1,3.6-1.5L378.9,158.8z M388.9,165.6c-1.3-2.1-2.8-4-4.5-5.8c-1.9,2.6-4.4,4.6-7.3,5.9c-0.7-0.9-1.4-1.8-2.3-2.5
	c7.6-2.9,10.1-8.7,11-18.7l3.2,0.3c-0.5,4.9-1.4,9-3,12.3c1.9,1.9,3.7,4,5.4,6.2L388.9,165.6z M379.8,153.2c-0.9-2.2-2.1-4.2-3.6-6
	l2.6-1.3c1.5,1.7,2.8,3.7,3.8,5.8L379.8,153.2z"/>
<path class="st0" d="M415.5,161.5v2.9h-21.9v-2.9h8.6v-18.2h3.1v6.9h8.5v2.9h-8.5v8.4H415.5z"/>
<path class="st2" d="M286.2,21.6h33.3v12.8h-19.3v49.5h-14L286.2,21.6z"/>
<path class="st2" d="M497.7,188.4h-33.3v-12.8h19.3v-49.5h14L497.7,188.4z"/>
<path class="st0" d="M588,51.1c0.9,0,1.8,0,2.7-0.2v3.2c-0.5,0-1.4-0.1-2.7-0.1h-1.8v0.8c0,6-1.5,9.6-7.3,12.2l-2.6-2.4
	C581,63,583,60.9,583,55v-0.9h-5.7v3.3c0,1.1,0.1,2,0.1,2.5H574c0.1-0.8,0.2-1.7,0.2-2.5v-3.3h-2c-1.2,0-2.1,0-2.6,0.1v-3.3
	c0.9,0.1,1.7,0.2,2.6,0.2h2v-2.4c0-0.7-0.1-1.5-0.2-2.2h3.4c-0.1,0.7-0.1,1.5-0.1,2.2v2.4h5.7v-2.5c0-0.8,0-1.5-0.2-2.3h3.4
	c-0.1,0.7-0.1,1.5-0.1,2.3v2.5H588z"/>
<path class="st0" d="M593.8,54.4c0.9,0.1,2.6,0.1,3.9,0.1h13c1.1,0,2.2-0.1,2.8-0.1v3.8c-0.6,0-1.8-0.1-2.8-0.1h-13
	c-1.4,0-3,0-3.9,0.1V54.4z"/>
<path class="st0" d="M622.6,61.7c0,1,0.5,1.3,1.6,1.5c0.9,0.1,1.9,0.2,2.8,0.2c2.8,0,5.6-0.3,8.4-0.8v3.5c-2.9,0.3-5.7,0.5-8.6,0.5
	c-1.4,0-2.7-0.1-4.1-0.3c-2.1-0.4-3.3-1.5-3.3-3.6V49.5c0-0.8-0.1-1.7-0.2-2.5h3.6c-0.1,0.8-0.2,1.7-0.2,2.5v4.6
	c2.9-0.7,5.6-1.6,8.4-2.7c0.9-0.3,1.8-0.8,2.6-1.3l1.3,3.1c-0.9,0.4-2,0.8-2.8,1.1c-3.1,1.2-6.3,2.2-9.5,3L622.6,61.7z M633.2,50.1
	c-0.5-1.2-1.2-2.3-1.9-3.3l1.9-0.8c0.6,0.9,1.5,2.4,1.9,3.3L633.2,50.1z M636.1,44.9c0.7,1,1.4,2.1,1.9,3.3l-1.9,0.8
	c-0.6-1.2-1.2-2.3-2-3.3L636.1,44.9z"/>
<path class="st0" d="M657.7,49.2c-0.3,0.5-0.6,1-0.8,1.5c-1,2.3-2.3,4.6-3.8,6.6c2.4,2.1,4.7,4.4,6.7,6.9l-2.7,2.4
	c-1.8-2.4-3.9-4.7-6.1-6.8c-2.6,2.8-5.7,5.1-9.1,6.8l-2.5-2.6c3.8-1.5,7.2-3.9,9.9-6.9c1.6-1.7,2.8-3.7,3.6-5.9h-8.2
	c-1,0-2.3,0.1-2.8,0.2v-3.4c0.9,0.1,1.9,0.2,2.8,0.2h8.5c0.8,0,1.7-0.1,2.5-0.3L657.7,49.2z"/>
<path class="st0" d="M665.7,59.6c-0.2,2.1-0.7,4.2-1.5,6.2c-0.6-0.4-1.3-0.7-2-1c0.7-1.8,1.1-3.7,1.2-5.6L665.7,59.6z M685.2,66.6
	h-10.8v1h-2.7v-9.4l-1.8,0.8c-0.1-0.5-0.2-0.9-0.3-1.4l-1.2,0.1v10H666v-9.8l-3.2,0.2l-0.3-2.5c0.6,0,1.2-0.1,1.9-0.1
	c0.3-0.4,0.7-0.9,1-1.4c-0.8-1.3-1.7-2.4-2.8-3.5l1.4-1.9c0.2,0.2,0.4,0.4,0.6,0.5c0.7-1.4,1.3-2.8,1.7-4.2l2.4,0.8
	c-0.9,1.7-1.9,3.6-2.7,4.9c0.3,0.3,0.5,0.7,0.8,1c0.8-1.3,1.5-2.8,2.1-3.9l2.3,1c-0.9,1.5-1.9,3.1-3,4.6l1.9-0.8
	c0.7,1.4,1.3,2.9,1.7,4.4V46h2.7v14c1.4-1.4,2.6-3,3.4-4.8H675v-2.6h3.6v-7h2.4v7h3.8v2.6H681v0.4c1,0.9,3.5,3.4,4.1,4l-1.7,2.2
	c-0.7-1.1-1.5-2.2-2.4-3.3v5.2h-2.5v-5.1c-0.7,1.5-1.7,3-2.9,4.2c-0.3-0.9-0.7-1.7-1.1-2.6v3.8h10.8L685.2,66.6z M668.8,55.3
	c-0.2-0.6-0.4-1.1-0.7-1.7c-0.4,0.6-0.8,1.2-1.3,1.8L668.8,55.3z M670.4,59.1c0.6,1.4,1,2.9,1.2,4.3l-2,0.6c-0.2-1.5-0.6-3-1.1-4.4
	L670.4,59.1z M676.1,52.3c-0.3-1.6-0.7-3.2-1.4-4.7l2-0.7c0.7,1.5,1.2,3,1.5,4.6L676.1,52.3z M684.9,47.5c-0.7,1.7-1.4,3.6-2,4.8
	l-1.9-0.7c0.6-1.6,1.1-3.3,1.5-5L684.9,47.5z"/>
<path class="st0" d="M690.5,59.6c-0.2,2.1-0.7,4.2-1.4,6.2c-0.7-0.4-1.4-0.7-2.1-1c0.7-1.8,1.1-3.7,1.2-5.6L690.5,59.6z M693.3,57.6
	v10h-2.5v-9.8l-3.4,0.3l-0.3-2.5l1.7-0.1c0.4-0.4,0.7-0.9,1.1-1.4c-0.8-1.2-1.7-2.3-2.8-3.4l1.4-1.9c0.2,0.2,0.4,0.3,0.5,0.5
	c0.7-1.3,1.3-2.7,1.8-4.2l2.5,0.9c-0.8,1.7-1.8,3.6-2.7,4.9c0.3,0.3,0.5,0.6,0.8,0.9c0.8-1.3,1.5-2.6,2.2-3.9L696,49
	c-1.3,2-3,4.4-4.5,6.3l2.1-0.1c-0.2-0.5-0.5-1.1-0.8-1.5l2-0.8c0.6,1.1,1.2,2.3,1.7,3.5v-2.3h13.3v4.8h-2.4v-2.6H699v2.6h-2.4v-0.7
	l-1.7,0.8c-0.1-0.4-0.2-0.9-0.4-1.4L693.3,57.6z M695.5,59.1c0.6,1.4,1,2.8,1.2,4.3l-2.1,0.7c-0.2-1.5-0.6-2.9-1.1-4.3L695.5,59.1z
	 M699.4,57.5h2.6v2c0.2,3.5-1.9,6.8-5.2,8.2c-0.6-0.7-1.2-1.3-2-1.9c4-1.9,4.5-4.5,4.5-6.3L699.4,57.5z M701.6,49.3h-5V47h5v-1.9
	h2.8V47h5.1v2.3h-5.1v1.4h4.4V53h-11.4v-2.3h4.1L701.6,49.3z M707.5,65c0.3,0,0.5-0.4,0.5-3c0.7,0.5,1.5,0.9,2.3,1.1
	c-0.2,3.5-0.9,4.3-2.5,4.3h-1.5c-2,0-2.5-0.8-2.5-3.2v-6.7h2.6v6.7c0,0.7,0,0.8,0.4,0.8L707.5,65z"/>
<path class="st0" d="M720.1,56.9c0.5-0.4,0.9-0.9,1.4-1.3c-1-0.8-2-1.6-3-2.3l-1.8,1.5c-1.1-1-2.3-1.9-3.6-2.7l1.9-1.6
	c1.2,0.7,2.4,1.4,3.5,2.3l1.1-1.3l0.6,0.4c0.4-0.6,0.8-1.2,1.1-1.9h-7.9v-2.5h8.5v-2.3h3v2.3h8.7V50h-10l0.5,0.2
	c-0.8,1-1.5,2-2.3,2.8c0.4,0.3,0.8,0.6,1.2,0.9c0.8-1,1.6-2,2.2-2.8l2.2,1c-1.4,1.7-2.9,3.3-4.5,4.8l2.5-0.1
	c-0.3-0.5-0.6-0.9-0.9-1.3l2-0.8c0.4,0.5,0.8,1.1,1.2,1.7l1.5-1.2c1.8,0.9,3.4,1.9,5,3.1l-2.1,1.7c-1.2-1-2.5-1.9-3.8-2.6
	c0.3,0.6,0.6,1.1,0.8,1.7l-2.2,1c-0.1-0.4-0.3-0.8-0.5-1.2c-2.9,0.3-5.9,0.5-8.2,0.7l-0.3-1.7c-1.5,0.7-3.1,1.5-4.4,2.1l-1.3-2.3
	c1.5-0.5,3.8-1.4,6.1-2.2l0.4,1.8L720.1,56.9z M724.8,60.7h9.5v2.7h-9.5v4.3h-3v-4.3h-9.2v-2.7h9.3v-1.5h3L724.8,60.7z M727.9,53.4
	c1.2-0.9,2.3-1.9,3.3-3.1l2.6,1.2c-1.2,1.1-2.4,2.1-3.7,3L727.9,53.4z"/>
<path class="st1" d="M610.7,114.8c1.3,1.3,3.1,2.1,4.9,2.2c3.5,0,6.4-2.6,6.6-10.5c-1.5,2-3.9,3.3-6.4,3.4c-5.2,0-8.9-3.2-8.9-9.8
	c0-6.4,4.5-10.4,9.8-10.4c5.9,0,11.2,4.6,11.2,15.4c0,11.8-5.8,16.8-11.9,16.8c-3.2,0-6.3-1.2-8.5-3.5L610.7,114.8z M622.2,102.2
	c-0.5-5.7-2.7-7.8-5.3-7.8c-2.3,0-4.2,1.9-4.2,5.7c0,3.7,1.7,5.4,4.4,5.4C618.7,105.5,620.7,104.6,622.2,102.2z"/>
<path class="st1" d="M632.2,117.7l2.9-3.9c1.8,2,4.3,3.1,6.9,3.2c3.2,0,5.3-1.6,5.3-4.3c0-3.1-1.8-5-8.6-5v-4.4c5.7,0,7.6-2,7.6-4.8
	c0-2.4-1.5-3.9-4.2-3.9c-2.2,0-4,1.1-5.9,2.8l-3.2-3.8c2.5-2.4,5.8-3.8,9.3-3.8c6,0,10.1,2.9,10.1,8.3c0,3.4-1.9,5.8-5.2,7.1v0.2
	c3.5,1,6.2,3.6,6.2,7.7c0,5.7-5,9-10.9,9C637.7,122,634.4,120.2,632.2,117.7z"/>
<path class="st1" d="M659,99.1c0-6.3,3.2-9.8,7.6-9.8s7.6,3.6,7.6,9.8s-3.1,10-7.6,10S659,105.4,659,99.1z M669.9,99.1
	c0-4.6-1.4-6.3-3.3-6.3s-3.2,1.8-3.2,6.3s1.4,6.4,3.2,6.4S669.8,103.7,669.9,99.1L669.9,99.1z M684.6,89.3h3.7l-17,32.4h-3.7
	L684.6,89.3z M681.7,111.7c0-6.3,3.2-9.9,7.7-9.9s7.6,3.6,7.6,9.9s-3.2,9.9-7.6,9.9S681.7,118,681.7,111.7L681.7,111.7z
	 M692.6,111.7c0-4.6-1.4-6.3-3.2-6.3s-3.3,1.7-3.3,6.3s1.4,6.4,3.3,6.4S692.5,116.3,692.6,111.7L692.6,111.7z"/>
<path class="st0" d="M638.8,159.4c-3.2,1.4-6.8,2.9-9.5,4.1l-1-3.1c0.9-0.3,2-0.7,3.2-1.2l-0.5-14.1l3-0.1l0.4,13.1
	c1.2-0.5,2.4-1,3.7-1.5L638.8,159.4z M648.8,166.1c-1.3-2.1-2.8-4-4.5-5.8c-1.9,2.6-4.4,4.6-7.3,5.9c-0.7-0.9-1.4-1.8-2.3-2.5
	c7.7-2.9,10.1-8.7,11-18.7l3.2,0.3c-0.3,4.2-1.3,8.4-2.9,12.3c1.9,1.9,3.7,4,5.3,6.2L648.8,166.1z M639.8,153.8
	c-0.9-2.2-2.1-4.2-3.6-6l2.6-1.3c1.5,1.7,2.8,3.7,3.8,5.8L639.8,153.8z"/>
<path class="st0" d="M675.5,162.1v2.9h-22v-2.9h8.7v-18.2h3.1v6.9h8.5v2.9h-8.5v8.4H675.5z"/>
<path class="st2" d="M540.5,21.6h33.3v12.8h-19.3v49.5h-14L540.5,21.6z"/>
<path class="st2" d="M752,188.4h-33.3v-12.8H738v-49.5h14V188.4z"/>
</svg>
